<?xml version="1.0" encoding="utf-8" standalone="no"?>
<!DOCTYPE svg PUBLIC "-//W3C//DTD SVG 1.1//EN"
  "http://www.w3.org/Graphics/SVG/1.1/DTD/svg11.dtd">
<svg xmlns:xlink="http://www.w3.org/1999/xlink" width="2043.814375pt" height="1514.14875pt" viewBox="0 0 2043.814375 1514.14875" xmlns="http://www.w3.org/2000/svg" version="1.1">
 <metadata>
  <rdf:RDF xmlns:dc="http://purl.org/dc/elements/1.1/" xmlns:cc="http://creativecommons.org/ns#" xmlns:rdf="http://www.w3.org/1999/02/22-rdf-syntax-ns#">
   <cc:Work>
    <dc:type rdf:resource="http://purl.org/dc/dcmitype/StillImage"/>
    <dc:date>2026-06-15T14:13:41.301881</dc:date>
    <dc:format>image/svg+xml</dc:format>
    <dc:creator>
     <cc:Agent>
      <dc:title>Matplotlib v3.10.8, https://matplotlib.org/</dc:title>
     </cc:Agent>
    </dc:creator>
   </cc:Work>
  </rdf:RDF>
 </metadata>
 <defs>
  <style type="text/css">*{stroke-linejoin: round; stroke-linecap: butt}</style>
 </defs>
 <g id="figure_1">
  <g id="patch_1">
   <path d="M 0 1514.14875 
L 2043.814375 1514.14875 
L 2043.814375 0 
L 0 0 
z
" style="fill: #ffffff"/>
  </g>
  <g id="axes_1">
   <g id="patch_2">
    <path d="M 187.365625 1260 
L 1861.365625 1260 
L 1861.365625 151.2 
L 187.365625 151.2 
z
" style="fill: #ffffff"/>
   </g>
   <g id="matplotlib.axis_1">
    <g id="xtick_1">
     <g id="line2d_1">
      <path d="M 263.456534 1260 
L 263.456534 151.2 
" clip-path="url(#p0440c0647a)" style="fill: none; stroke: #808080; stroke-opacity: 0.5; stroke-width: 4; stroke-linecap: square"/>
     </g>
     <g id="line2d_2">
      <defs>
       <path id="md8034a0b62" d="M 0 0 
L 0 3.5 
" style="stroke: #000000; stroke-width: 7"/>
      </defs>
      <g>
       <use xlink:href="#md8034a0b62" x="263.456534" y="1260" style="stroke: #000000; stroke-width: 7"/>
      </g>
     </g>
     <g id="text_1">
      <!-- 0.0 -->
      <g transform="translate(215.747159 1312.590625) scale(0.6 -0.6)">
       <defs>
        <path id="DejaVuSans-30" d="M 2034 4250 
Q 1547 4250 1301 3770 
Q 1056 3291 1056 2328 
Q 1056 1369 1301 889 
Q 1547 409 2034 409 
Q 2525 409 2770 889 
Q 3016 1369 3016 2328 
Q 3016 3291 2770 3770 
Q 2525 4250 2034 4250 
z
M 2034 4750 
Q 2819 4750 3233 4129 
Q 3647 3509 3647 2328 
Q 3647 1150 3233 529 
Q 2819 -91 2034 -91 
Q 1250 -91 836 529 
Q 422 1150 422 2328 
Q 422 3509 836 4129 
Q 1250 4750 2034 4750 
z
" transform="scale(0.015625)"/>
        <path id="DejaVuSans-2e" d="M 684 794 
L 1344 794 
L 1344 0 
L 684 0 
L 684 794 
z
" transform="scale(0.015625)"/>
       </defs>
       <use xlink:href="#DejaVuSans-30"/>
       <use xlink:href="#DejaVuSans-2e" transform="translate(63.623047 0)"/>
       <use xlink:href="#DejaVuSans-30" transform="translate(95.410156 0)"/>
      </g>
     </g>
    </g>
    <g id="xtick_2">
     <g id="line2d_3">
      <path d="M 568.124839 1260 
L 568.124839 151.2 
" clip-path="url(#p0440c0647a)" style="fill: none; stroke: #808080; stroke-opacity: 0.5; stroke-width: 4; stroke-linecap: square"/>
     </g>
     <g id="line2d_4">
      <g>
       <use xlink:href="#md8034a0b62" x="568.124839" y="1260" style="stroke: #000000; stroke-width: 7"/>
      </g>
     </g>
     <g id="text_2">
      <!-- 0.2 -->
      <g transform="translate(520.415464 1312.590625) scale(0.6 -0.6)">
       <defs>
        <path id="DejaVuSans-32" d="M 1228 531 
L 3431 531 
L 3431 0 
L 469 0 
L 469 531 
Q 828 903 1448 1529 
Q 2069 2156 2228 2338 
Q 2531 2678 2651 2914 
Q 2772 3150 2772 3378 
Q 2772 3750 2511 3984 
Q 2250 4219 1831 4219 
Q 1534 4219 1204 4116 
Q 875 4013 500 3803 
L 500 4441 
Q 881 4594 1212 4672 
Q 1544 4750 1819 4750 
Q 2544 4750 2975 4387 
Q 3406 4025 3406 3419 
Q 3406 3131 3298 2873 
Q 3191 2616 2906 2266 
Q 2828 2175 2409 1742 
Q 1991 1309 1228 531 
z
" transform="scale(0.015625)"/>
       </defs>
       <use xlink:href="#DejaVuSans-30"/>
       <use xlink:href="#DejaVuSans-2e" transform="translate(63.623047 0)"/>
       <use xlink:href="#DejaVuSans-32" transform="translate(95.410156 0)"/>
      </g>
     </g>
    </g>
    <g id="xtick_3">
     <g id="line2d_5">
      <path d="M 872.793143 1260 
L 872.793143 151.2 
" clip-path="url(#p0440c0647a)" style="fill: none; stroke: #808080; stroke-opacity: 0.5; stroke-width: 4; stroke-linecap: square"/>
     </g>
     <g id="line2d_6">
      <g>
       <use xlink:href="#md8034a0b62" x="872.793143" y="1260" style="stroke: #000000; stroke-width: 7"/>
      </g>
     </g>
     <g id="text_3">
      <!-- 0.4 -->
      <g transform="translate(825.083768 1312.590625) scale(0.6 -0.6)">
       <defs>
        <path id="DejaVuSans-34" d="M 2419 4116 
L 825 1625 
L 2419 1625 
L 2419 4116 
z
M 2253 4666 
L 3047 4666 
L 3047 1625 
L 3713 1625 
L 3713 1100 
L 3047 1100 
L 3047 0 
L 2419 0 
L 2419 1100 
L 313 1100 
L 313 1709 
L 2253 4666 
z
" transform="scale(0.015625)"/>
       </defs>
       <use xlink:href="#DejaVuSans-30"/>
       <use xlink:href="#DejaVuSans-2e" transform="translate(63.623047 0)"/>
       <use xlink:href="#DejaVuSans-34" transform="translate(95.410156 0)"/>
      </g>
     </g>
    </g>
    <g id="xtick_4">
     <g id="line2d_7">
      <path d="M 1177.461448 1260 
L 1177.461448 151.2 
" clip-path="url(#p0440c0647a)" style="fill: none; stroke: #808080; stroke-opacity: 0.5; stroke-width: 4; stroke-linecap: square"/>
     </g>
     <g id="line2d_8">
      <g>
       <use xlink:href="#md8034a0b62" x="1177.461448" y="1260" style="stroke: #000000; stroke-width: 7"/>
      </g>
     </g>
     <g id="text_4">
      <!-- 0.6 -->
      <g transform="translate(1129.752073 1312.590625) scale(0.6 -0.6)">
       <defs>
        <path id="DejaVuSans-36" d="M 2113 2584 
Q 1688 2584 1439 2293 
Q 1191 2003 1191 1497 
Q 1191 994 1439 701 
Q 1688 409 2113 409 
Q 2538 409 2786 701 
Q 3034 994 3034 1497 
Q 3034 2003 2786 2293 
Q 2538 2584 2113 2584 
z
M 3366 4563 
L 3366 3988 
Q 3128 4100 2886 4159 
Q 2644 4219 2406 4219 
Q 1781 4219 1451 3797 
Q 1122 3375 1075 2522 
Q 1259 2794 1537 2939 
Q 1816 3084 2150 3084 
Q 2853 3084 3261 2657 
Q 3669 2231 3669 1497 
Q 3669 778 3244 343 
Q 2819 -91 2113 -91 
Q 1303 -91 875 529 
Q 447 1150 447 2328 
Q 447 3434 972 4092 
Q 1497 4750 2381 4750 
Q 2619 4750 2861 4703 
Q 3103 4656 3366 4563 
z
" transform="scale(0.015625)"/>
       </defs>
       <use xlink:href="#DejaVuSans-30"/>
       <use xlink:href="#DejaVuSans-2e" transform="translate(63.623047 0)"/>
       <use xlink:href="#DejaVuSans-36" transform="translate(95.410156 0)"/>
      </g>
     </g>
    </g>
    <g id="xtick_5">
     <g id="line2d_9">
      <path d="M 1482.129753 1260 
L 1482.129753 151.2 
" clip-path="url(#p0440c0647a)" style="fill: none; stroke: #808080; stroke-opacity: 0.5; stroke-width: 4; stroke-linecap: square"/>
     </g>
     <g id="line2d_10">
      <g>
       <use xlink:href="#md8034a0b62" x="1482.129753" y="1260" style="stroke: #000000; stroke-width: 7"/>
      </g>
     </g>
     <g id="text_5">
      <!-- 0.8 -->
      <g transform="translate(1434.420378 1312.590625) scale(0.6 -0.6)">
       <defs>
        <path id="DejaVuSans-38" d="M 2034 2216 
Q 1584 2216 1326 1975 
Q 1069 1734 1069 1313 
Q 1069 891 1326 650 
Q 1584 409 2034 409 
Q 2484 409 2743 651 
Q 3003 894 3003 1313 
Q 3003 1734 2745 1975 
Q 2488 2216 2034 2216 
z
M 1403 2484 
Q 997 2584 770 2862 
Q 544 3141 544 3541 
Q 544 4100 942 4425 
Q 1341 4750 2034 4750 
Q 2731 4750 3128 4425 
Q 3525 4100 3525 3541 
Q 3525 3141 3298 2862 
Q 3072 2584 2669 2484 
Q 3125 2378 3379 2068 
Q 3634 1759 3634 1313 
Q 3634 634 3220 271 
Q 2806 -91 2034 -91 
Q 1263 -91 848 271 
Q 434 634 434 1313 
Q 434 1759 690 2068 
Q 947 2378 1403 2484 
z
M 1172 3481 
Q 1172 3119 1398 2916 
Q 1625 2713 2034 2713 
Q 2441 2713 2670 2916 
Q 2900 3119 2900 3481 
Q 2900 3844 2670 4047 
Q 2441 4250 2034 4250 
Q 1625 4250 1398 4047 
Q 1172 3844 1172 3481 
z
" transform="scale(0.015625)"/>
       </defs>
       <use xlink:href="#DejaVuSans-30"/>
       <use xlink:href="#DejaVuSans-2e" transform="translate(63.623047 0)"/>
       <use xlink:href="#DejaVuSans-38" transform="translate(95.410156 0)"/>
      </g>
     </g>
    </g>
    <g id="xtick_6">
     <g id="line2d_11">
      <path d="M 1786.798057 1260 
L 1786.798057 151.2 
" clip-path="url(#p0440c0647a)" style="fill: none; stroke: #808080; stroke-opacity: 0.5; stroke-width: 4; stroke-linecap: square"/>
     </g>
     <g id="line2d_12">
      <g>
       <use xlink:href="#md8034a0b62" x="1786.798057" y="1260" style="stroke: #000000; stroke-width: 7"/>
      </g>
     </g>
     <g id="text_6">
      <!-- 1.0 -->
      <g transform="translate(1739.088682 1312.590625) scale(0.6 -0.6)">
       <defs>
        <path id="DejaVuSans-31" d="M 794 531 
L 1825 531 
L 1825 4091 
L 703 3866 
L 703 4441 
L 1819 4666 
L 2450 4666 
L 2450 531 
L 3481 531 
L 3481 0 
L 794 0 
L 794 531 
z
" transform="scale(0.015625)"/>
       </defs>
       <use xlink:href="#DejaVuSans-31"/>
       <use xlink:href="#DejaVuSans-2e" transform="translate(63.623047 0)"/>
       <use xlink:href="#DejaVuSans-30" transform="translate(95.410156 0)"/>
      </g>
     </g>
    </g>
    <g id="text_7">
     <!-- Input -->
     <g transform="translate(933.7375 1382.257812) scale(0.7 -0.7)">
      <defs>
       <path id="DejaVuSans-49" d="M 628 4666 
L 1259 4666 
L 1259 0 
L 628 0 
L 628 4666 
z
" transform="scale(0.015625)"/>
       <path id="DejaVuSans-6e" d="M 3513 2113 
L 3513 0 
L 2938 0 
L 2938 2094 
Q 2938 2591 2744 2837 
Q 2550 3084 2163 3084 
Q 1697 3084 1428 2787 
Q 1159 2491 1159 1978 
L 1159 0 
L 581 0 
L 581 3500 
L 1159 3500 
L 1159 2956 
Q 1366 3272 1645 3428 
Q 1925 3584 2291 3584 
Q 2894 3584 3203 3211 
Q 3513 2838 3513 2113 
z
" transform="scale(0.015625)"/>
       <path id="DejaVuSans-70" d="M 1159 525 
L 1159 -1331 
L 581 -1331 
L 581 3500 
L 1159 3500 
L 1159 2969 
Q 1341 3281 1617 3432 
Q 1894 3584 2278 3584 
Q 2916 3584 3314 3078 
Q 3713 2572 3713 1747 
Q 3713 922 3314 415 
Q 2916 -91 2278 -91 
Q 1894 -91 1617 61 
Q 1341 213 1159 525 
z
M 3116 1747 
Q 3116 2381 2855 2742 
Q 2594 3103 2138 3103 
Q 1681 3103 1420 2742 
Q 1159 2381 1159 1747 
Q 1159 1113 1420 752 
Q 1681 391 2138 391 
Q 2594 391 2855 752 
Q 3116 1113 3116 1747 
z
" transform="scale(0.015625)"/>
       <path id="DejaVuSans-75" d="M 544 1381 
L 544 3500 
L 1119 3500 
L 1119 1403 
Q 1119 906 1312 657 
Q 1506 409 1894 409 
Q 2359 409 2629 706 
Q 2900 1003 2900 1516 
L 2900 3500 
L 3475 3500 
L 3475 0 
L 2900 0 
L 2900 538 
Q 2691 219 2414 64 
Q 2138 -91 1772 -91 
Q 1169 -91 856 284 
Q 544 659 544 1381 
z
M 1991 3584 
L 1991 3584 
z
" transform="scale(0.015625)"/>
       <path id="DejaVuSans-74" d="M 1172 4494 
L 1172 3500 
L 2356 3500 
L 2356 3053 
L 1172 3053 
L 1172 1153 
Q 1172 725 1289 603 
Q 1406 481 1766 481 
L 2356 481 
L 2356 0 
L 1766 0 
Q 1100 0 847 248 
Q 594 497 594 1153 
L 594 3053 
L 172 3053 
L 172 3500 
L 594 3500 
L 594 4494 
L 1172 4494 
z
" transform="scale(0.015625)"/>
      </defs>
      <use xlink:href="#DejaVuSans-49"/>
      <use xlink:href="#DejaVuSans-6e" transform="translate(29.492188 0)"/>
      <use xlink:href="#DejaVuSans-70" transform="translate(92.871094 0)"/>
      <use xlink:href="#DejaVuSans-75" transform="translate(156.347656 0)"/>
      <use xlink:href="#DejaVuSans-74" transform="translate(219.726562 0)"/>
     </g>
    </g>
   </g>
   <g id="matplotlib.axis_2">
    <g id="ytick_1">
     <g id="line2d_13">
      <path d="M 187.365625 1249.687684 
L 1861.365625 1249.687684 
" clip-path="url(#p0440c0647a)" style="fill: none; stroke: #808080; stroke-opacity: 0.5; stroke-width: 4; stroke-linecap: square"/>
     </g>
     <g id="line2d_14">
      <defs>
       <path id="mff9d935e9f" d="M 0 0 
L -3.5 0 
" style="stroke: #000000; stroke-width: 7"/>
      </defs>
      <g>
       <use xlink:href="#mff9d935e9f" x="187.365625" y="1249.687684" style="stroke: #000000; stroke-width: 7"/>
      </g>
     </g>
     <g id="text_8">
      <!-- 0.1 -->
      <g transform="translate(84.946875 1272.482997) scale(0.6 -0.6)">
       <use xlink:href="#DejaVuSans-30"/>
       <use xlink:href="#DejaVuSans-2e" transform="translate(63.623047 0)"/>
       <use xlink:href="#DejaVuSans-31" transform="translate(95.410156 0)"/>
      </g>
     </g>
    </g>
    <g id="ytick_2">
     <g id="line2d_15">
      <path d="M 187.365625 1111.005966 
L 1861.365625 1111.005966 
" clip-path="url(#p0440c0647a)" style="fill: none; stroke: #808080; stroke-opacity: 0.5; stroke-width: 4; stroke-linecap: square"/>
     </g>
     <g id="line2d_16">
      <g>
       <use xlink:href="#mff9d935e9f" x="187.365625" y="1111.005966" style="stroke: #000000; stroke-width: 7"/>
      </g>
     </g>
     <g id="text_9">
      <!-- 0.2 -->
      <g transform="translate(84.946875 1133.801279) scale(0.6 -0.6)">
       <use xlink:href="#DejaVuSans-30"/>
       <use xlink:href="#DejaVuSans-2e" transform="translate(63.623047 0)"/>
       <use xlink:href="#DejaVuSans-32" transform="translate(95.410156 0)"/>
      </g>
     </g>
    </g>
    <g id="ytick_3">
     <g id="line2d_17">
      <path d="M 187.365625 972.324249 
L 1861.365625 972.324249 
" clip-path="url(#p0440c0647a)" style="fill: none; stroke: #808080; stroke-opacity: 0.5; stroke-width: 4; stroke-linecap: square"/>
     </g>
     <g id="line2d_18">
      <g>
       <use xlink:href="#mff9d935e9f" x="187.365625" y="972.324249" style="stroke: #000000; stroke-width: 7"/>
      </g>
     </g>
     <g id="text_10">
      <!-- 0.3 -->
      <g transform="translate(84.946875 995.119561) scale(0.6 -0.6)">
       <defs>
        <path id="DejaVuSans-33" d="M 2597 2516 
Q 3050 2419 3304 2112 
Q 3559 1806 3559 1356 
Q 3559 666 3084 287 
Q 2609 -91 1734 -91 
Q 1441 -91 1130 -33 
Q 819 25 488 141 
L 488 750 
Q 750 597 1062 519 
Q 1375 441 1716 441 
Q 2309 441 2620 675 
Q 2931 909 2931 1356 
Q 2931 1769 2642 2001 
Q 2353 2234 1838 2234 
L 1294 2234 
L 1294 2753 
L 1863 2753 
Q 2328 2753 2575 2939 
Q 2822 3125 2822 3475 
Q 2822 3834 2567 4026 
Q 2313 4219 1838 4219 
Q 1578 4219 1281 4162 
Q 984 4106 628 3988 
L 628 4550 
Q 988 4650 1302 4700 
Q 1616 4750 1894 4750 
Q 2613 4750 3031 4423 
Q 3450 4097 3450 3541 
Q 3450 3153 3228 2886 
Q 3006 2619 2597 2516 
z
" transform="scale(0.015625)"/>
       </defs>
       <use xlink:href="#DejaVuSans-30"/>
       <use xlink:href="#DejaVuSans-2e" transform="translate(63.623047 0)"/>
       <use xlink:href="#DejaVuSans-33" transform="translate(95.410156 0)"/>
      </g>
     </g>
    </g>
    <g id="ytick_4">
     <g id="line2d_19">
      <path d="M 187.365625 833.642531 
L 1861.365625 833.642531 
" clip-path="url(#p0440c0647a)" style="fill: none; stroke: #808080; stroke-opacity: 0.5; stroke-width: 4; stroke-linecap: square"/>
     </g>
     <g id="line2d_20">
      <g>
       <use xlink:href="#mff9d935e9f" x="187.365625" y="833.642531" style="stroke: #000000; stroke-width: 7"/>
      </g>
     </g>
     <g id="text_11">
      <!-- 0.4 -->
      <g transform="translate(84.946875 856.437844) scale(0.6 -0.6)">
       <use xlink:href="#DejaVuSans-30"/>
       <use xlink:href="#DejaVuSans-2e" transform="translate(63.623047 0)"/>
       <use xlink:href="#DejaVuSans-34" transform="translate(95.410156 0)"/>
      </g>
     </g>
    </g>
    <g id="ytick_5">
     <g id="line2d_21">
      <path d="M 187.365625 694.960813 
L 1861.365625 694.960813 
" clip-path="url(#p0440c0647a)" style="fill: none; stroke: #808080; stroke-opacity: 0.5; stroke-width: 4; stroke-linecap: square"/>
     </g>
     <g id="line2d_22">
      <g>
       <use xlink:href="#mff9d935e9f" x="187.365625" y="694.960813" style="stroke: #000000; stroke-width: 7"/>
      </g>
     </g>
     <g id="text_12">
      <!-- 0.5 -->
      <g transform="translate(84.946875 717.756126) scale(0.6 -0.6)">
       <defs>
        <path id="DejaVuSans-35" d="M 691 4666 
L 3169 4666 
L 3169 4134 
L 1269 4134 
L 1269 2991 
Q 1406 3038 1543 3061 
Q 1681 3084 1819 3084 
Q 2600 3084 3056 2656 
Q 3513 2228 3513 1497 
Q 3513 744 3044 326 
Q 2575 -91 1722 -91 
Q 1428 -91 1123 -41 
Q 819 9 494 109 
L 494 744 
Q 775 591 1075 516 
Q 1375 441 1709 441 
Q 2250 441 2565 725 
Q 2881 1009 2881 1497 
Q 2881 1984 2565 2268 
Q 2250 2553 1709 2553 
Q 1456 2553 1204 2497 
Q 953 2441 691 2322 
L 691 4666 
z
" transform="scale(0.015625)"/>
       </defs>
       <use xlink:href="#DejaVuSans-30"/>
       <use xlink:href="#DejaVuSans-2e" transform="translate(63.623047 0)"/>
       <use xlink:href="#DejaVuSans-35" transform="translate(95.410156 0)"/>
      </g>
     </g>
    </g>
    <g id="ytick_6">
     <g id="line2d_23">
      <path d="M 187.365625 556.279096 
L 1861.365625 556.279096 
" clip-path="url(#p0440c0647a)" style="fill: none; stroke: #808080; stroke-opacity: 0.5; stroke-width: 4; stroke-linecap: square"/>
     </g>
     <g id="line2d_24">
      <g>
       <use xlink:href="#mff9d935e9f" x="187.365625" y="556.279096" style="stroke: #000000; stroke-width: 7"/>
      </g>
     </g>
     <g id="text_13">
      <!-- 0.6 -->
      <g transform="translate(84.946875 579.074408) scale(0.6 -0.6)">
       <use xlink:href="#DejaVuSans-30"/>
       <use xlink:href="#DejaVuSans-2e" transform="translate(63.623047 0)"/>
       <use xlink:href="#DejaVuSans-36" transform="translate(95.410156 0)"/>
      </g>
     </g>
    </g>
    <g id="ytick_7">
     <g id="line2d_25">
      <path d="M 187.365625 417.597378 
L 1861.365625 417.597378 
" clip-path="url(#p0440c0647a)" style="fill: none; stroke: #808080; stroke-opacity: 0.5; stroke-width: 4; stroke-linecap: square"/>
     </g>
     <g id="line2d_26">
      <g>
       <use xlink:href="#mff9d935e9f" x="187.365625" y="417.597378" style="stroke: #000000; stroke-width: 7"/>
      </g>
     </g>
     <g id="text_14">
      <!-- 0.7 -->
      <g transform="translate(84.946875 440.392691) scale(0.6 -0.6)">
       <defs>
        <path id="DejaVuSans-37" d="M 525 4666 
L 3525 4666 
L 3525 4397 
L 1831 0 
L 1172 0 
L 2766 4134 
L 525 4134 
L 525 4666 
z
" transform="scale(0.015625)"/>
       </defs>
       <use xlink:href="#DejaVuSans-30"/>
       <use xlink:href="#DejaVuSans-2e" transform="translate(63.623047 0)"/>
       <use xlink:href="#DejaVuSans-37" transform="translate(95.410156 0)"/>
      </g>
     </g>
    </g>
    <g id="ytick_8">
     <g id="line2d_27">
      <path d="M 187.365625 278.91566 
L 1861.365625 278.91566 
" clip-path="url(#p0440c0647a)" style="fill: none; stroke: #808080; stroke-opacity: 0.5; stroke-width: 4; stroke-linecap: square"/>
     </g>
     <g id="line2d_28">
      <g>
       <use xlink:href="#mff9d935e9f" x="187.365625" y="278.91566" style="stroke: #000000; stroke-width: 7"/>
      </g>
     </g>
     <g id="text_15">
      <!-- 0.8 -->
      <g transform="translate(84.946875 301.710973) scale(0.6 -0.6)">
       <use xlink:href="#DejaVuSans-30"/>
       <use xlink:href="#DejaVuSans-2e" transform="translate(63.623047 0)"/>
       <use xlink:href="#DejaVuSans-38" transform="translate(95.410156 0)"/>
      </g>
     </g>
    </g>
    <g id="text_16">
     <!-- Output -->
     <g transform="translate(60.389063 827.175781) rotate(-90) scale(0.7 -0.7)">
      <defs>
       <path id="DejaVuSans-4f" d="M 2522 4238 
Q 1834 4238 1429 3725 
Q 1025 3213 1025 2328 
Q 1025 1447 1429 934 
Q 1834 422 2522 422 
Q 3209 422 3611 934 
Q 4013 1447 4013 2328 
Q 4013 3213 3611 3725 
Q 3209 4238 2522 4238 
z
M 2522 4750 
Q 3503 4750 4090 4092 
Q 4678 3434 4678 2328 
Q 4678 1225 4090 567 
Q 3503 -91 2522 -91 
Q 1538 -91 948 565 
Q 359 1222 359 2328 
Q 359 3434 948 4092 
Q 1538 4750 2522 4750 
z
" transform="scale(0.015625)"/>
      </defs>
      <use xlink:href="#DejaVuSans-4f"/>
      <use xlink:href="#DejaVuSans-75" transform="translate(78.710938 0)"/>
      <use xlink:href="#DejaVuSans-74" transform="translate(142.089844 0)"/>
      <use xlink:href="#DejaVuSans-70" transform="translate(181.298828 0)"/>
      <use xlink:href="#DejaVuSans-75" transform="translate(244.775391 0)"/>
      <use xlink:href="#DejaVuSans-74" transform="translate(308.154297 0)"/>
     </g>
    </g>
   </g>
   <g id="line2d_29">
    <path d="M 263.456534 1111.005966 
L 271.073242 1074.065691 
L 278.689949 1038.12617 
L 286.306657 1003.177166 
L 293.923365 969.208442 
L 301.540072 936.209763 
L 309.15678 904.170893 
L 316.773487 873.081595 
L 324.390195 842.931632 
L 332.006903 813.710769 
L 339.62361 785.40877 
L 347.240318 758.015397 
L 354.857025 731.520415 
L 362.473733 705.913588 
L 370.090441 681.184678 
L 377.707148 657.323451 
L 385.323856 634.319669 
L 392.940564 612.163097 
L 400.557271 590.843498 
L 406.650637 574.383561 
L 412.744003 558.447494 
L 418.837369 543.030057 
L 424.930736 528.126008 
L 431.024102 513.730107 
L 437.117468 499.837113 
L 443.210834 486.441785 
L 449.3042 473.538881 
L 455.397566 461.123162 
L 461.490932 449.189385 
L 467.584298 437.73231 
L 473.677664 426.746696 
L 479.77103 416.227301 
L 485.864396 406.168886 
L 491.957763 396.566209 
L 498.051129 387.414029 
L 504.144495 378.707105 
L 510.237861 370.440195 
L 516.331227 362.60806 
L 522.424593 355.205459 
L 528.517959 348.227149 
L 534.611325 341.66789 
L 540.704691 335.522442 
L 546.798057 329.785563 
L 551.368082 325.747875 
L 555.938107 321.934847 
L 560.508131 318.34427 
L 565.078156 314.973932 
L 569.64818 311.821622 
L 574.218205 308.885129 
L 578.788229 306.162241 
L 583.358254 303.650749 
L 587.928279 301.348441 
L 592.498303 299.253105 
L 597.068328 297.362531 
L 601.638352 295.674508 
L 606.208377 294.186825 
L 610.778401 292.897271 
L 615.348426 291.803634 
L 619.918451 290.903704 
L 624.488475 290.195269 
L 629.0585 289.676119 
L 633.628524 289.344043 
L 638.198549 289.196829 
L 642.768573 289.232266 
L 647.338598 289.448144 
L 651.908623 289.842251 
L 656.478647 290.412377 
L 661.048672 291.15631 
L 665.618696 292.071839 
L 671.712062 293.555651 
L 677.805428 295.335351 
L 683.898795 297.405699 
L 689.992161 299.761453 
L 696.085527 302.397373 
L 702.178893 305.308217 
L 708.272259 308.488744 
L 714.365625 311.933714 
L 720.458991 315.637886 
L 726.552357 319.596018 
L 732.645723 323.80287 
L 738.739089 328.253201 
L 744.832455 332.941769 
L 750.925822 337.863334 
L 758.542529 344.334958 
L 766.159237 351.152214 
L 773.775944 358.304865 
L 781.392652 365.782676 
L 789.00936 373.575411 
L 796.626067 381.672833 
L 804.242775 390.064705 
L 811.859482 398.740792 
L 820.999532 409.512846 
L 830.139581 420.661741 
L 839.27963 432.169788 
L 848.419679 444.019299 
L 857.559728 456.192585 
L 868.223119 470.780371 
L 878.88651 485.756687 
L 889.5499 501.093445 
L 901.736632 519.026495 
L 913.923365 537.351712 
L 927.633438 558.384137 
L 942.866854 582.200776 
L 959.62361 608.848291 
L 979.42705 640.802753 
L 1005.323856 683.059074 
L 1055.594126 765.186972 
L 1075.397566 797.062774 
L 1092.154323 823.618375 
L 1107.387738 847.331286 
L 1121.097812 868.253934 
L 1133.284544 886.468508 
L 1145.471276 904.278621 
L 1156.134667 919.497725 
L 1166.798057 934.346975 
L 1177.461448 948.798282 
L 1186.601497 960.847095 
L 1195.741546 972.565218 
L 1204.881596 983.934962 
L 1214.021645 994.938638 
L 1223.161694 1005.558559 
L 1230.778401 1014.102585 
L 1238.395109 1022.357595 
L 1246.011817 1030.313351 
L 1253.628524 1037.959619 
L 1261.245232 1045.286161 
L 1268.861939 1052.282741 
L 1276.478647 1058.939123 
L 1284.095355 1065.245071 
L 1290.188721 1070.030637 
L 1296.282087 1074.580134 
L 1302.375453 1078.888319 
L 1308.468819 1082.949953 
L 1314.562185 1086.759793 
L 1320.655551 1090.312599 
L 1326.748917 1093.603131 
L 1332.842283 1096.626146 
L 1338.93565 1099.376404 
L 1345.029016 1101.848665 
L 1351.122382 1104.037686 
L 1357.215748 1105.938228 
L 1363.309114 1107.545049 
L 1369.40248 1108.852908 
L 1373.972505 1109.634456 
L 1378.542529 1110.242679 
L 1383.112554 1110.675366 
L 1387.682578 1110.930305 
L 1392.252603 1111.005287 
L 1396.822627 1110.898099 
L 1401.392652 1110.606531 
L 1405.962677 1110.128371 
L 1410.532701 1109.461409 
L 1415.102726 1108.603434 
L 1419.67275 1107.552235 
L 1424.242775 1106.3056 
L 1428.812799 1104.861318 
L 1433.382824 1103.217179 
L 1437.952849 1101.370972 
L 1442.522873 1099.320485 
L 1447.092898 1097.063507 
L 1451.662922 1094.597828 
L 1456.232947 1091.921236 
L 1460.802971 1089.03152 
L 1465.372996 1085.92647 
L 1469.943021 1082.603874 
L 1474.513045 1079.061521 
L 1479.08307 1075.2972 
L 1483.653094 1071.3087 
L 1488.223119 1067.09381 
L 1494.316485 1061.117974 
L 1500.409851 1054.730494 
L 1506.503217 1047.926132 
L 1512.596583 1040.699644 
L 1518.689949 1033.045791 
L 1524.783315 1024.959332 
L 1530.876682 1016.435025 
L 1536.970048 1007.467629 
L 1543.063414 998.051904 
L 1549.15678 988.182609 
L 1555.250146 977.854502 
L 1561.343512 967.062343 
L 1567.436878 955.80089 
L 1573.530244 944.064903 
L 1579.62361 931.849141 
L 1585.716976 919.148363 
L 1591.810342 905.957327 
L 1597.903709 892.270793 
L 1603.997075 878.08352 
L 1610.090441 863.390267 
L 1616.183807 848.185793 
L 1622.277173 832.464856 
L 1628.370539 816.222217 
L 1634.463905 799.452634 
L 1640.557271 782.150865 
L 1648.173979 759.767286 
L 1655.790686 736.533741 
L 1663.407394 712.439996 
L 1671.024102 687.475815 
L 1678.640809 661.63096 
L 1686.257517 634.895196 
L 1693.874225 607.258286 
L 1701.490932 578.709994 
L 1709.10764 549.240084 
L 1716.724347 518.838319 
L 1724.341055 487.494464 
L 1731.957763 455.198281 
L 1739.57447 421.939535 
L 1747.191178 387.70799 
L 1754.807885 352.493409 
L 1762.424593 316.285555 
L 1770.041301 279.074194 
L 1777.658008 240.849087 
L 1785.274716 201.6 
L 1785.274716 201.6 
" clip-path="url(#p0440c0647a)" style="fill: none; stroke: #0000ff; stroke-width: 9; stroke-linecap: square"/>
   </g>
   <g id="line2d_30">
    <path d="M 263.456534 998.327071 
L 264.979876 998.327071 
L 266.503217 987.492562 
L 271.073242 987.492562 
L 272.596583 971.240798 
L 277.166608 971.240798 
L 278.689949 960.406289 
L 283.259974 960.406289 
L 284.783315 949.571779 
L 289.35334 949.571779 
L 290.876682 933.320016 
L 295.446706 933.320016 
L 296.970048 922.485506 
L 301.540072 922.485506 
L 303.063414 906.233743 
L 307.633438 906.233743 
L 309.15678 895.399233 
L 313.726804 895.399233 
L 315.250146 884.564724 
L 319.82017 884.564724 
L 321.343512 868.31296 
L 325.913537 868.31296 
L 327.436878 857.478451 
L 330.483561 857.478451 
L 332.006903 846.643942 
L 336.576927 846.643942 
L 338.100269 830.392178 
L 342.670293 830.392178 
L 344.193635 819.557669 
L 348.763659 819.557669 
L 350.287001 803.305905 
L 354.857025 803.305905 
L 356.380367 678.70905 
L 360.950392 678.70905 
L 362.473733 667.87454 
L 367.043758 667.87454 
L 368.567099 651.622777 
L 373.137124 651.622777 
L 374.660465 640.788267 
L 379.23049 640.788267 
L 380.753831 629.953758 
L 385.323856 629.953758 
L 386.847197 613.701994 
L 389.893881 613.701994 
L 391.417222 602.867485 
L 395.987247 602.867485 
L 397.510588 586.615721 
L 402.080613 586.615721 
L 403.603954 575.781212 
L 408.173979 575.781212 
L 409.69732 564.946703 
L 414.267345 564.946703 
L 415.790686 548.694939 
L 420.360711 548.694939 
L 421.884053 537.86043 
L 426.454077 537.86043 
L 427.977419 527.025921 
L 432.547443 527.025921 
L 434.070785 510.774157 
L 438.640809 510.774157 
L 440.164151 499.939648 
L 444.734175 499.939648 
L 446.257517 483.687884 
L 455.397566 483.687884 
L 456.920908 472.853375 
L 461.490932 472.853375 
L 463.014274 456.601611 
L 467.584298 456.601611 
L 469.10764 445.767102 
L 473.677664 445.767102 
L 475.201006 434.932593 
L 479.77103 434.932593 
L 481.294372 418.680829 
L 485.864396 418.680829 
L 487.387738 407.84632 
L 491.957763 407.84632 
L 493.481104 391.594556 
L 498.051129 391.594556 
L 499.57447 380.760047 
L 504.144495 380.760047 
L 505.667836 369.925538 
L 510.237861 369.925538 
L 511.761202 353.673774 
L 516.331227 353.673774 
L 517.854568 342.839265 
L 520.901252 342.839265 
L 522.424593 332.004755 
L 526.994618 332.004755 
L 528.517959 315.752992 
L 533.087984 315.752992 
L 534.611325 304.918482 
L 539.18135 304.918482 
L 540.704691 288.666719 
L 545.274716 288.666719 
L 546.798057 402.429065 
L 551.368082 402.429065 
L 552.891424 391.594556 
L 557.461448 391.594556 
L 558.98479 375.342792 
L 563.554814 375.342792 
L 565.078156 364.508283 
L 569.64818 364.508283 
L 571.171522 353.673774 
L 575.741546 353.673774 
L 577.264888 337.42201 
L 580.311571 337.42201 
L 581.834912 326.587501 
L 586.404937 326.587501 
L 587.928279 310.335737 
L 592.498303 310.335737 
L 594.021645 299.501228 
L 598.591669 299.501228 
L 600.115011 288.666719 
L 604.685035 288.666719 
L 606.208377 272.414955 
L 610.778401 272.414955 
L 612.301743 261.580446 
L 616.871768 261.580446 
L 618.395109 250.745936 
L 622.965134 250.745936 
L 624.488475 234.494173 
L 629.0585 234.494173 
L 630.581841 223.659664 
L 635.151866 223.659664 
L 636.675207 207.4079 
L 641.245232 207.4079 
L 642.768573 245.328682 
L 645.815256 245.328682 
L 647.338598 250.745936 
L 651.908623 250.745936 
L 653.431964 256.163191 
L 658.001989 256.163191 
L 659.52533 266.9977 
L 664.095355 266.9977 
L 665.618696 272.414955 
L 670.188721 272.414955 
L 671.712062 277.832209 
L 676.282087 277.832209 
L 677.805428 283.249464 
L 682.375453 283.249464 
L 683.898795 294.083973 
L 688.468819 294.083973 
L 689.992161 299.501228 
L 694.562185 299.501228 
L 696.085527 304.918482 
L 700.655551 304.918482 
L 702.178893 310.335737 
L 706.748917 310.335737 
L 708.272259 321.170246 
L 711.318942 321.170246 
L 712.842283 326.587501 
L 717.412308 326.587501 
L 718.93565 332.004755 
L 723.505674 332.004755 
L 725.029016 337.42201 
L 729.59904 337.42201 
L 731.122382 342.839265 
L 735.692406 342.839265 
L 737.215748 315.752992 
L 741.785772 315.752992 
L 743.309114 321.170246 
L 747.879139 321.170246 
L 749.40248 326.587501 
L 753.972505 326.587501 
L 755.495846 337.42201 
L 760.065871 337.42201 
L 761.589212 342.839265 
L 766.159237 342.839265 
L 767.682578 348.256519 
L 770.729261 348.256519 
L 772.252603 353.673774 
L 776.822627 353.673774 
L 778.345969 364.508283 
L 782.915994 364.508283 
L 784.439335 369.925538 
L 789.00936 369.925538 
L 790.532701 375.342792 
L 795.102726 375.342792 
L 796.626067 380.760047 
L 801.196092 380.760047 
L 802.719433 391.594556 
L 807.289458 391.594556 
L 808.812799 397.011811 
L 813.382824 397.011811 
L 814.906166 402.429065 
L 819.47619 402.429065 
L 820.999532 407.84632 
L 825.569556 407.84632 
L 827.092898 413.263574 
L 831.662922 413.263574 
L 833.186264 434.932593 
L 836.232947 434.932593 
L 837.756288 440.349847 
L 842.326313 440.349847 
L 843.849654 445.767102 
L 848.419679 445.767102 
L 849.943021 456.601611 
L 854.513045 456.601611 
L 856.036387 462.018866 
L 860.606411 462.018866 
L 862.129753 467.43612 
L 866.699777 467.43612 
L 868.223119 472.853375 
L 872.793143 472.853375 
L 874.316485 483.687884 
L 878.88651 483.687884 
L 880.409851 489.105139 
L 884.979876 489.105139 
L 886.503217 494.522393 
L 891.073242 494.522393 
L 892.596583 499.939648 
L 897.166608 499.939648 
L 898.689949 510.774157 
L 901.736632 510.774157 
L 903.259974 516.191412 
L 907.829998 516.191412 
L 909.35334 521.608666 
L 913.923365 521.608666 
L 915.446706 527.025921 
L 920.016731 527.025921 
L 921.540072 532.443175 
L 926.110097 532.443175 
L 927.633438 586.615721 
L 932.203463 586.615721 
L 933.726804 592.032976 
L 938.296829 592.032976 
L 939.82017 597.450231 
L 944.390195 597.450231 
L 945.913537 608.28474 
L 950.483561 608.28474 
L 952.006903 613.701994 
L 956.576927 613.701994 
L 958.100269 619.119249 
L 961.146952 619.119249 
L 962.670293 624.536504 
L 967.240318 624.536504 
L 968.763659 635.371013 
L 973.333684 635.371013 
L 974.857025 640.788267 
L 979.42705 640.788267 
L 980.950392 646.205522 
L 985.520416 646.205522 
L 987.043758 651.622777 
L 991.613782 651.622777 
L 993.137124 662.457286 
L 997.707148 662.457286 
L 999.23049 667.87454 
L 1003.800514 667.87454 
L 1005.323856 673.291795 
L 1009.893881 673.291795 
L 1011.417222 678.70905 
L 1015.987247 678.70905 
L 1017.510588 684.126304 
L 1022.080613 684.126304 
L 1023.603954 743.716105 
L 1026.650637 743.716105 
L 1028.173979 749.133359 
L 1032.744003 749.133359 
L 1034.267345 754.550614 
L 1038.837369 754.550614 
L 1040.360711 759.967869 
L 1044.930736 759.967869 
L 1046.454077 770.802378 
L 1051.024102 770.802378 
L 1052.547443 776.219632 
L 1057.117468 776.219632 
L 1058.640809 781.636887 
L 1063.210834 781.636887 
L 1064.734175 787.054142 
L 1069.3042 787.054142 
L 1070.827541 792.471396 
L 1075.397566 792.471396 
L 1076.920908 797.888651 
L 1081.490932 797.888651 
L 1083.014274 803.305905 
L 1087.584298 803.305905 
L 1089.10764 814.140414 
L 1092.154323 814.140414 
L 1093.677664 819.557669 
L 1098.247689 819.557669 
L 1099.77103 824.974924 
L 1104.341055 824.974924 
L 1105.864396 830.392178 
L 1110.434421 830.392178 
L 1111.957763 835.809433 
L 1116.527787 835.809433 
L 1118.051129 884.564724 
L 1122.621153 884.564724 
L 1124.144495 889.981979 
L 1128.714519 889.981979 
L 1130.237861 895.399233 
L 1134.807885 895.399233 
L 1136.331227 900.816488 
L 1140.901252 900.816488 
L 1142.424593 911.650997 
L 1146.994618 911.650997 
L 1148.517959 917.068252 
L 1151.564642 917.068252 
L 1153.087984 922.485506 
L 1157.658008 922.485506 
L 1159.18135 927.902761 
L 1163.751374 927.902761 
L 1165.274716 933.320016 
L 1169.84474 933.320016 
L 1171.368082 938.73727 
L 1175.938107 938.73727 
L 1177.461448 944.154525 
L 1182.031473 944.154525 
L 1183.554814 954.989034 
L 1188.124839 954.989034 
L 1189.64818 960.406289 
L 1194.218205 960.406289 
L 1195.741546 965.823543 
L 1200.311571 965.823543 
L 1201.834912 971.240798 
L 1206.404937 971.240798 
L 1207.928279 976.658052 
L 1212.498303 976.658052 
L 1214.021645 998.327071 
L 1217.068328 998.327071 
L 1218.591669 1003.744325 
L 1223.161694 1003.744325 
L 1224.685035 1009.16158 
L 1229.25506 1009.16158 
L 1230.778401 1014.578835 
L 1235.348426 1014.578835 
L 1236.871768 1025.413344 
L 1241.441792 1025.413344 
L 1242.965134 1030.830598 
L 1247.535158 1030.830598 
L 1249.0585 1036.247853 
L 1253.628524 1036.247853 
L 1255.151866 1041.665108 
L 1259.72189 1041.665108 
L 1261.245232 1047.082362 
L 1265.815256 1047.082362 
L 1267.338598 1052.499617 
L 1271.908623 1052.499617 
L 1273.431964 1057.916871 
L 1278.001989 1057.916871 
L 1279.52533 1068.751381 
L 1282.572013 1068.751381 
L 1284.095355 1074.168635 
L 1288.665379 1074.168635 
L 1290.188721 1079.58589 
L 1294.758745 1079.58589 
L 1296.282087 1085.003144 
L 1300.852111 1085.003144 
L 1302.375453 1090.420399 
L 1306.945478 1090.420399 
L 1308.468819 1057.916871 
L 1313.038844 1057.916871 
L 1314.562185 1063.334126 
L 1319.13221 1063.334126 
L 1320.655551 1068.751381 
L 1325.225576 1068.751381 
L 1326.748917 1074.168635 
L 1331.318942 1074.168635 
L 1332.842283 1085.003144 
L 1337.412308 1085.003144 
L 1338.93565 1090.420399 
L 1341.982333 1090.420399 
L 1343.505674 1095.837653 
L 1348.075699 1095.837653 
L 1349.59904 1101.254908 
L 1354.169065 1101.254908 
L 1355.692406 1106.672163 
L 1360.262431 1106.672163 
L 1361.785772 1112.089417 
L 1366.355797 1112.089417 
L 1367.879139 1117.506672 
L 1372.449163 1117.506672 
L 1373.972505 1128.341181 
L 1378.542529 1128.341181 
L 1380.065871 1133.758436 
L 1384.635895 1133.758436 
L 1386.159237 1139.17569 
L 1390.729261 1139.17569 
L 1392.252603 1144.592945 
L 1396.822627 1144.592945 
L 1398.345969 1150.010199 
L 1402.915994 1150.010199 
L 1404.439335 1209.6 
L 1407.486018 1209.6 
L 1409.00936 1193.348236 
L 1413.579384 1193.348236 
L 1415.102726 1182.513727 
L 1419.67275 1182.513727 
L 1421.196092 1166.261963 
L 1425.766116 1166.261963 
L 1427.289458 1150.010199 
L 1431.859482 1150.010199 
L 1433.382824 1139.17569 
L 1437.952849 1139.17569 
L 1439.47619 1122.923926 
L 1444.046215 1122.923926 
L 1445.569556 1106.672163 
L 1450.139581 1106.672163 
L 1451.662922 1095.837653 
L 1456.232947 1095.837653 
L 1457.756288 1079.58589 
L 1462.326313 1079.58589 
L 1463.849654 1068.751381 
L 1468.419679 1068.751381 
L 1469.943021 1052.499617 
L 1472.989704 1052.499617 
L 1474.513045 1036.247853 
L 1479.08307 1036.247853 
L 1480.606411 1025.413344 
L 1485.176436 1025.413344 
L 1486.699777 1009.16158 
L 1491.269802 1009.16158 
L 1492.793143 992.909816 
L 1497.363168 992.909816 
L 1498.88651 1101.254908 
L 1503.456534 1101.254908 
L 1504.979876 1085.003144 
L 1509.5499 1085.003144 
L 1511.073242 1074.168635 
L 1515.643266 1074.168635 
L 1517.166608 1057.916871 
L 1521.736632 1057.916871 
L 1523.259974 1041.665108 
L 1527.829998 1041.665108 
L 1529.35334 1030.830598 
L 1532.400023 1030.830598 
L 1533.923365 1014.578835 
L 1538.493389 1014.578835 
L 1540.016731 998.327071 
L 1544.586755 998.327071 
L 1546.110097 987.492562 
L 1550.680121 987.492562 
L 1552.203463 971.240798 
L 1556.773487 971.240798 
L 1558.296829 960.406289 
L 1562.866854 960.406289 
L 1564.390195 944.154525 
L 1568.96022 944.154525 
L 1570.483561 927.902761 
L 1575.053586 927.902761 
L 1576.576927 917.068252 
L 1581.146952 917.068252 
L 1582.670293 900.816488 
L 1587.240318 900.816488 
L 1588.763659 884.564724 
L 1597.903709 884.564724 
L 1599.42705 868.31296 
L 1603.997075 868.31296 
L 1605.520416 857.478451 
L 1610.090441 857.478451 
L 1611.613782 841.226687 
L 1616.183807 841.226687 
L 1617.707148 824.974924 
L 1622.277173 824.974924 
L 1623.800514 814.140414 
L 1628.370539 814.140414 
L 1629.893881 797.888651 
L 1634.463905 797.888651 
L 1635.987247 781.636887 
L 1640.557271 781.636887 
L 1642.080613 770.802378 
L 1646.650637 770.802378 
L 1648.173979 754.550614 
L 1652.744003 754.550614 
L 1654.267345 743.716105 
L 1658.837369 743.716105 
L 1660.360711 727.464341 
L 1663.407394 727.464341 
L 1664.930736 711.212577 
L 1669.50076 711.212577 
L 1671.024102 700.378068 
L 1675.594126 700.378068 
L 1677.117468 684.126304 
L 1681.687492 684.126304 
L 1683.210834 667.87454 
L 1687.780858 667.87454 
L 1689.3042 537.86043 
L 1693.874225 537.86043 
L 1695.397566 521.608666 
L 1699.967591 521.608666 
L 1701.490932 510.774157 
L 1706.060957 510.774157 
L 1707.584298 494.522393 
L 1712.154323 494.522393 
L 1713.677664 478.27063 
L 1718.247689 478.27063 
L 1719.77103 467.43612 
L 1722.817713 467.43612 
L 1724.341055 451.184357 
L 1728.91108 451.184357 
L 1730.434421 434.932593 
L 1735.004446 434.932593 
L 1736.527787 424.098084 
L 1741.097812 424.098084 
L 1742.621153 407.84632 
L 1747.191178 407.84632 
L 1748.714519 397.011811 
L 1753.284544 397.011811 
L 1754.807885 380.760047 
L 1759.37791 380.760047 
L 1760.901252 364.508283 
L 1765.471276 364.508283 
L 1766.994618 353.673774 
L 1771.564642 353.673774 
L 1773.087984 337.42201 
L 1777.658008 337.42201 
L 1779.18135 321.170246 
L 1785.274716 321.170246 
L 1785.274716 321.170246 
" clip-path="url(#p0440c0647a)" style="fill: none; stroke: #ff0000; stroke-width: 9; stroke-linecap: square"/>
   </g>
   <g id="patch_3">
    <path d="M 187.365625 1260 
L 187.365625 151.2 
" style="fill: none; stroke: #000000; stroke-width: 7; stroke-linejoin: miter; stroke-linecap: square"/>
   </g>
   <g id="patch_4">
    <path d="M 1861.365625 1260 
L 1861.365625 151.2 
" style="fill: none; stroke: #000000; stroke-width: 7; stroke-linejoin: miter; stroke-linecap: square"/>
   </g>
   <g id="patch_5">
    <path d="M 187.365625 1260 
L 1861.365625 1260 
" style="fill: none; stroke: #000000; stroke-width: 7; stroke-linejoin: miter; stroke-linecap: square"/>
   </g>
   <g id="patch_6">
    <path d="M 187.365625 151.2 
L 1861.365625 151.2 
" style="fill: none; stroke: #000000; stroke-width: 7; stroke-linejoin: miter; stroke-linecap: square"/>
   </g>
   <g id="text_17">
    <!-- Generated with ApexHDL -->
    <g style="fill: #808080; opacity: 0.6" transform="translate(1991.02375 326.095313) rotate(-270) scale(0.6 -0.6)">
     <defs>
      <path id="DejaVuSans-47" d="M 3809 666 
L 3809 1919 
L 2778 1919 
L 2778 2438 
L 4434 2438 
L 4434 434 
Q 4069 175 3628 42 
Q 3188 -91 2688 -91 
Q 1594 -91 976 548 
Q 359 1188 359 2328 
Q 359 3472 976 4111 
Q 1594 4750 2688 4750 
Q 3144 4750 3555 4637 
Q 3966 4525 4313 4306 
L 4313 3634 
Q 3963 3931 3569 4081 
Q 3175 4231 2741 4231 
Q 1884 4231 1454 3753 
Q 1025 3275 1025 2328 
Q 1025 1384 1454 906 
Q 1884 428 2741 428 
Q 3075 428 3337 486 
Q 3600 544 3809 666 
z
" transform="scale(0.015625)"/>
      <path id="DejaVuSans-65" d="M 3597 1894 
L 3597 1613 
L 953 1613 
Q 991 1019 1311 708 
Q 1631 397 2203 397 
Q 2534 397 2845 478 
Q 3156 559 3463 722 
L 3463 178 
Q 3153 47 2828 -22 
Q 2503 -91 2169 -91 
Q 1331 -91 842 396 
Q 353 884 353 1716 
Q 353 2575 817 3079 
Q 1281 3584 2069 3584 
Q 2775 3584 3186 3129 
Q 3597 2675 3597 1894 
z
M 3022 2063 
Q 3016 2534 2758 2815 
Q 2500 3097 2075 3097 
Q 1594 3097 1305 2825 
Q 1016 2553 972 2059 
L 3022 2063 
z
" transform="scale(0.015625)"/>
      <path id="DejaVuSans-72" d="M 2631 2963 
Q 2534 3019 2420 3045 
Q 2306 3072 2169 3072 
Q 1681 3072 1420 2755 
Q 1159 2438 1159 1844 
L 1159 0 
L 581 0 
L 581 3500 
L 1159 3500 
L 1159 2956 
Q 1341 3275 1631 3429 
Q 1922 3584 2338 3584 
Q 2397 3584 2469 3576 
Q 2541 3569 2628 3553 
L 2631 2963 
z
" transform="scale(0.015625)"/>
      <path id="DejaVuSans-61" d="M 2194 1759 
Q 1497 1759 1228 1600 
Q 959 1441 959 1056 
Q 959 750 1161 570 
Q 1363 391 1709 391 
Q 2188 391 2477 730 
Q 2766 1069 2766 1631 
L 2766 1759 
L 2194 1759 
z
M 3341 1997 
L 3341 0 
L 2766 0 
L 2766 531 
Q 2569 213 2275 61 
Q 1981 -91 1556 -91 
Q 1019 -91 701 211 
Q 384 513 384 1019 
Q 384 1609 779 1909 
Q 1175 2209 1959 2209 
L 2766 2209 
L 2766 2266 
Q 2766 2663 2505 2880 
Q 2244 3097 1772 3097 
Q 1472 3097 1187 3025 
Q 903 2953 641 2809 
L 641 3341 
Q 956 3463 1253 3523 
Q 1550 3584 1831 3584 
Q 2591 3584 2966 3190 
Q 3341 2797 3341 1997 
z
" transform="scale(0.015625)"/>
      <path id="DejaVuSans-64" d="M 2906 2969 
L 2906 4863 
L 3481 4863 
L 3481 0 
L 2906 0 
L 2906 525 
Q 2725 213 2448 61 
Q 2172 -91 1784 -91 
Q 1150 -91 751 415 
Q 353 922 353 1747 
Q 353 2572 751 3078 
Q 1150 3584 1784 3584 
Q 2172 3584 2448 3432 
Q 2725 3281 2906 2969 
z
M 947 1747 
Q 947 1113 1208 752 
Q 1469 391 1925 391 
Q 2381 391 2643 752 
Q 2906 1113 2906 1747 
Q 2906 2381 2643 2742 
Q 2381 3103 1925 3103 
Q 1469 3103 1208 2742 
Q 947 2381 947 1747 
z
" transform="scale(0.015625)"/>
      <path id="DejaVuSans-20" transform="scale(0.015625)"/>
      <path id="DejaVuSans-77" d="M 269 3500 
L 844 3500 
L 1563 769 
L 2278 3500 
L 2956 3500 
L 3675 769 
L 4391 3500 
L 4966 3500 
L 4050 0 
L 3372 0 
L 2619 2869 
L 1863 0 
L 1184 0 
L 269 3500 
z
" transform="scale(0.015625)"/>
      <path id="DejaVuSans-69" d="M 603 3500 
L 1178 3500 
L 1178 0 
L 603 0 
L 603 3500 
z
M 603 4863 
L 1178 4863 
L 1178 4134 
L 603 4134 
L 603 4863 
z
" transform="scale(0.015625)"/>
      <path id="DejaVuSans-68" d="M 3513 2113 
L 3513 0 
L 2938 0 
L 2938 2094 
Q 2938 2591 2744 2837 
Q 2550 3084 2163 3084 
Q 1697 3084 1428 2787 
Q 1159 2491 1159 1978 
L 1159 0 
L 581 0 
L 581 4863 
L 1159 4863 
L 1159 2956 
Q 1366 3272 1645 3428 
Q 1925 3584 2291 3584 
Q 2894 3584 3203 3211 
Q 3513 2838 3513 2113 
z
" transform="scale(0.015625)"/>
      <path id="DejaVuSans-41" d="M 2188 4044 
L 1331 1722 
L 3047 1722 
L 2188 4044 
z
M 1831 4666 
L 2547 4666 
L 4325 0 
L 3669 0 
L 3244 1197 
L 1141 1197 
L 716 0 
L 50 0 
L 1831 4666 
z
" transform="scale(0.015625)"/>
      <path id="DejaVuSans-78" d="M 3513 3500 
L 2247 1797 
L 3578 0 
L 2900 0 
L 1881 1375 
L 863 0 
L 184 0 
L 1544 1831 
L 300 3500 
L 978 3500 
L 1906 2253 
L 2834 3500 
L 3513 3500 
z
" transform="scale(0.015625)"/>
      <path id="DejaVuSans-48" d="M 628 4666 
L 1259 4666 
L 1259 2753 
L 3553 2753 
L 3553 4666 
L 4184 4666 
L 4184 0 
L 3553 0 
L 3553 2222 
L 1259 2222 
L 1259 0 
L 628 0 
L 628 4666 
z
" transform="scale(0.015625)"/>
      <path id="DejaVuSans-44" d="M 1259 4147 
L 1259 519 
L 2022 519 
Q 2988 519 3436 956 
Q 3884 1394 3884 2338 
Q 3884 3275 3436 3711 
Q 2988 4147 2022 4147 
L 1259 4147 
z
M 628 4666 
L 1925 4666 
Q 3281 4666 3915 4102 
Q 4550 3538 4550 2338 
Q 4550 1131 3912 565 
Q 3275 0 1925 0 
L 628 0 
L 628 4666 
z
" transform="scale(0.015625)"/>
      <path id="DejaVuSans-4c" d="M 628 4666 
L 1259 4666 
L 1259 531 
L 3531 531 
L 3531 0 
L 628 0 
L 628 4666 
z
" transform="scale(0.015625)"/>
     </defs>
     <use xlink:href="#DejaVuSans-47"/>
     <use xlink:href="#DejaVuSans-65" transform="translate(77.490234 0)"/>
     <use xlink:href="#DejaVuSans-6e" transform="translate(139.013672 0)"/>
     <use xlink:href="#DejaVuSans-65" transform="translate(202.392578 0)"/>
     <use xlink:href="#DejaVuSans-72" transform="translate(263.916016 0)"/>
     <use xlink:href="#DejaVuSans-61" transform="translate(305.029297 0)"/>
     <use xlink:href="#DejaVuSans-74" transform="translate(366.308594 0)"/>
     <use xlink:href="#DejaVuSans-65" transform="translate(405.517578 0)"/>
     <use xlink:href="#DejaVuSans-64" transform="translate(467.041016 0)"/>
     <use xlink:href="#DejaVuSans-20" transform="translate(530.517578 0)"/>
     <use xlink:href="#DejaVuSans-77" transform="translate(562.304688 0)"/>
     <use xlink:href="#DejaVuSans-69" transform="translate(644.091797 0)"/>
     <use xlink:href="#DejaVuSans-74" transform="translate(671.875 0)"/>
     <use xlink:href="#DejaVuSans-68" transform="translate(711.083984 0)"/>
     <use xlink:href="#DejaVuSans-20" transform="translate(774.462891 0)"/>
     <use xlink:href="#DejaVuSans-41" transform="translate(806.25 0)"/>
     <use xlink:href="#DejaVuSans-70" transform="translate(874.658203 0)"/>
     <use xlink:href="#DejaVuSans-65" transform="translate(938.134766 0)"/>
     <use xlink:href="#DejaVuSans-78" transform="translate(997.908203 0)"/>
     <use xlink:href="#DejaVuSans-48" transform="translate(1057.087891 0)"/>
     <use xlink:href="#DejaVuSans-44" transform="translate(1132.283203 0)"/>
     <use xlink:href="#DejaVuSans-4c" transform="translate(1209.285156 0)"/>
    </g>
   </g>
   <g id="text_18">
    <!-- during on-chip validation -->
    <g transform="translate(712.170312 131.2) scale(0.5 -0.5)">
     <defs>
      <path id="DejaVuSans-67" d="M 2906 1791 
Q 2906 2416 2648 2759 
Q 2391 3103 1925 3103 
Q 1463 3103 1205 2759 
Q 947 2416 947 1791 
Q 947 1169 1205 825 
Q 1463 481 1925 481 
Q 2391 481 2648 825 
Q 2906 1169 2906 1791 
z
M 3481 434 
Q 3481 -459 3084 -895 
Q 2688 -1331 1869 -1331 
Q 1566 -1331 1297 -1286 
Q 1028 -1241 775 -1147 
L 775 -588 
Q 1028 -725 1275 -790 
Q 1522 -856 1778 -856 
Q 2344 -856 2625 -561 
Q 2906 -266 2906 331 
L 2906 616 
Q 2728 306 2450 153 
Q 2172 0 1784 0 
Q 1141 0 747 490 
Q 353 981 353 1791 
Q 353 2603 747 3093 
Q 1141 3584 1784 3584 
Q 2172 3584 2450 3431 
Q 2728 3278 2906 2969 
L 2906 3500 
L 3481 3500 
L 3481 434 
z
" transform="scale(0.015625)"/>
      <path id="DejaVuSans-6f" d="M 1959 3097 
Q 1497 3097 1228 2736 
Q 959 2375 959 1747 
Q 959 1119 1226 758 
Q 1494 397 1959 397 
Q 2419 397 2687 759 
Q 2956 1122 2956 1747 
Q 2956 2369 2687 2733 
Q 2419 3097 1959 3097 
z
M 1959 3584 
Q 2709 3584 3137 3096 
Q 3566 2609 3566 1747 
Q 3566 888 3137 398 
Q 2709 -91 1959 -91 
Q 1206 -91 779 398 
Q 353 888 353 1747 
Q 353 2609 779 3096 
Q 1206 3584 1959 3584 
z
" transform="scale(0.015625)"/>
      <path id="DejaVuSans-2d" d="M 313 2009 
L 1997 2009 
L 1997 1497 
L 313 1497 
L 313 2009 
z
" transform="scale(0.015625)"/>
      <path id="DejaVuSans-63" d="M 3122 3366 
L 3122 2828 
Q 2878 2963 2633 3030 
Q 2388 3097 2138 3097 
Q 1578 3097 1268 2742 
Q 959 2388 959 1747 
Q 959 1106 1268 751 
Q 1578 397 2138 397 
Q 2388 397 2633 464 
Q 2878 531 3122 666 
L 3122 134 
Q 2881 22 2623 -34 
Q 2366 -91 2075 -91 
Q 1284 -91 818 406 
Q 353 903 353 1747 
Q 353 2603 823 3093 
Q 1294 3584 2113 3584 
Q 2378 3584 2631 3529 
Q 2884 3475 3122 3366 
z
" transform="scale(0.015625)"/>
      <path id="DejaVuSans-76" d="M 191 3500 
L 800 3500 
L 1894 563 
L 2988 3500 
L 3597 3500 
L 2284 0 
L 1503 0 
L 191 3500 
z
" transform="scale(0.015625)"/>
      <path id="DejaVuSans-6c" d="M 603 4863 
L 1178 4863 
L 1178 0 
L 603 0 
L 603 4863 
z
" transform="scale(0.015625)"/>
     </defs>
     <use xlink:href="#DejaVuSans-64"/>
     <use xlink:href="#DejaVuSans-75" transform="translate(63.476562 0)"/>
     <use xlink:href="#DejaVuSans-72" transform="translate(126.855469 0)"/>
     <use xlink:href="#DejaVuSans-69" transform="translate(167.96875 0)"/>
     <use xlink:href="#DejaVuSans-6e" transform="translate(195.751953 0)"/>
     <use xlink:href="#DejaVuSans-67" transform="translate(259.130859 0)"/>
     <use xlink:href="#DejaVuSans-20" transform="translate(322.607422 0)"/>
     <use xlink:href="#DejaVuSans-6f" transform="translate(354.394531 0)"/>
     <use xlink:href="#DejaVuSans-6e" transform="translate(415.576172 0)"/>
     <use xlink:href="#DejaVuSans-2d" transform="translate(478.955078 0)"/>
     <use xlink:href="#DejaVuSans-63" transform="translate(515.039062 0)"/>
     <use xlink:href="#DejaVuSans-68" transform="translate(570.019531 0)"/>
     <use xlink:href="#DejaVuSans-69" transform="translate(633.398438 0)"/>
     <use xlink:href="#DejaVuSans-70" transform="translate(661.181641 0)"/>
     <use xlink:href="#DejaVuSans-20" transform="translate(724.658203 0)"/>
     <use xlink:href="#DejaVuSans-76" transform="translate(756.445312 0)"/>
     <use xlink:href="#DejaVuSans-61" transform="translate(815.625 0)"/>
     <use xlink:href="#DejaVuSans-6c" transform="translate(876.904297 0)"/>
     <use xlink:href="#DejaVuSans-69" transform="translate(904.6875 0)"/>
     <use xlink:href="#DejaVuSans-64" transform="translate(932.470703 0)"/>
     <use xlink:href="#DejaVuSans-61" transform="translate(995.947266 0)"/>
     <use xlink:href="#DejaVuSans-74" transform="translate(1057.226562 0)"/>
     <use xlink:href="#DejaVuSans-69" transform="translate(1096.435547 0)"/>
     <use xlink:href="#DejaVuSans-6f" transform="translate(1124.21875 0)"/>
     <use xlink:href="#DejaVuSans-6e" transform="translate(1185.400391 0)"/>
    </g>
   </g>
   <g id="legend_1">
    <g id="line2d_31">
     <path d="M 380.926562 1449.470625 
L 440.926562 1449.470625 
L 500.926562 1449.470625 
" style="fill: none; stroke: #0000ff; stroke-width: 9; stroke-linecap: square"/>
    </g>
    <g id="text_19">
     <!-- Theoretical -->
     <g transform="translate(548.926562 1470.470625) scale(0.6 -0.6)">
      <defs>
       <path id="DejaVuSans-Bold-54" d="M 31 4666 
L 4331 4666 
L 4331 3756 
L 2784 3756 
L 2784 0 
L 1581 0 
L 1581 3756 
L 31 3756 
L 31 4666 
z
" transform="scale(0.015625)"/>
       <path id="DejaVuSans-Bold-68" d="M 4056 2131 
L 4056 0 
L 2931 0 
L 2931 347 
L 2931 1625 
Q 2931 2084 2911 2256 
Q 2891 2428 2841 2509 
Q 2775 2619 2662 2680 
Q 2550 2741 2406 2741 
Q 2056 2741 1856 2470 
Q 1656 2200 1656 1722 
L 1656 0 
L 538 0 
L 538 4863 
L 1656 4863 
L 1656 2988 
Q 1909 3294 2193 3439 
Q 2478 3584 2822 3584 
Q 3428 3584 3742 3212 
Q 4056 2841 4056 2131 
z
" transform="scale(0.015625)"/>
       <path id="DejaVuSans-Bold-65" d="M 4031 1759 
L 4031 1441 
L 1416 1441 
Q 1456 1047 1700 850 
Q 1944 653 2381 653 
Q 2734 653 3104 758 
Q 3475 863 3866 1075 
L 3866 213 
Q 3469 63 3072 -14 
Q 2675 -91 2278 -91 
Q 1328 -91 801 392 
Q 275 875 275 1747 
Q 275 2603 792 3093 
Q 1309 3584 2216 3584 
Q 3041 3584 3536 3087 
Q 4031 2591 4031 1759 
z
M 2881 2131 
Q 2881 2450 2695 2645 
Q 2509 2841 2209 2841 
Q 1884 2841 1681 2658 
Q 1478 2475 1428 2131 
L 2881 2131 
z
" transform="scale(0.015625)"/>
       <path id="DejaVuSans-Bold-6f" d="M 2203 2784 
Q 1831 2784 1636 2517 
Q 1441 2250 1441 1747 
Q 1441 1244 1636 976 
Q 1831 709 2203 709 
Q 2569 709 2762 976 
Q 2956 1244 2956 1747 
Q 2956 2250 2762 2517 
Q 2569 2784 2203 2784 
z
M 2203 3584 
Q 3106 3584 3614 3096 
Q 4122 2609 4122 1747 
Q 4122 884 3614 396 
Q 3106 -91 2203 -91 
Q 1297 -91 786 396 
Q 275 884 275 1747 
Q 275 2609 786 3096 
Q 1297 3584 2203 3584 
z
" transform="scale(0.015625)"/>
       <path id="DejaVuSans-Bold-72" d="M 3138 2547 
Q 2991 2616 2845 2648 
Q 2700 2681 2553 2681 
Q 2122 2681 1889 2404 
Q 1656 2128 1656 1613 
L 1656 0 
L 538 0 
L 538 3500 
L 1656 3500 
L 1656 2925 
Q 1872 3269 2151 3426 
Q 2431 3584 2822 3584 
Q 2878 3584 2943 3579 
Q 3009 3575 3134 3559 
L 3138 2547 
z
" transform="scale(0.015625)"/>
       <path id="DejaVuSans-Bold-74" d="M 1759 4494 
L 1759 3500 
L 2913 3500 
L 2913 2700 
L 1759 2700 
L 1759 1216 
Q 1759 972 1856 886 
Q 1953 800 2241 800 
L 2816 800 
L 2816 0 
L 1856 0 
Q 1194 0 917 276 
Q 641 553 641 1216 
L 641 2700 
L 84 2700 
L 84 3500 
L 641 3500 
L 641 4494 
L 1759 4494 
z
" transform="scale(0.015625)"/>
       <path id="DejaVuSans-Bold-69" d="M 538 3500 
L 1656 3500 
L 1656 0 
L 538 0 
L 538 3500 
z
M 538 4863 
L 1656 4863 
L 1656 3950 
L 538 3950 
L 538 4863 
z
" transform="scale(0.015625)"/>
       <path id="DejaVuSans-Bold-63" d="M 3366 3391 
L 3366 2478 
Q 3138 2634 2908 2709 
Q 2678 2784 2431 2784 
Q 1963 2784 1702 2511 
Q 1441 2238 1441 1747 
Q 1441 1256 1702 982 
Q 1963 709 2431 709 
Q 2694 709 2930 787 
Q 3166 866 3366 1019 
L 3366 103 
Q 3103 6 2833 -42 
Q 2563 -91 2291 -91 
Q 1344 -91 809 395 
Q 275 881 275 1747 
Q 275 2613 809 3098 
Q 1344 3584 2291 3584 
Q 2566 3584 2833 3536 
Q 3100 3488 3366 3391 
z
" transform="scale(0.015625)"/>
       <path id="DejaVuSans-Bold-61" d="M 2106 1575 
Q 1756 1575 1579 1456 
Q 1403 1338 1403 1106 
Q 1403 894 1545 773 
Q 1688 653 1941 653 
Q 2256 653 2472 879 
Q 2688 1106 2688 1447 
L 2688 1575 
L 2106 1575 
z
M 3816 1997 
L 3816 0 
L 2688 0 
L 2688 519 
Q 2463 200 2181 54 
Q 1900 -91 1497 -91 
Q 953 -91 614 226 
Q 275 544 275 1050 
Q 275 1666 698 1953 
Q 1122 2241 2028 2241 
L 2688 2241 
L 2688 2328 
Q 2688 2594 2478 2717 
Q 2269 2841 1825 2841 
Q 1466 2841 1156 2769 
Q 847 2697 581 2553 
L 581 3406 
Q 941 3494 1303 3539 
Q 1666 3584 2028 3584 
Q 2975 3584 3395 3211 
Q 3816 2838 3816 1997 
z
" transform="scale(0.015625)"/>
       <path id="DejaVuSans-Bold-6c" d="M 538 4863 
L 1656 4863 
L 1656 0 
L 538 0 
L 538 4863 
z
" transform="scale(0.015625)"/>
      </defs>
      <use xlink:href="#DejaVuSans-Bold-54"/>
      <use xlink:href="#DejaVuSans-Bold-68" transform="translate(68.212891 0)"/>
      <use xlink:href="#DejaVuSans-Bold-65" transform="translate(139.404297 0)"/>
      <use xlink:href="#DejaVuSans-Bold-6f" transform="translate(207.226562 0)"/>
      <use xlink:href="#DejaVuSans-Bold-72" transform="translate(275.927734 0)"/>
      <use xlink:href="#DejaVuSans-Bold-65" transform="translate(325.244141 0)"/>
      <use xlink:href="#DejaVuSans-Bold-74" transform="translate(393.066406 0)"/>
      <use xlink:href="#DejaVuSans-Bold-69" transform="translate(440.869141 0)"/>
      <use xlink:href="#DejaVuSans-Bold-63" transform="translate(475.146484 0)"/>
      <use xlink:href="#DejaVuSans-Bold-61" transform="translate(534.423828 0)"/>
      <use xlink:href="#DejaVuSans-Bold-6c" transform="translate(601.904297 0)"/>
     </g>
    </g>
    <g id="line2d_32">
     <path d="M 1050.648438 1449.470625 
L 1110.648438 1449.470625 
L 1170.648438 1449.470625 
" style="fill: none; stroke: #ff0000; stroke-width: 9; stroke-linecap: square"/>
    </g>
    <g id="text_20">
     <!-- Experimental -->
     <g transform="translate(1218.648438 1470.470625) scale(0.6 -0.6)">
      <defs>
       <path id="DejaVuSans-Bold-45" d="M 588 4666 
L 3834 4666 
L 3834 3756 
L 1791 3756 
L 1791 2888 
L 3713 2888 
L 3713 1978 
L 1791 1978 
L 1791 909 
L 3903 909 
L 3903 0 
L 588 0 
L 588 4666 
z
" transform="scale(0.015625)"/>
       <path id="DejaVuSans-Bold-78" d="M 1422 1791 
L 159 3500 
L 1344 3500 
L 2059 2463 
L 2784 3500 
L 3969 3500 
L 2706 1797 
L 4031 0 
L 2847 0 
L 2059 1106 
L 1281 0 
L 97 0 
L 1422 1791 
z
" transform="scale(0.015625)"/>
       <path id="DejaVuSans-Bold-70" d="M 1656 506 
L 1656 -1331 
L 538 -1331 
L 538 3500 
L 1656 3500 
L 1656 2988 
Q 1888 3294 2169 3439 
Q 2450 3584 2816 3584 
Q 3463 3584 3878 3070 
Q 4294 2556 4294 1747 
Q 4294 938 3878 423 
Q 3463 -91 2816 -91 
Q 2450 -91 2169 54 
Q 1888 200 1656 506 
z
M 2400 2772 
Q 2041 2772 1848 2508 
Q 1656 2244 1656 1747 
Q 1656 1250 1848 986 
Q 2041 722 2400 722 
Q 2759 722 2948 984 
Q 3138 1247 3138 1747 
Q 3138 2247 2948 2509 
Q 2759 2772 2400 2772 
z
" transform="scale(0.015625)"/>
       <path id="DejaVuSans-Bold-6d" d="M 3781 2919 
Q 3994 3244 4286 3414 
Q 4578 3584 4928 3584 
Q 5531 3584 5847 3212 
Q 6163 2841 6163 2131 
L 6163 0 
L 5038 0 
L 5038 1825 
Q 5041 1866 5042 1909 
Q 5044 1953 5044 2034 
Q 5044 2406 4934 2573 
Q 4825 2741 4581 2741 
Q 4263 2741 4089 2478 
Q 3916 2216 3909 1719 
L 3909 0 
L 2784 0 
L 2784 1825 
Q 2784 2406 2684 2573 
Q 2584 2741 2328 2741 
Q 2006 2741 1831 2477 
Q 1656 2213 1656 1722 
L 1656 0 
L 531 0 
L 531 3500 
L 1656 3500 
L 1656 2988 
Q 1863 3284 2130 3434 
Q 2397 3584 2719 3584 
Q 3081 3584 3359 3409 
Q 3638 3234 3781 2919 
z
" transform="scale(0.015625)"/>
       <path id="DejaVuSans-Bold-6e" d="M 4056 2131 
L 4056 0 
L 2931 0 
L 2931 347 
L 2931 1631 
Q 2931 2084 2911 2256 
Q 2891 2428 2841 2509 
Q 2775 2619 2662 2680 
Q 2550 2741 2406 2741 
Q 2056 2741 1856 2470 
Q 1656 2200 1656 1722 
L 1656 0 
L 538 0 
L 538 3500 
L 1656 3500 
L 1656 2988 
Q 1909 3294 2193 3439 
Q 2478 3584 2822 3584 
Q 3428 3584 3742 3212 
Q 4056 2841 4056 2131 
z
" transform="scale(0.015625)"/>
      </defs>
      <use xlink:href="#DejaVuSans-Bold-45"/>
      <use xlink:href="#DejaVuSans-Bold-78" transform="translate(68.310547 0)"/>
      <use xlink:href="#DejaVuSans-Bold-70" transform="translate(132.8125 0)"/>
      <use xlink:href="#DejaVuSans-Bold-65" transform="translate(204.394531 0)"/>
      <use xlink:href="#DejaVuSans-Bold-72" transform="translate(272.216797 0)"/>
      <use xlink:href="#DejaVuSans-Bold-69" transform="translate(321.533203 0)"/>
      <use xlink:href="#DejaVuSans-Bold-6d" transform="translate(355.810547 0)"/>
      <use xlink:href="#DejaVuSans-Bold-65" transform="translate(460.009766 0)"/>
      <use xlink:href="#DejaVuSans-Bold-6e" transform="translate(527.832031 0)"/>
      <use xlink:href="#DejaVuSans-Bold-74" transform="translate(599.023438 0)"/>
      <use xlink:href="#DejaVuSans-Bold-61" transform="translate(646.826172 0)"/>
      <use xlink:href="#DejaVuSans-Bold-6c" transform="translate(714.306641 0)"/>
     </g>
    </g>
   </g>
  </g>
  <g id="text_21">
   <!-- Theoretical vs. experimental -->
   <g transform="translate(350.715625 67.9875) scale(0.8 -0.8)">
    <defs>
     <path id="DejaVuSans-Bold-20" transform="scale(0.015625)"/>
     <path id="DejaVuSans-Bold-76" d="M 97 3500 
L 1216 3500 
L 2088 1081 
L 2956 3500 
L 4078 3500 
L 2700 0 
L 1472 0 
L 97 3500 
z
" transform="scale(0.015625)"/>
     <path id="DejaVuSans-Bold-73" d="M 3272 3391 
L 3272 2541 
Q 2913 2691 2578 2766 
Q 2244 2841 1947 2841 
Q 1628 2841 1473 2761 
Q 1319 2681 1319 2516 
Q 1319 2381 1436 2309 
Q 1553 2238 1856 2203 
L 2053 2175 
Q 2913 2066 3209 1816 
Q 3506 1566 3506 1031 
Q 3506 472 3093 190 
Q 2681 -91 1863 -91 
Q 1516 -91 1145 -36 
Q 775 19 384 128 
L 384 978 
Q 719 816 1070 734 
Q 1422 653 1784 653 
Q 2113 653 2278 743 
Q 2444 834 2444 1013 
Q 2444 1163 2330 1236 
Q 2216 1309 1875 1350 
L 1678 1375 
Q 931 1469 631 1722 
Q 331 1975 331 2491 
Q 331 3047 712 3315 
Q 1094 3584 1881 3584 
Q 2191 3584 2531 3537 
Q 2872 3491 3272 3391 
z
" transform="scale(0.015625)"/>
     <path id="DejaVuSans-Bold-2e" d="M 653 1209 
L 1778 1209 
L 1778 0 
L 653 0 
L 653 1209 
z
" transform="scale(0.015625)"/>
    </defs>
    <use xlink:href="#DejaVuSans-Bold-54"/>
    <use xlink:href="#DejaVuSans-Bold-68" transform="translate(68.212891 0)"/>
    <use xlink:href="#DejaVuSans-Bold-65" transform="translate(139.404297 0)"/>
    <use xlink:href="#DejaVuSans-Bold-6f" transform="translate(207.226562 0)"/>
    <use xlink:href="#DejaVuSans-Bold-72" transform="translate(275.927734 0)"/>
    <use xlink:href="#DejaVuSans-Bold-65" transform="translate(325.244141 0)"/>
    <use xlink:href="#DejaVuSans-Bold-74" transform="translate(393.066406 0)"/>
    <use xlink:href="#DejaVuSans-Bold-69" transform="translate(440.869141 0)"/>
    <use xlink:href="#DejaVuSans-Bold-63" transform="translate(475.146484 0)"/>
    <use xlink:href="#DejaVuSans-Bold-61" transform="translate(534.423828 0)"/>
    <use xlink:href="#DejaVuSans-Bold-6c" transform="translate(601.904297 0)"/>
    <use xlink:href="#DejaVuSans-Bold-20" transform="translate(636.181641 0)"/>
    <use xlink:href="#DejaVuSans-Bold-76" transform="translate(670.996094 0)"/>
    <use xlink:href="#DejaVuSans-Bold-73" transform="translate(736.181641 0)"/>
    <use xlink:href="#DejaVuSans-Bold-2e" transform="translate(795.703125 0)"/>
    <use xlink:href="#DejaVuSans-Bold-20" transform="translate(833.691406 0)"/>
    <use xlink:href="#DejaVuSans-Bold-65" transform="translate(868.505859 0)"/>
    <use xlink:href="#DejaVuSans-Bold-78" transform="translate(936.328125 0)"/>
    <use xlink:href="#DejaVuSans-Bold-70" transform="translate(1000.830078 0)"/>
    <use xlink:href="#DejaVuSans-Bold-65" transform="translate(1072.412109 0)"/>
    <use xlink:href="#DejaVuSans-Bold-72" transform="translate(1140.234375 0)"/>
    <use xlink:href="#DejaVuSans-Bold-69" transform="translate(1189.550781 0)"/>
    <use xlink:href="#DejaVuSans-Bold-6d" transform="translate(1223.828125 0)"/>
    <use xlink:href="#DejaVuSans-Bold-65" transform="translate(1328.027344 0)"/>
    <use xlink:href="#DejaVuSans-Bold-6e" transform="translate(1395.849609 0)"/>
    <use xlink:href="#DejaVuSans-Bold-74" transform="translate(1467.041016 0)"/>
    <use xlink:href="#DejaVuSans-Bold-61" transform="translate(1514.84375 0)"/>
    <use xlink:href="#DejaVuSans-Bold-6c" transform="translate(1582.324219 0)"/>
   </g>
  </g>
 </g>
 <defs>
  <clipPath id="p0440c0647a">
   <rect x="187.365625" y="151.2" width="1674" height="1108.8"/>
  </clipPath>
 </defs>
</svg>
