<?xml version="1.0" encoding="utf-8" standalone="no"?>
<!DOCTYPE svg PUBLIC "-//W3C//DTD SVG 1.1//EN"
  "http://www.w3.org/Graphics/SVG/1.1/DTD/svg11.dtd">
<svg xmlns:xlink="http://www.w3.org/1999/xlink" width="2081.989375pt" height="1514.14875pt" viewBox="0 0 2081.989375 1514.14875" xmlns="http://www.w3.org/2000/svg" version="1.1">
 <metadata>
  <rdf:RDF xmlns:dc="http://purl.org/dc/elements/1.1/" xmlns:cc="http://creativecommons.org/ns#" xmlns:rdf="http://www.w3.org/1999/02/22-rdf-syntax-ns#">
   <cc:Work>
    <dc:type rdf:resource="http://purl.org/dc/dcmitype/StillImage"/>
    <dc:date>2026-06-15T14:10:04.623122</dc:date>
    <dc:format>image/svg+xml</dc:format>
    <dc:creator>
     <cc:Agent>
      <dc:title>Matplotlib v3.10.8, https://matplotlib.org/</dc:title>
     </cc:Agent>
    </dc:creator>
   </cc:Work>
  </rdf:RDF>
 </metadata>
 <defs>
  <style type="text/css">*{stroke-linejoin: round; stroke-linecap: butt}</style>
 </defs>
 <g id="figure_1">
  <g id="patch_1">
   <path d="M 0 1514.14875 
L 2081.989375 1514.14875 
L 2081.989375 0 
L 0 0 
z
" style="fill: #ffffff"/>
  </g>
  <g id="axes_1">
   <g id="patch_2">
    <path d="M 225.540625 1260 
L 1899.540625 1260 
L 1899.540625 151.2 
L 225.540625 151.2 
z
" style="fill: #ffffff"/>
   </g>
   <g id="matplotlib.axis_1">
    <g id="xtick_1">
     <g id="line2d_1">
      <path d="M 301.631534 1260 
L 301.631534 151.2 
" clip-path="url(#p00a94eac3c)" style="fill: none; stroke: #808080; stroke-opacity: 0.5; stroke-width: 4; stroke-linecap: square"/>
     </g>
     <g id="line2d_2">
      <defs>
       <path id="m6d65a4d6de" d="M 0 0 
L 0 3.5 
" style="stroke: #000000; stroke-width: 7"/>
      </defs>
      <g>
       <use xlink:href="#m6d65a4d6de" x="301.631534" y="1260" style="stroke: #000000; stroke-width: 7"/>
      </g>
     </g>
     <g id="text_1">
      <!-- 0.0 -->
      <g transform="translate(253.922159 1312.590625) scale(0.6 -0.6)">
       <defs>
        <path id="DejaVuSans-30" d="M 2034 4250 
Q 1547 4250 1301 3770 
Q 1056 3291 1056 2328 
Q 1056 1369 1301 889 
Q 1547 409 2034 409 
Q 2525 409 2770 889 
Q 3016 1369 3016 2328 
Q 3016 3291 2770 3770 
Q 2525 4250 2034 4250 
z
M 2034 4750 
Q 2819 4750 3233 4129 
Q 3647 3509 3647 2328 
Q 3647 1150 3233 529 
Q 2819 -91 2034 -91 
Q 1250 -91 836 529 
Q 422 1150 422 2328 
Q 422 3509 836 4129 
Q 1250 4750 2034 4750 
z
" transform="scale(0.015625)"/>
        <path id="DejaVuSans-2e" d="M 684 794 
L 1344 794 
L 1344 0 
L 684 0 
L 684 794 
z
" transform="scale(0.015625)"/>
       </defs>
       <use xlink:href="#DejaVuSans-30"/>
       <use xlink:href="#DejaVuSans-2e" transform="translate(63.623047 0)"/>
       <use xlink:href="#DejaVuSans-30" transform="translate(95.410156 0)"/>
      </g>
     </g>
    </g>
    <g id="xtick_2">
     <g id="line2d_3">
      <path d="M 606.299839 1260 
L 606.299839 151.2 
" clip-path="url(#p00a94eac3c)" style="fill: none; stroke: #808080; stroke-opacity: 0.5; stroke-width: 4; stroke-linecap: square"/>
     </g>
     <g id="line2d_4">
      <g>
       <use xlink:href="#m6d65a4d6de" x="606.299839" y="1260" style="stroke: #000000; stroke-width: 7"/>
      </g>
     </g>
     <g id="text_2">
      <!-- 0.2 -->
      <g transform="translate(558.590464 1312.590625) scale(0.6 -0.6)">
       <defs>
        <path id="DejaVuSans-32" d="M 1228 531 
L 3431 531 
L 3431 0 
L 469 0 
L 469 531 
Q 828 903 1448 1529 
Q 2069 2156 2228 2338 
Q 2531 2678 2651 2914 
Q 2772 3150 2772 3378 
Q 2772 3750 2511 3984 
Q 2250 4219 1831 4219 
Q 1534 4219 1204 4116 
Q 875 4013 500 3803 
L 500 4441 
Q 881 4594 1212 4672 
Q 1544 4750 1819 4750 
Q 2544 4750 2975 4387 
Q 3406 4025 3406 3419 
Q 3406 3131 3298 2873 
Q 3191 2616 2906 2266 
Q 2828 2175 2409 1742 
Q 1991 1309 1228 531 
z
" transform="scale(0.015625)"/>
       </defs>
       <use xlink:href="#DejaVuSans-30"/>
       <use xlink:href="#DejaVuSans-2e" transform="translate(63.623047 0)"/>
       <use xlink:href="#DejaVuSans-32" transform="translate(95.410156 0)"/>
      </g>
     </g>
    </g>
    <g id="xtick_3">
     <g id="line2d_5">
      <path d="M 910.968143 1260 
L 910.968143 151.2 
" clip-path="url(#p00a94eac3c)" style="fill: none; stroke: #808080; stroke-opacity: 0.5; stroke-width: 4; stroke-linecap: square"/>
     </g>
     <g id="line2d_6">
      <g>
       <use xlink:href="#m6d65a4d6de" x="910.968143" y="1260" style="stroke: #000000; stroke-width: 7"/>
      </g>
     </g>
     <g id="text_3">
      <!-- 0.4 -->
      <g transform="translate(863.258768 1312.590625) scale(0.6 -0.6)">
       <defs>
        <path id="DejaVuSans-34" d="M 2419 4116 
L 825 1625 
L 2419 1625 
L 2419 4116 
z
M 2253 4666 
L 3047 4666 
L 3047 1625 
L 3713 1625 
L 3713 1100 
L 3047 1100 
L 3047 0 
L 2419 0 
L 2419 1100 
L 313 1100 
L 313 1709 
L 2253 4666 
z
" transform="scale(0.015625)"/>
       </defs>
       <use xlink:href="#DejaVuSans-30"/>
       <use xlink:href="#DejaVuSans-2e" transform="translate(63.623047 0)"/>
       <use xlink:href="#DejaVuSans-34" transform="translate(95.410156 0)"/>
      </g>
     </g>
    </g>
    <g id="xtick_4">
     <g id="line2d_7">
      <path d="M 1215.636448 1260 
L 1215.636448 151.2 
" clip-path="url(#p00a94eac3c)" style="fill: none; stroke: #808080; stroke-opacity: 0.5; stroke-width: 4; stroke-linecap: square"/>
     </g>
     <g id="line2d_8">
      <g>
       <use xlink:href="#m6d65a4d6de" x="1215.636448" y="1260" style="stroke: #000000; stroke-width: 7"/>
      </g>
     </g>
     <g id="text_4">
      <!-- 0.6 -->
      <g transform="translate(1167.927073 1312.590625) scale(0.6 -0.6)">
       <defs>
        <path id="DejaVuSans-36" d="M 2113 2584 
Q 1688 2584 1439 2293 
Q 1191 2003 1191 1497 
Q 1191 994 1439 701 
Q 1688 409 2113 409 
Q 2538 409 2786 701 
Q 3034 994 3034 1497 
Q 3034 2003 2786 2293 
Q 2538 2584 2113 2584 
z
M 3366 4563 
L 3366 3988 
Q 3128 4100 2886 4159 
Q 2644 4219 2406 4219 
Q 1781 4219 1451 3797 
Q 1122 3375 1075 2522 
Q 1259 2794 1537 2939 
Q 1816 3084 2150 3084 
Q 2853 3084 3261 2657 
Q 3669 2231 3669 1497 
Q 3669 778 3244 343 
Q 2819 -91 2113 -91 
Q 1303 -91 875 529 
Q 447 1150 447 2328 
Q 447 3434 972 4092 
Q 1497 4750 2381 4750 
Q 2619 4750 2861 4703 
Q 3103 4656 3366 4563 
z
" transform="scale(0.015625)"/>
       </defs>
       <use xlink:href="#DejaVuSans-30"/>
       <use xlink:href="#DejaVuSans-2e" transform="translate(63.623047 0)"/>
       <use xlink:href="#DejaVuSans-36" transform="translate(95.410156 0)"/>
      </g>
     </g>
    </g>
    <g id="xtick_5">
     <g id="line2d_9">
      <path d="M 1520.304753 1260 
L 1520.304753 151.2 
" clip-path="url(#p00a94eac3c)" style="fill: none; stroke: #808080; stroke-opacity: 0.5; stroke-width: 4; stroke-linecap: square"/>
     </g>
     <g id="line2d_10">
      <g>
       <use xlink:href="#m6d65a4d6de" x="1520.304753" y="1260" style="stroke: #000000; stroke-width: 7"/>
      </g>
     </g>
     <g id="text_5">
      <!-- 0.8 -->
      <g transform="translate(1472.595378 1312.590625) scale(0.6 -0.6)">
       <defs>
        <path id="DejaVuSans-38" d="M 2034 2216 
Q 1584 2216 1326 1975 
Q 1069 1734 1069 1313 
Q 1069 891 1326 650 
Q 1584 409 2034 409 
Q 2484 409 2743 651 
Q 3003 894 3003 1313 
Q 3003 1734 2745 1975 
Q 2488 2216 2034 2216 
z
M 1403 2484 
Q 997 2584 770 2862 
Q 544 3141 544 3541 
Q 544 4100 942 4425 
Q 1341 4750 2034 4750 
Q 2731 4750 3128 4425 
Q 3525 4100 3525 3541 
Q 3525 3141 3298 2862 
Q 3072 2584 2669 2484 
Q 3125 2378 3379 2068 
Q 3634 1759 3634 1313 
Q 3634 634 3220 271 
Q 2806 -91 2034 -91 
Q 1263 -91 848 271 
Q 434 634 434 1313 
Q 434 1759 690 2068 
Q 947 2378 1403 2484 
z
M 1172 3481 
Q 1172 3119 1398 2916 
Q 1625 2713 2034 2713 
Q 2441 2713 2670 2916 
Q 2900 3119 2900 3481 
Q 2900 3844 2670 4047 
Q 2441 4250 2034 4250 
Q 1625 4250 1398 4047 
Q 1172 3844 1172 3481 
z
" transform="scale(0.015625)"/>
       </defs>
       <use xlink:href="#DejaVuSans-30"/>
       <use xlink:href="#DejaVuSans-2e" transform="translate(63.623047 0)"/>
       <use xlink:href="#DejaVuSans-38" transform="translate(95.410156 0)"/>
      </g>
     </g>
    </g>
    <g id="xtick_6">
     <g id="line2d_11">
      <path d="M 1824.973057 1260 
L 1824.973057 151.2 
" clip-path="url(#p00a94eac3c)" style="fill: none; stroke: #808080; stroke-opacity: 0.5; stroke-width: 4; stroke-linecap: square"/>
     </g>
     <g id="line2d_12">
      <g>
       <use xlink:href="#m6d65a4d6de" x="1824.973057" y="1260" style="stroke: #000000; stroke-width: 7"/>
      </g>
     </g>
     <g id="text_6">
      <!-- 1.0 -->
      <g transform="translate(1777.263682 1312.590625) scale(0.6 -0.6)">
       <defs>
        <path id="DejaVuSans-31" d="M 794 531 
L 1825 531 
L 1825 4091 
L 703 3866 
L 703 4441 
L 1819 4666 
L 2450 4666 
L 2450 531 
L 3481 531 
L 3481 0 
L 794 0 
L 794 531 
z
" transform="scale(0.015625)"/>
       </defs>
       <use xlink:href="#DejaVuSans-31"/>
       <use xlink:href="#DejaVuSans-2e" transform="translate(63.623047 0)"/>
       <use xlink:href="#DejaVuSans-30" transform="translate(95.410156 0)"/>
      </g>
     </g>
    </g>
    <g id="text_7">
     <!-- Input -->
     <g transform="translate(971.9125 1382.257812) scale(0.7 -0.7)">
      <defs>
       <path id="DejaVuSans-49" d="M 628 4666 
L 1259 4666 
L 1259 0 
L 628 0 
L 628 4666 
z
" transform="scale(0.015625)"/>
       <path id="DejaVuSans-6e" d="M 3513 2113 
L 3513 0 
L 2938 0 
L 2938 2094 
Q 2938 2591 2744 2837 
Q 2550 3084 2163 3084 
Q 1697 3084 1428 2787 
Q 1159 2491 1159 1978 
L 1159 0 
L 581 0 
L 581 3500 
L 1159 3500 
L 1159 2956 
Q 1366 3272 1645 3428 
Q 1925 3584 2291 3584 
Q 2894 3584 3203 3211 
Q 3513 2838 3513 2113 
z
" transform="scale(0.015625)"/>
       <path id="DejaVuSans-70" d="M 1159 525 
L 1159 -1331 
L 581 -1331 
L 581 3500 
L 1159 3500 
L 1159 2969 
Q 1341 3281 1617 3432 
Q 1894 3584 2278 3584 
Q 2916 3584 3314 3078 
Q 3713 2572 3713 1747 
Q 3713 922 3314 415 
Q 2916 -91 2278 -91 
Q 1894 -91 1617 61 
Q 1341 213 1159 525 
z
M 3116 1747 
Q 3116 2381 2855 2742 
Q 2594 3103 2138 3103 
Q 1681 3103 1420 2742 
Q 1159 2381 1159 1747 
Q 1159 1113 1420 752 
Q 1681 391 2138 391 
Q 2594 391 2855 752 
Q 3116 1113 3116 1747 
z
" transform="scale(0.015625)"/>
       <path id="DejaVuSans-75" d="M 544 1381 
L 544 3500 
L 1119 3500 
L 1119 1403 
Q 1119 906 1312 657 
Q 1506 409 1894 409 
Q 2359 409 2629 706 
Q 2900 1003 2900 1516 
L 2900 3500 
L 3475 3500 
L 3475 0 
L 2900 0 
L 2900 538 
Q 2691 219 2414 64 
Q 2138 -91 1772 -91 
Q 1169 -91 856 284 
Q 544 659 544 1381 
z
M 1991 3584 
L 1991 3584 
z
" transform="scale(0.015625)"/>
       <path id="DejaVuSans-74" d="M 1172 4494 
L 1172 3500 
L 2356 3500 
L 2356 3053 
L 1172 3053 
L 1172 1153 
Q 1172 725 1289 603 
Q 1406 481 1766 481 
L 2356 481 
L 2356 0 
L 1766 0 
Q 1100 0 847 248 
Q 594 497 594 1153 
L 594 3053 
L 172 3053 
L 172 3500 
L 594 3500 
L 594 4494 
L 1172 4494 
z
" transform="scale(0.015625)"/>
      </defs>
      <use xlink:href="#DejaVuSans-49"/>
      <use xlink:href="#DejaVuSans-6e" transform="translate(29.492188 0)"/>
      <use xlink:href="#DejaVuSans-70" transform="translate(92.871094 0)"/>
      <use xlink:href="#DejaVuSans-75" transform="translate(156.347656 0)"/>
      <use xlink:href="#DejaVuSans-74" transform="translate(219.726562 0)"/>
     </g>
    </g>
   </g>
   <g id="matplotlib.axis_2">
    <g id="ytick_1">
     <g id="line2d_13">
      <path d="M 225.540625 1209.722135 
L 1899.540625 1209.722135 
" clip-path="url(#p00a94eac3c)" style="fill: none; stroke: #808080; stroke-opacity: 0.5; stroke-width: 4; stroke-linecap: square"/>
     </g>
     <g id="line2d_14">
      <defs>
       <path id="m95585be634" d="M 0 0 
L -3.5 0 
" style="stroke: #000000; stroke-width: 7"/>
      </defs>
      <g>
       <use xlink:href="#m95585be634" x="225.540625" y="1209.722135" style="stroke: #000000; stroke-width: 7"/>
      </g>
     </g>
     <g id="text_8">
      <!-- 0.00 -->
      <g transform="translate(84.946875 1232.517447) scale(0.6 -0.6)">
       <use xlink:href="#DejaVuSans-30"/>
       <use xlink:href="#DejaVuSans-2e" transform="translate(63.623047 0)"/>
       <use xlink:href="#DejaVuSans-30" transform="translate(95.410156 0)"/>
       <use xlink:href="#DejaVuSans-30" transform="translate(159.033203 0)"/>
      </g>
     </g>
    </g>
    <g id="ytick_2">
     <g id="line2d_15">
      <path d="M 225.540625 975.871133 
L 1899.540625 975.871133 
" clip-path="url(#p00a94eac3c)" style="fill: none; stroke: #808080; stroke-opacity: 0.5; stroke-width: 4; stroke-linecap: square"/>
     </g>
     <g id="line2d_16">
      <g>
       <use xlink:href="#m95585be634" x="225.540625" y="975.871133" style="stroke: #000000; stroke-width: 7"/>
      </g>
     </g>
     <g id="text_9">
      <!-- 0.02 -->
      <g transform="translate(84.946875 998.666445) scale(0.6 -0.6)">
       <use xlink:href="#DejaVuSans-30"/>
       <use xlink:href="#DejaVuSans-2e" transform="translate(63.623047 0)"/>
       <use xlink:href="#DejaVuSans-30" transform="translate(95.410156 0)"/>
       <use xlink:href="#DejaVuSans-32" transform="translate(159.033203 0)"/>
      </g>
     </g>
    </g>
    <g id="ytick_3">
     <g id="line2d_17">
      <path d="M 225.540625 742.020131 
L 1899.540625 742.020131 
" clip-path="url(#p00a94eac3c)" style="fill: none; stroke: #808080; stroke-opacity: 0.5; stroke-width: 4; stroke-linecap: square"/>
     </g>
     <g id="line2d_18">
      <g>
       <use xlink:href="#m95585be634" x="225.540625" y="742.020131" style="stroke: #000000; stroke-width: 7"/>
      </g>
     </g>
     <g id="text_10">
      <!-- 0.04 -->
      <g transform="translate(84.946875 764.815444) scale(0.6 -0.6)">
       <use xlink:href="#DejaVuSans-30"/>
       <use xlink:href="#DejaVuSans-2e" transform="translate(63.623047 0)"/>
       <use xlink:href="#DejaVuSans-30" transform="translate(95.410156 0)"/>
       <use xlink:href="#DejaVuSans-34" transform="translate(159.033203 0)"/>
      </g>
     </g>
    </g>
    <g id="ytick_4">
     <g id="line2d_19">
      <path d="M 225.540625 508.16913 
L 1899.540625 508.16913 
" clip-path="url(#p00a94eac3c)" style="fill: none; stroke: #808080; stroke-opacity: 0.5; stroke-width: 4; stroke-linecap: square"/>
     </g>
     <g id="line2d_20">
      <g>
       <use xlink:href="#m95585be634" x="225.540625" y="508.16913" style="stroke: #000000; stroke-width: 7"/>
      </g>
     </g>
     <g id="text_11">
      <!-- 0.06 -->
      <g transform="translate(84.946875 530.964442) scale(0.6 -0.6)">
       <use xlink:href="#DejaVuSans-30"/>
       <use xlink:href="#DejaVuSans-2e" transform="translate(63.623047 0)"/>
       <use xlink:href="#DejaVuSans-30" transform="translate(95.410156 0)"/>
       <use xlink:href="#DejaVuSans-36" transform="translate(159.033203 0)"/>
      </g>
     </g>
    </g>
    <g id="ytick_5">
     <g id="line2d_21">
      <path d="M 225.540625 274.318128 
L 1899.540625 274.318128 
" clip-path="url(#p00a94eac3c)" style="fill: none; stroke: #808080; stroke-opacity: 0.5; stroke-width: 4; stroke-linecap: square"/>
     </g>
     <g id="line2d_22">
      <g>
       <use xlink:href="#m95585be634" x="225.540625" y="274.318128" style="stroke: #000000; stroke-width: 7"/>
      </g>
     </g>
     <g id="text_12">
      <!-- 0.08 -->
      <g transform="translate(84.946875 297.113441) scale(0.6 -0.6)">
       <use xlink:href="#DejaVuSans-30"/>
       <use xlink:href="#DejaVuSans-2e" transform="translate(63.623047 0)"/>
       <use xlink:href="#DejaVuSans-30" transform="translate(95.410156 0)"/>
       <use xlink:href="#DejaVuSans-38" transform="translate(159.033203 0)"/>
      </g>
     </g>
    </g>
    <g id="text_13">
     <!-- Error -->
     <g transform="translate(60.389062 790.896094) rotate(-90) scale(0.7 -0.7)">
      <defs>
       <path id="DejaVuSans-45" d="M 628 4666 
L 3578 4666 
L 3578 4134 
L 1259 4134 
L 1259 2753 
L 3481 2753 
L 3481 2222 
L 1259 2222 
L 1259 531 
L 3634 531 
L 3634 0 
L 628 0 
L 628 4666 
z
" transform="scale(0.015625)"/>
       <path id="DejaVuSans-72" d="M 2631 2963 
Q 2534 3019 2420 3045 
Q 2306 3072 2169 3072 
Q 1681 3072 1420 2755 
Q 1159 2438 1159 1844 
L 1159 0 
L 581 0 
L 581 3500 
L 1159 3500 
L 1159 2956 
Q 1341 3275 1631 3429 
Q 1922 3584 2338 3584 
Q 2397 3584 2469 3576 
Q 2541 3569 2628 3553 
L 2631 2963 
z
" transform="scale(0.015625)"/>
       <path id="DejaVuSans-6f" d="M 1959 3097 
Q 1497 3097 1228 2736 
Q 959 2375 959 1747 
Q 959 1119 1226 758 
Q 1494 397 1959 397 
Q 2419 397 2687 759 
Q 2956 1122 2956 1747 
Q 2956 2369 2687 2733 
Q 2419 3097 1959 3097 
z
M 1959 3584 
Q 2709 3584 3137 3096 
Q 3566 2609 3566 1747 
Q 3566 888 3137 398 
Q 2709 -91 1959 -91 
Q 1206 -91 779 398 
Q 353 888 353 1747 
Q 353 2609 779 3096 
Q 1206 3584 1959 3584 
z
" transform="scale(0.015625)"/>
      </defs>
      <use xlink:href="#DejaVuSans-45"/>
      <use xlink:href="#DejaVuSans-72" transform="translate(63.183594 0)"/>
      <use xlink:href="#DejaVuSans-72" transform="translate(102.546875 0)"/>
      <use xlink:href="#DejaVuSans-6f" transform="translate(141.410156 0)"/>
      <use xlink:href="#DejaVuSans-72" transform="translate(202.591797 0)"/>
     </g>
    </g>
   </g>
   <g id="line2d_23">
    <path d="M 301.631534 259.70244 
L 303.154876 322.671849 
L 304.678217 293.952945 
L 309.248242 479.805695 
L 310.771583 404.058614 
L 315.341608 585.865475 
L 316.864949 554.449313 
L 321.434974 732.243426 
L 322.958315 699.495204 
L 327.52834 873.309711 
L 329.051682 793.566453 
L 333.621706 963.434494 
L 335.145048 928.055295 
L 339.715072 1094.01001 
L 341.238414 1011.657869 
L 345.808438 1173.732399 
L 347.33178 1135.76641 
L 348.855121 1188.828227 
L 350.378463 1177.873776 
L 351.901804 1125.450372 
L 353.425146 1164.693185 
L 357.99517 1010.279601 
L 359.518512 1096.462216 
L 364.088537 945.829394 
L 365.611878 987.592715 
L 368.658561 889.358442 
L 370.181903 932.055562 
L 374.751927 787.959328 
L 376.275269 877.56587 
L 380.845293 737.159262 
L 382.368635 782.316132 
L 386.938659 645.566007 
L 388.462001 737.610205 
L 393.032025 604.483424 
L 394.555367 808.233914 
L 399.125392 937.770493 
L 400.648733 889.00685 
L 405.218758 1014.986367 
L 406.742099 919.368537 
L 411.312124 1041.824133 
L 412.835465 990.71121 
L 417.40549 1109.676026 
L 418.928831 1057.405033 
L 423.498856 1172.91221 
L 425.022197 1073.82017 
L 428.068881 1148.825834 
L 429.592222 1094.554801 
L 434.162247 1204.090854 
L 435.685588 1103.018105 
L 440.255613 1209.187656 
L 441.778954 1152.672288 
L 443.302296 1187.227532 
L 444.825637 1197.938237 
L 446.348979 1163.935791 
L 447.87232 1197.887512 
L 449.395662 1188.104348 
L 452.442345 1122.020788 
L 453.965686 1193.033942 
L 455.489028 1194.049706 
L 458.535711 1130.141437 
L 460.059053 1189.940455 
L 464.629077 1096.905505 
L 466.152419 1157.776979 
L 470.722443 1067.942827 
L 472.245785 1175.549734 
L 476.815809 1088.883239 
L 478.339151 1151.866485 
L 482.909175 1068.334506 
L 484.432517 1178.031091 
L 490.525883 1071.30327 
L 493.572566 1019.474167 
L 495.095908 1085.288949 
L 499.665932 1010.206008 
L 501.189274 1122.70375 
L 505.759298 1050.631047 
L 507.28264 1118.452654 
L 511.852664 1049.357049 
L 513.376006 1118.165499 
L 517.94603 1052.013851 
L 519.469372 1167.47212 
L 524.039396 1104.231288 
L 525.562738 1174.980281 
L 530.132763 1114.617125 
L 531.656104 1187.450425 
L 533.179446 1206.859078 
L 534.702787 1193.412547 
L 536.226129 1174.475221 
L 537.74947 1172.323698 
L 540.796153 1209.027971 
L 542.319495 1192.413342 
L 543.842836 1153.453969 
L 548.412861 1205.382945 
L 549.936202 1085.211403 
L 554.506227 1134.395267 
L 556.029568 1058.988235 
L 559.076252 1090.193998 
L 560.599593 1014.11208 
L 565.169618 1058.571743 
L 566.692959 935.925619 
L 571.262984 977.731307 
L 572.786325 899.880073 
L 577.35635 939.064927 
L 578.879691 814.67158 
L 583.449716 851.268741 
L 584.973057 597.249345 
L 589.543082 563.206736 
L 591.066424 643.629094 
L 595.636448 612.107897 
L 597.15979 739.039225 
L 601.729814 710.006299 
L 603.253156 792.087504 
L 607.82318 765.509707 
L 609.346522 848.403765 
L 613.916546 824.247958 
L 615.439888 953.617846 
L 618.486571 938.908966 
L 620.009912 1023.198935 
L 623.056596 1009.672051 
L 624.579937 1003.201864 
L 626.103279 1133.948331 
L 629.149962 1121.97811 
L 630.673303 1116.282112 
L 632.196645 1202.125983 
L 635.243328 1191.690331 
L 636.766669 1186.757475 
L 638.290011 1146.082543 
L 641.336694 1155.00572 
L 642.860035 1159.186481 
L 644.383377 1026.158873 
L 647.43006 1033.591668 
L 648.953401 1037.03138 
L 650.476743 948.93951 
L 653.523426 954.904017 
L 655.046768 957.613729 
L 656.570109 868.794619 
L 659.616792 873.312933 
L 661.140134 875.30369 
L 662.663475 740.094364 
L 664.186817 741.729786 
L 665.710158 743.188578 
L 667.2335 744.471428 
L 668.756841 654.230979 
L 670.280183 655.164018 
L 671.803524 655.923187 
L 673.326866 656.509177 
L 674.850207 519.900606 
L 676.373549 520.142309 
L 677.89689 520.212902 
L 679.420232 520.113079 
L 680.943573 839.561694 
L 682.466915 839.123106 
L 683.990256 838.516171 
L 685.513598 883.415605 
L 687.036939 882.474049 
L 688.560281 881.366218 
L 690.083623 880.092802 
L 691.606964 924.328516 
L 693.130306 922.726002 
L 696.176989 919.031125 
L 697.70033 1008.28819 
L 700.747013 1003.622589 
L 702.270355 1001.049352 
L 703.793696 1043.990767 
L 706.840379 1038.0502 
L 708.363721 1034.843622 
L 709.887062 1077.154459 
L 712.933745 1069.961019 
L 714.457087 1066.132148 
L 715.980428 1107.823452 
L 719.027111 1099.399234 
L 720.550453 1094.959116 
L 722.073795 1181.71596 
L 725.120478 1172.083057 
L 726.643819 1167.042739 
L 728.167161 1207.528121 
L 731.213844 1196.708628 
L 732.737185 1191.079157 
L 734.260527 1188.466121 
L 738.830551 1206.657688 
L 740.353893 1167.334041 
L 744.923917 1187.23507 
L 746.447259 1102.801697 
L 749.493942 1117.048399 
L 751.017283 1078.705023 
L 755.587308 1101.517865 
L 757.11065 1063.719454 
L 761.680674 1088.150621 
L 763.204016 1050.886128 
L 767.77404 1076.902478 
L 769.297382 1040.160856 
L 773.867406 1067.72925 
L 775.390748 1113.900674 
L 779.960772 1084.813378 
L 781.484114 1120.542398 
L 786.054139 1089.96934 
L 787.57748 1125.20863 
L 792.147505 1093.182952 
L 793.670846 1173.617582 
L 798.240871 1140.172424 
L 799.764212 1174.465394 
L 804.334237 1139.633897 
L 805.857578 1173.470277 
L 808.904261 1149.458417 
L 810.427603 1182.959605 
L 814.997627 1145.781759 
L 816.520969 1194.924555 
L 818.044311 1207.642237 
L 819.567652 1198.977453 
L 821.090994 1186.046666 
L 822.614335 1200.759883 
L 824.137677 1205.543256 
L 827.18436 1178.949277 
L 828.707701 1208.272436 
L 830.231043 1197.618301 
L 833.277726 1170.207804 
L 834.801067 1202.026244 
L 839.371092 1159.866436 
L 840.894433 1182.47844 
L 842.417775 1196.823635 
L 843.941116 1208.179589 
L 845.464458 1193.643382 
L 846.987799 1194.75754 
L 848.511141 1209.481996 
L 851.557824 1180.234784 
L 853.081166 1208.537113 
L 854.604507 1195.814486 
L 857.65119 1165.358854 
L 859.174532 1195.671296 
L 863.744556 1149.059778 
L 865.267898 1179.023338 
L 869.837922 1131.381744 
L 871.361264 1121.414728 
L 874.407947 1153.758832 
L 875.931288 1124.379233 
L 880.501313 1173.743714 
L 882.024654 1144.682618 
L 886.594679 1194.986037 
L 888.118021 1120.558373 
L 892.688045 1171.76759 
L 894.211387 1143.310359 
L 898.781411 1195.392232 
L 900.304753 1167.220363 
L 903.351436 1202.432826 
L 904.874777 1199.302517 
L 906.398119 1192.244199 
L 907.92146 1209.356748 
L 910.968143 1173.472306 
L 912.491485 1172.663654 
L 915.538168 1208.934712 
L 917.06151 1192.279617 
L 918.584851 1199.782588 
L 920.108193 1201.308393 
L 923.154876 1164.420589 
L 924.678217 1191.561479 
L 929.248242 1135.613435 
L 930.771583 1162.524197 
L 935.341608 1105.902341 
L 936.864949 1178.268046 
L 939.911632 1140.144921 
L 941.434974 1166.679543 
L 946.004998 1108.95826 
L 947.52834 1135.293133 
L 952.098365 1076.989176 
L 953.621706 1103.135348 
L 958.191731 1044.281857 
L 959.715072 1070.250374 
L 964.285097 1010.880491 
L 965.808438 971.695655 
L 970.378463 1031.548791 
L 971.901804 1005.902442 
L 976.471829 1066.20569 
L 977.99517 1040.703854 
L 982.565195 1101.424072 
L 984.088537 1030.38168 
L 988.658561 1091.485728 
L 990.181903 1066.239779 
L 994.751927 1127.694516 
L 996.275269 1102.55994 
L 999.321952 1143.716497 
L 1000.845293 1118.658202 
L 1005.415318 1180.646899 
L 1006.938659 1110.00662 
L 1011.508684 1172.25487 
L 1013.032025 1147.369609 
L 1017.60205 1209.6 
L 1019.125392 1185.028955 
L 1020.648733 1205.903425 
L 1022.172075 1192.651304 
L 1023.695416 1171.747384 
L 1025.218758 1196.503798 
L 1029.788782 1133.675738 
L 1031.312124 1204.058323 
L 1035.882148 1141.103275 
L 1037.40549 1165.77503 
L 1041.975514 1102.726133 
L 1043.498856 1127.37213 
L 1048.068881 1064.262526 
L 1049.592222 1088.89381 
L 1054.162247 1025.756641 
L 1055.685588 1050.384259 
L 1060.255613 987.252664 
L 1061.778954 950.816367 
L 1064.825637 992.883009 
L 1066.348979 968.235223 
L 1070.919003 1031.277317 
L 1072.442345 1006.602817 
L 1077.012369 1069.5482 
L 1078.535711 1044.835939 
L 1083.105736 1107.651469 
L 1084.629077 1037.216377 
L 1089.199102 1099.868913 
L 1090.722443 1075.04799 
L 1095.292468 1137.504392 
L 1096.815809 1112.612568 
L 1101.385834 1174.839695 
L 1102.909175 1149.865922 
L 1105.955858 1191.199094 
L 1107.4792 1207.613636 
L 1109.002541 1186.763865 
L 1110.525883 1207.346145 
L 1112.049225 1191.541509 
L 1113.572566 1171.011249 
L 1115.095908 1196.18206 
L 1119.665932 1134.841603 
L 1121.189274 1160.127503 
L 1125.759298 1099.148884 
L 1127.28264 1170.234944 
L 1130.329323 1129.811439 
L 1131.852664 1155.325327 
L 1136.422689 1095.05967 
L 1137.94603 1120.719027 
L 1142.516055 1060.906345 
L 1144.039396 1086.722217 
L 1148.609421 1027.395651 
L 1150.132763 1053.379085 
L 1154.702787 994.571777 
L 1156.226129 1033.31826 
L 1160.796153 1091.57317 
L 1162.319495 1065.221471 
L 1166.889519 1122.890843 
L 1168.412861 1096.338441 
L 1172.982885 1153.389133 
L 1174.506227 1126.624981 
L 1179.076252 1183.023853 
L 1180.599593 1110.362881 
L 1185.169618 1166.076792 
L 1186.692959 1138.855999 
L 1189.739642 1175.581209 
L 1191.262984 1148.177784 
L 1195.833008 1202.613268 
L 1197.35635 1174.956667 
L 1198.879691 1192.90907 
L 1200.403033 1208.648507 
L 1201.926374 1190.828216 
L 1203.449716 1200.695229 
L 1204.973057 1201.063622 
L 1208.01974 1165.898893 
L 1209.543082 1194.094987 
L 1214.113107 1142.08722 
L 1215.636448 1170.569631 
L 1220.206473 1119.437384 
L 1221.729814 1193.891182 
L 1226.299839 1143.667598 
L 1227.82318 1172.755783 
L 1232.393205 1123.474 
L 1233.916546 1152.881643 
L 1238.486571 1104.574803 
L 1240.009912 1134.31295 
L 1244.579937 1087.014195 
L 1246.103279 1117.093893 
L 1250.673303 1070.836362 
L 1252.196645 1181.153539 
L 1253.719986 1196.30539 
L 1255.243328 1208.077594 
L 1256.766669 1180.66268 
L 1258.290011 1195.540762 
L 1259.813352 1209.118063 
L 1261.336694 1194.425946 
L 1262.860035 1193.942397 
L 1264.383377 1208.445787 
L 1265.906718 1196.590492 
L 1267.43006 1182.278591 
L 1268.953401 1205.706775 
L 1270.476743 1199.619844 
L 1273.523426 1171.679716 
L 1275.046768 1170.237601 
L 1278.093451 1197.578407 
L 1279.616792 1208.347533 
L 1281.140134 1178.838737 
L 1284.186817 1205.361115 
L 1285.710158 1200.978182 
L 1287.2335 1185.79197 
L 1288.756841 1198.686122 
L 1290.280183 1207.970442 
L 1291.803524 1195.289874 
L 1293.326866 1191.053113 
L 1294.850207 1203.517337 
L 1296.373549 1203.571915 
L 1297.89689 1191.326797 
L 1299.420232 1194.577978 
L 1300.943573 1206.601228 
L 1302.466915 1200.93176 
L 1303.990256 1189.133139 
L 1305.513598 1196.322377 
L 1307.036939 1207.893607 
L 1308.560281 1200.094164 
L 1310.083623 1188.753087 
L 1311.606964 1196.242123 
L 1313.130306 1207.350285 
L 1314.653647 1201.103315 
L 1316.176989 1190.23083 
L 1317.70033 1148.619003 
L 1320.747013 1169.766843 
L 1322.270355 1134.485667 
L 1326.840379 1164.931634 
L 1328.363721 1129.159772 
L 1332.933745 1158.117114 
L 1334.457087 1121.84352 
L 1339.027111 1149.279095 
L 1340.550453 1112.492723 
L 1345.120478 1138.373391 
L 1346.643819 998.66291 
L 1351.213844 974.37029 
L 1352.737185 1012.215361 
L 1357.30721 989.54393 
L 1358.830551 1027.934921 
L 1363.400576 1006.917819 
L 1364.923917 1045.865776 
L 1369.493942 1026.536145 
L 1371.017283 1111.72614 
L 1375.587308 1094.117119 
L 1377.11065 1134.212151 
L 1380.157333 1123.49433 
L 1381.680674 1164.030906 
L 1384.727357 1154.202389 
L 1386.250699 1149.512701 
L 1387.77404 1190.64767 
L 1390.820723 1182.024223 
L 1392.344065 1177.941213 
L 1393.867406 1199.758648 
L 1396.914089 1207.15493 
L 1398.437431 1208.824053 
L 1399.960772 1168.255321 
L 1403.007455 1174.402345 
L 1404.530797 1177.238859 
L 1406.054139 1134.24243 
L 1409.100822 1139.118102 
L 1410.624163 1141.314798 
L 1412.147505 1052.001765 
L 1415.194188 1055.583991 
L 1416.717529 1057.129821 
L 1418.240871 1012.837185 
L 1419.764212 1014.053439 
L 1421.287554 1015.10387 
L 1422.810895 1015.987788 
L 1424.334237 971.030477 
L 1425.857578 971.579296 
L 1427.38092 971.95953 
L 1428.904261 972.170488 
L 1430.427603 926.537456 
L 1431.950944 926.407792 
L 1433.474286 926.10678 
L 1434.997627 925.633732 
L 1436.520969 879.313932 
L 1438.044311 878.494738 
L 1439.567652 877.501435 
L 1441.090994 876.333334 
L 1442.614335 372.575481 
L 1444.137677 371.05571 
L 1445.661018 369.359069 
L 1447.18436 504.506938 
L 1450.231043 500.223091 
L 1451.754384 497.812064 
L 1453.277726 586.568762 
L 1456.324409 580.842335 
L 1457.84775 577.705876 
L 1459.371092 711.408404 
L 1462.417775 704.217303 
L 1463.941116 700.344365 
L 1465.464458 833.307651 
L 1468.511141 824.629783 
L 1470.034482 820.009319 
L 1471.557824 906.548294 
L 1474.604507 896.361564 
L 1476.127849 890.982526 
L 1477.65119 1022.43419 
L 1480.697873 1010.716506 
L 1482.221215 1004.567848 
L 1483.744556 1135.24713 
L 1486.791239 1121.976397 
L 1488.314581 1115.047072 
L 1489.837922 1199.268901 
L 1492.884605 1184.423025 
L 1494.407947 1176.701986 
L 1495.931288 1113.640906 
L 1498.977971 1130.084018 
L 1500.501313 1138.607818 
L 1502.024654 1055.985987 
L 1506.594679 1083.386039 
L 1508.118021 955.906753 
L 1511.164704 975.610621 
L 1512.688045 848.751012 
L 1517.25807 880.488801 
L 1518.781411 800.139118 
L 1523.351436 834.401182 
L 1524.874777 709.224424 
L 1529.444802 746.043905 
L 1530.968143 621.725142 
L 1535.538168 661.13518 
L 1537.06151 831.256263 
L 1541.631534 789.222527 
L 1543.154876 911.792158 
L 1547.7249 867.101583 
L 1549.248242 943.106053 
L 1553.818266 895.725499 
L 1555.341608 1016.50181 
L 1559.911632 966.398135 
L 1561.434974 1086.261216 
L 1566.004998 1033.40128 
L 1567.52834 1106.666059 
L 1570.575023 1069.800447 
L 1572.098365 1188.038792 
L 1576.668389 1130.275654 
L 1578.191731 1171.873878 
L 1579.715072 1191.838841 
L 1581.238414 1207.402146 
L 1582.761755 1186.959854 
L 1584.285097 1161.818358 
L 1587.33178 1203.904201 
L 1588.855121 1194.134835 
L 1590.378463 1109.935057 
L 1594.948487 1176.339813 
L 1596.471829 1107.61621 
L 1601.041854 1176.967787 
L 1602.565195 1063.557957 
L 1607.13522 1135.889496 
L 1608.658561 1023.47851 
L 1613.228586 1098.823151 
L 1614.751927 1033.09608 
L 1619.321952 1111.486964 
L 1620.845293 1001.106807 
L 1625.415318 1082.577075 
L 1626.938659 973.228903 
L 1633.032025 1086.528627 
L 1636.078709 1144.750631 
L 1637.60205 1037.235015 
L 1642.172075 1127.344471 
L 1643.695416 1066.565242 
L 1648.265441 1159.878361 
L 1649.788782 1054.498518 
L 1654.358807 1151.04844 
L 1655.882148 1046.753055 
L 1660.452173 1146.572921 
L 1661.975514 1089.047065 
L 1666.545539 1192.170014 
L 1668.068881 1090.076686 
L 1672.638905 1196.535861 
L 1674.162247 1095.560132 
L 1678.732271 1205.388673 
L 1680.255613 1151.215612 
L 1681.778954 1188.674487 
L 1683.302296 1193.02633 
L 1684.825637 1154.997609 
L 1686.348979 1165.739269 
L 1687.87232 1204.340597 
L 1689.395662 1176.215003 
L 1690.919003 1137.038305 
L 1692.442345 1188.920933 
L 1697.012369 1068.785449 
L 1698.535711 1165.180315 
L 1701.582394 1083.048696 
L 1703.105736 1178.564973 
L 1707.67576 1052.279364 
L 1709.199102 1100.940498 
L 1713.769126 971.094964 
L 1715.292468 1064.237957 
L 1719.862492 930.799355 
L 1721.385834 1022.739136 
L 1725.955858 885.674327 
L 1727.4792 483.889922 
L 1732.049225 624.614078 
L 1733.572566 535.113863 
L 1738.142591 679.530509 
L 1739.665932 636.94067 
L 1744.235957 785.082946 
L 1745.759298 698.066484 
L 1750.329323 849.967529 
L 1751.852664 764.209514 
L 1756.422689 919.902471 
L 1757.94603 881.087974 
L 1760.992713 987.113063 
L 1762.516055 903.583912 
L 1767.08608 1065.992459 
L 1768.609421 983.752134 
L 1773.179446 1150.043729 
L 1774.702787 1114.777301 
L 1776.226129 1171.185614 
L 1777.74947 1191.522957 
L 1779.272812 1134.459183 
L 1780.796153 1205.355554 
L 1782.319495 1156.36672 
L 1785.366178 1039.931601 
L 1786.889519 1072.565142 
L 1791.459544 894.425556 
L 1792.982885 971.400108 
L 1797.55291 789.24491 
L 1799.076252 864.875401 
L 1803.646276 678.671451 
L 1805.169618 707.272811 
L 1809.739642 516.986967 
L 1811.262984 589.896196 
L 1815.833008 395.495318 
L 1817.35635 467.027345 
L 1823.449716 201.6 
L 1823.449716 201.6 
" clip-path="url(#p00a94eac3c)" style="fill: none; stroke: #0000ff; stroke-width: 9; stroke-linecap: square"/>
   </g>
   <g id="line2d_24">
    <path d="M 301.631534 201.6 
L 1823.449716 201.6 
L 1823.449716 201.6 
" clip-path="url(#p00a94eac3c)" style="fill: none; stroke: #ff0000; stroke-width: 9; stroke-linecap: square"/>
   </g>
   <g id="line2d_25">
    <path d="M 301.631534 1036.863009 
L 1823.449716 1036.863009 
L 1823.449716 1036.863009 
" clip-path="url(#p00a94eac3c)" style="fill: none; stroke: #ffa500; stroke-width: 9; stroke-linecap: square"/>
   </g>
   <g id="patch_3">
    <path d="M 225.540625 1260 
L 225.540625 151.2 
" style="fill: none; stroke: #000000; stroke-width: 7; stroke-linejoin: miter; stroke-linecap: square"/>
   </g>
   <g id="patch_4">
    <path d="M 1899.540625 1260 
L 1899.540625 151.2 
" style="fill: none; stroke: #000000; stroke-width: 7; stroke-linejoin: miter; stroke-linecap: square"/>
   </g>
   <g id="patch_5">
    <path d="M 225.540625 1260 
L 1899.540625 1260 
" style="fill: none; stroke: #000000; stroke-width: 7; stroke-linejoin: miter; stroke-linecap: square"/>
   </g>
   <g id="patch_6">
    <path d="M 225.540625 151.2 
L 1899.540625 151.2 
" style="fill: none; stroke: #000000; stroke-width: 7; stroke-linejoin: miter; stroke-linecap: square"/>
   </g>
   <g id="text_14">
    <!-- Generated with ApexHDL -->
    <g style="fill: #808080; opacity: 0.6" transform="translate(2029.19875 326.095313) rotate(-270) scale(0.6 -0.6)">
     <defs>
      <path id="DejaVuSans-47" d="M 3809 666 
L 3809 1919 
L 2778 1919 
L 2778 2438 
L 4434 2438 
L 4434 434 
Q 4069 175 3628 42 
Q 3188 -91 2688 -91 
Q 1594 -91 976 548 
Q 359 1188 359 2328 
Q 359 3472 976 4111 
Q 1594 4750 2688 4750 
Q 3144 4750 3555 4637 
Q 3966 4525 4313 4306 
L 4313 3634 
Q 3963 3931 3569 4081 
Q 3175 4231 2741 4231 
Q 1884 4231 1454 3753 
Q 1025 3275 1025 2328 
Q 1025 1384 1454 906 
Q 1884 428 2741 428 
Q 3075 428 3337 486 
Q 3600 544 3809 666 
z
" transform="scale(0.015625)"/>
      <path id="DejaVuSans-65" d="M 3597 1894 
L 3597 1613 
L 953 1613 
Q 991 1019 1311 708 
Q 1631 397 2203 397 
Q 2534 397 2845 478 
Q 3156 559 3463 722 
L 3463 178 
Q 3153 47 2828 -22 
Q 2503 -91 2169 -91 
Q 1331 -91 842 396 
Q 353 884 353 1716 
Q 353 2575 817 3079 
Q 1281 3584 2069 3584 
Q 2775 3584 3186 3129 
Q 3597 2675 3597 1894 
z
M 3022 2063 
Q 3016 2534 2758 2815 
Q 2500 3097 2075 3097 
Q 1594 3097 1305 2825 
Q 1016 2553 972 2059 
L 3022 2063 
z
" transform="scale(0.015625)"/>
      <path id="DejaVuSans-61" d="M 2194 1759 
Q 1497 1759 1228 1600 
Q 959 1441 959 1056 
Q 959 750 1161 570 
Q 1363 391 1709 391 
Q 2188 391 2477 730 
Q 2766 1069 2766 1631 
L 2766 1759 
L 2194 1759 
z
M 3341 1997 
L 3341 0 
L 2766 0 
L 2766 531 
Q 2569 213 2275 61 
Q 1981 -91 1556 -91 
Q 1019 -91 701 211 
Q 384 513 384 1019 
Q 384 1609 779 1909 
Q 1175 2209 1959 2209 
L 2766 2209 
L 2766 2266 
Q 2766 2663 2505 2880 
Q 2244 3097 1772 3097 
Q 1472 3097 1187 3025 
Q 903 2953 641 2809 
L 641 3341 
Q 956 3463 1253 3523 
Q 1550 3584 1831 3584 
Q 2591 3584 2966 3190 
Q 3341 2797 3341 1997 
z
" transform="scale(0.015625)"/>
      <path id="DejaVuSans-64" d="M 2906 2969 
L 2906 4863 
L 3481 4863 
L 3481 0 
L 2906 0 
L 2906 525 
Q 2725 213 2448 61 
Q 2172 -91 1784 -91 
Q 1150 -91 751 415 
Q 353 922 353 1747 
Q 353 2572 751 3078 
Q 1150 3584 1784 3584 
Q 2172 3584 2448 3432 
Q 2725 3281 2906 2969 
z
M 947 1747 
Q 947 1113 1208 752 
Q 1469 391 1925 391 
Q 2381 391 2643 752 
Q 2906 1113 2906 1747 
Q 2906 2381 2643 2742 
Q 2381 3103 1925 3103 
Q 1469 3103 1208 2742 
Q 947 2381 947 1747 
z
" transform="scale(0.015625)"/>
      <path id="DejaVuSans-20" transform="scale(0.015625)"/>
      <path id="DejaVuSans-77" d="M 269 3500 
L 844 3500 
L 1563 769 
L 2278 3500 
L 2956 3500 
L 3675 769 
L 4391 3500 
L 4966 3500 
L 4050 0 
L 3372 0 
L 2619 2869 
L 1863 0 
L 1184 0 
L 269 3500 
z
" transform="scale(0.015625)"/>
      <path id="DejaVuSans-69" d="M 603 3500 
L 1178 3500 
L 1178 0 
L 603 0 
L 603 3500 
z
M 603 4863 
L 1178 4863 
L 1178 4134 
L 603 4134 
L 603 4863 
z
" transform="scale(0.015625)"/>
      <path id="DejaVuSans-68" d="M 3513 2113 
L 3513 0 
L 2938 0 
L 2938 2094 
Q 2938 2591 2744 2837 
Q 2550 3084 2163 3084 
Q 1697 3084 1428 2787 
Q 1159 2491 1159 1978 
L 1159 0 
L 581 0 
L 581 4863 
L 1159 4863 
L 1159 2956 
Q 1366 3272 1645 3428 
Q 1925 3584 2291 3584 
Q 2894 3584 3203 3211 
Q 3513 2838 3513 2113 
z
" transform="scale(0.015625)"/>
      <path id="DejaVuSans-41" d="M 2188 4044 
L 1331 1722 
L 3047 1722 
L 2188 4044 
z
M 1831 4666 
L 2547 4666 
L 4325 0 
L 3669 0 
L 3244 1197 
L 1141 1197 
L 716 0 
L 50 0 
L 1831 4666 
z
" transform="scale(0.015625)"/>
      <path id="DejaVuSans-78" d="M 3513 3500 
L 2247 1797 
L 3578 0 
L 2900 0 
L 1881 1375 
L 863 0 
L 184 0 
L 1544 1831 
L 300 3500 
L 978 3500 
L 1906 2253 
L 2834 3500 
L 3513 3500 
z
" transform="scale(0.015625)"/>
      <path id="DejaVuSans-48" d="M 628 4666 
L 1259 4666 
L 1259 2753 
L 3553 2753 
L 3553 4666 
L 4184 4666 
L 4184 0 
L 3553 0 
L 3553 2222 
L 1259 2222 
L 1259 0 
L 628 0 
L 628 4666 
z
" transform="scale(0.015625)"/>
      <path id="DejaVuSans-44" d="M 1259 4147 
L 1259 519 
L 2022 519 
Q 2988 519 3436 956 
Q 3884 1394 3884 2338 
Q 3884 3275 3436 3711 
Q 2988 4147 2022 4147 
L 1259 4147 
z
M 628 4666 
L 1925 4666 
Q 3281 4666 3915 4102 
Q 4550 3538 4550 2338 
Q 4550 1131 3912 565 
Q 3275 0 1925 0 
L 628 0 
L 628 4666 
z
" transform="scale(0.015625)"/>
      <path id="DejaVuSans-4c" d="M 628 4666 
L 1259 4666 
L 1259 531 
L 3531 531 
L 3531 0 
L 628 0 
L 628 4666 
z
" transform="scale(0.015625)"/>
     </defs>
     <use xlink:href="#DejaVuSans-47"/>
     <use xlink:href="#DejaVuSans-65" transform="translate(77.490234 0)"/>
     <use xlink:href="#DejaVuSans-6e" transform="translate(139.013672 0)"/>
     <use xlink:href="#DejaVuSans-65" transform="translate(202.392578 0)"/>
     <use xlink:href="#DejaVuSans-72" transform="translate(263.916016 0)"/>
     <use xlink:href="#DejaVuSans-61" transform="translate(305.029297 0)"/>
     <use xlink:href="#DejaVuSans-74" transform="translate(366.308594 0)"/>
     <use xlink:href="#DejaVuSans-65" transform="translate(405.517578 0)"/>
     <use xlink:href="#DejaVuSans-64" transform="translate(467.041016 0)"/>
     <use xlink:href="#DejaVuSans-20" transform="translate(530.517578 0)"/>
     <use xlink:href="#DejaVuSans-77" transform="translate(562.304688 0)"/>
     <use xlink:href="#DejaVuSans-69" transform="translate(644.091797 0)"/>
     <use xlink:href="#DejaVuSans-74" transform="translate(671.875 0)"/>
     <use xlink:href="#DejaVuSans-68" transform="translate(711.083984 0)"/>
     <use xlink:href="#DejaVuSans-20" transform="translate(774.462891 0)"/>
     <use xlink:href="#DejaVuSans-41" transform="translate(806.25 0)"/>
     <use xlink:href="#DejaVuSans-70" transform="translate(874.658203 0)"/>
     <use xlink:href="#DejaVuSans-65" transform="translate(938.134766 0)"/>
     <use xlink:href="#DejaVuSans-78" transform="translate(997.908203 0)"/>
     <use xlink:href="#DejaVuSans-48" transform="translate(1057.087891 0)"/>
     <use xlink:href="#DejaVuSans-44" transform="translate(1132.283203 0)"/>
     <use xlink:href="#DejaVuSans-4c" transform="translate(1209.285156 0)"/>
    </g>
   </g>
   <g id="text_15">
    <!-- during simulation -->
    <g transform="translate(843.626563 131.2) scale(0.5 -0.5)">
     <defs>
      <path id="DejaVuSans-67" d="M 2906 1791 
Q 2906 2416 2648 2759 
Q 2391 3103 1925 3103 
Q 1463 3103 1205 2759 
Q 947 2416 947 1791 
Q 947 1169 1205 825 
Q 1463 481 1925 481 
Q 2391 481 2648 825 
Q 2906 1169 2906 1791 
z
M 3481 434 
Q 3481 -459 3084 -895 
Q 2688 -1331 1869 -1331 
Q 1566 -1331 1297 -1286 
Q 1028 -1241 775 -1147 
L 775 -588 
Q 1028 -725 1275 -790 
Q 1522 -856 1778 -856 
Q 2344 -856 2625 -561 
Q 2906 -266 2906 331 
L 2906 616 
Q 2728 306 2450 153 
Q 2172 0 1784 0 
Q 1141 0 747 490 
Q 353 981 353 1791 
Q 353 2603 747 3093 
Q 1141 3584 1784 3584 
Q 2172 3584 2450 3431 
Q 2728 3278 2906 2969 
L 2906 3500 
L 3481 3500 
L 3481 434 
z
" transform="scale(0.015625)"/>
      <path id="DejaVuSans-73" d="M 2834 3397 
L 2834 2853 
Q 2591 2978 2328 3040 
Q 2066 3103 1784 3103 
Q 1356 3103 1142 2972 
Q 928 2841 928 2578 
Q 928 2378 1081 2264 
Q 1234 2150 1697 2047 
L 1894 2003 
Q 2506 1872 2764 1633 
Q 3022 1394 3022 966 
Q 3022 478 2636 193 
Q 2250 -91 1575 -91 
Q 1294 -91 989 -36 
Q 684 19 347 128 
L 347 722 
Q 666 556 975 473 
Q 1284 391 1588 391 
Q 1994 391 2212 530 
Q 2431 669 2431 922 
Q 2431 1156 2273 1281 
Q 2116 1406 1581 1522 
L 1381 1569 
Q 847 1681 609 1914 
Q 372 2147 372 2553 
Q 372 3047 722 3315 
Q 1072 3584 1716 3584 
Q 2034 3584 2315 3537 
Q 2597 3491 2834 3397 
z
" transform="scale(0.015625)"/>
      <path id="DejaVuSans-6d" d="M 3328 2828 
Q 3544 3216 3844 3400 
Q 4144 3584 4550 3584 
Q 5097 3584 5394 3201 
Q 5691 2819 5691 2113 
L 5691 0 
L 5113 0 
L 5113 2094 
Q 5113 2597 4934 2840 
Q 4756 3084 4391 3084 
Q 3944 3084 3684 2787 
Q 3425 2491 3425 1978 
L 3425 0 
L 2847 0 
L 2847 2094 
Q 2847 2600 2669 2842 
Q 2491 3084 2119 3084 
Q 1678 3084 1418 2786 
Q 1159 2488 1159 1978 
L 1159 0 
L 581 0 
L 581 3500 
L 1159 3500 
L 1159 2956 
Q 1356 3278 1631 3431 
Q 1906 3584 2284 3584 
Q 2666 3584 2933 3390 
Q 3200 3197 3328 2828 
z
" transform="scale(0.015625)"/>
      <path id="DejaVuSans-6c" d="M 603 4863 
L 1178 4863 
L 1178 0 
L 603 0 
L 603 4863 
z
" transform="scale(0.015625)"/>
     </defs>
     <use xlink:href="#DejaVuSans-64"/>
     <use xlink:href="#DejaVuSans-75" transform="translate(63.476562 0)"/>
     <use xlink:href="#DejaVuSans-72" transform="translate(126.855469 0)"/>
     <use xlink:href="#DejaVuSans-69" transform="translate(167.96875 0)"/>
     <use xlink:href="#DejaVuSans-6e" transform="translate(195.751953 0)"/>
     <use xlink:href="#DejaVuSans-67" transform="translate(259.130859 0)"/>
     <use xlink:href="#DejaVuSans-20" transform="translate(322.607422 0)"/>
     <use xlink:href="#DejaVuSans-73" transform="translate(354.394531 0)"/>
     <use xlink:href="#DejaVuSans-69" transform="translate(406.494141 0)"/>
     <use xlink:href="#DejaVuSans-6d" transform="translate(434.277344 0)"/>
     <use xlink:href="#DejaVuSans-75" transform="translate(531.689453 0)"/>
     <use xlink:href="#DejaVuSans-6c" transform="translate(595.068359 0)"/>
     <use xlink:href="#DejaVuSans-61" transform="translate(622.851562 0)"/>
     <use xlink:href="#DejaVuSans-74" transform="translate(684.130859 0)"/>
     <use xlink:href="#DejaVuSans-69" transform="translate(723.339844 0)"/>
     <use xlink:href="#DejaVuSans-6f" transform="translate(751.123047 0)"/>
     <use xlink:href="#DejaVuSans-6e" transform="translate(812.304688 0)"/>
    </g>
   </g>
   <g id="legend_1">
    <g id="line2d_26">
     <path d="M 102.367188 1449.470625 
L 162.367188 1449.470625 
L 222.367188 1449.470625 
" style="fill: none; stroke: #0000ff; stroke-width: 9; stroke-linecap: square"/>
    </g>
    <g id="text_16">
     <!-- Errors -->
     <g transform="translate(270.367188 1470.470625) scale(0.6 -0.6)">
      <defs>
       <path id="DejaVuSans-Bold-45" d="M 588 4666 
L 3834 4666 
L 3834 3756 
L 1791 3756 
L 1791 2888 
L 3713 2888 
L 3713 1978 
L 1791 1978 
L 1791 909 
L 3903 909 
L 3903 0 
L 588 0 
L 588 4666 
z
" transform="scale(0.015625)"/>
       <path id="DejaVuSans-Bold-72" d="M 3138 2547 
Q 2991 2616 2845 2648 
Q 2700 2681 2553 2681 
Q 2122 2681 1889 2404 
Q 1656 2128 1656 1613 
L 1656 0 
L 538 0 
L 538 3500 
L 1656 3500 
L 1656 2925 
Q 1872 3269 2151 3426 
Q 2431 3584 2822 3584 
Q 2878 3584 2943 3579 
Q 3009 3575 3134 3559 
L 3138 2547 
z
" transform="scale(0.015625)"/>
       <path id="DejaVuSans-Bold-6f" d="M 2203 2784 
Q 1831 2784 1636 2517 
Q 1441 2250 1441 1747 
Q 1441 1244 1636 976 
Q 1831 709 2203 709 
Q 2569 709 2762 976 
Q 2956 1244 2956 1747 
Q 2956 2250 2762 2517 
Q 2569 2784 2203 2784 
z
M 2203 3584 
Q 3106 3584 3614 3096 
Q 4122 2609 4122 1747 
Q 4122 884 3614 396 
Q 3106 -91 2203 -91 
Q 1297 -91 786 396 
Q 275 884 275 1747 
Q 275 2609 786 3096 
Q 1297 3584 2203 3584 
z
" transform="scale(0.015625)"/>
       <path id="DejaVuSans-Bold-73" d="M 3272 3391 
L 3272 2541 
Q 2913 2691 2578 2766 
Q 2244 2841 1947 2841 
Q 1628 2841 1473 2761 
Q 1319 2681 1319 2516 
Q 1319 2381 1436 2309 
Q 1553 2238 1856 2203 
L 2053 2175 
Q 2913 2066 3209 1816 
Q 3506 1566 3506 1031 
Q 3506 472 3093 190 
Q 2681 -91 1863 -91 
Q 1516 -91 1145 -36 
Q 775 19 384 128 
L 384 978 
Q 719 816 1070 734 
Q 1422 653 1784 653 
Q 2113 653 2278 743 
Q 2444 834 2444 1013 
Q 2444 1163 2330 1236 
Q 2216 1309 1875 1350 
L 1678 1375 
Q 931 1469 631 1722 
Q 331 1975 331 2491 
Q 331 3047 712 3315 
Q 1094 3584 1881 3584 
Q 2191 3584 2531 3537 
Q 2872 3491 3272 3391 
z
" transform="scale(0.015625)"/>
      </defs>
      <use xlink:href="#DejaVuSans-Bold-45"/>
      <use xlink:href="#DejaVuSans-Bold-72" transform="translate(68.310547 0)"/>
      <use xlink:href="#DejaVuSans-Bold-72" transform="translate(117.626953 0)"/>
      <use xlink:href="#DejaVuSans-Bold-6f" transform="translate(166.943359 0)"/>
      <use xlink:href="#DejaVuSans-Bold-72" transform="translate(235.644531 0)"/>
      <use xlink:href="#DejaVuSans-Bold-73" transform="translate(284.960938 0)"/>
     </g>
    </g>
    <g id="line2d_27">
     <path d="M 597.048438 1449.470625 
L 657.048438 1449.470625 
L 717.048438 1449.470625 
" style="fill: none; stroke: #ff0000; stroke-width: 9; stroke-linecap: square"/>
    </g>
    <g id="text_17">
     <!-- Max = 0.0862 -->
     <g transform="translate(765.048438 1470.470625) scale(0.6 -0.6)">
      <defs>
       <path id="DejaVuSans-Bold-4d" d="M 588 4666 
L 2119 4666 
L 3181 2169 
L 4250 4666 
L 5778 4666 
L 5778 0 
L 4641 0 
L 4641 3413 
L 3566 897 
L 2803 897 
L 1728 3413 
L 1728 0 
L 588 0 
L 588 4666 
z
" transform="scale(0.015625)"/>
       <path id="DejaVuSans-Bold-61" d="M 2106 1575 
Q 1756 1575 1579 1456 
Q 1403 1338 1403 1106 
Q 1403 894 1545 773 
Q 1688 653 1941 653 
Q 2256 653 2472 879 
Q 2688 1106 2688 1447 
L 2688 1575 
L 2106 1575 
z
M 3816 1997 
L 3816 0 
L 2688 0 
L 2688 519 
Q 2463 200 2181 54 
Q 1900 -91 1497 -91 
Q 953 -91 614 226 
Q 275 544 275 1050 
Q 275 1666 698 1953 
Q 1122 2241 2028 2241 
L 2688 2241 
L 2688 2328 
Q 2688 2594 2478 2717 
Q 2269 2841 1825 2841 
Q 1466 2841 1156 2769 
Q 847 2697 581 2553 
L 581 3406 
Q 941 3494 1303 3539 
Q 1666 3584 2028 3584 
Q 2975 3584 3395 3211 
Q 3816 2838 3816 1997 
z
" transform="scale(0.015625)"/>
       <path id="DejaVuSans-Bold-78" d="M 1422 1791 
L 159 3500 
L 1344 3500 
L 2059 2463 
L 2784 3500 
L 3969 3500 
L 2706 1797 
L 4031 0 
L 2847 0 
L 2059 1106 
L 1281 0 
L 97 0 
L 1422 1791 
z
" transform="scale(0.015625)"/>
       <path id="DejaVuSans-Bold-20" transform="scale(0.015625)"/>
       <path id="DejaVuSans-Bold-3d" d="M 678 3084 
L 4684 3084 
L 4684 2350 
L 678 2350 
L 678 3084 
z
M 678 1663 
L 4684 1663 
L 4684 922 
L 678 922 
L 678 1663 
z
" transform="scale(0.015625)"/>
       <path id="DejaVuSans-Bold-30" d="M 2944 2338 
Q 2944 3213 2780 3570 
Q 2616 3928 2228 3928 
Q 1841 3928 1675 3570 
Q 1509 3213 1509 2338 
Q 1509 1453 1675 1090 
Q 1841 728 2228 728 
Q 2613 728 2778 1090 
Q 2944 1453 2944 2338 
z
M 4147 2328 
Q 4147 1169 3647 539 
Q 3147 -91 2228 -91 
Q 1306 -91 806 539 
Q 306 1169 306 2328 
Q 306 3491 806 4120 
Q 1306 4750 2228 4750 
Q 3147 4750 3647 4120 
Q 4147 3491 4147 2328 
z
" transform="scale(0.015625)"/>
       <path id="DejaVuSans-Bold-2e" d="M 653 1209 
L 1778 1209 
L 1778 0 
L 653 0 
L 653 1209 
z
" transform="scale(0.015625)"/>
       <path id="DejaVuSans-Bold-38" d="M 2228 2088 
Q 1891 2088 1709 1903 
Q 1528 1719 1528 1375 
Q 1528 1031 1709 848 
Q 1891 666 2228 666 
Q 2563 666 2741 848 
Q 2919 1031 2919 1375 
Q 2919 1722 2741 1905 
Q 2563 2088 2228 2088 
z
M 1350 2484 
Q 925 2613 709 2878 
Q 494 3144 494 3541 
Q 494 4131 934 4440 
Q 1375 4750 2228 4750 
Q 3075 4750 3515 4442 
Q 3956 4134 3956 3541 
Q 3956 3144 3739 2878 
Q 3522 2613 3097 2484 
Q 3572 2353 3814 2058 
Q 4056 1763 4056 1313 
Q 4056 619 3595 264 
Q 3134 -91 2228 -91 
Q 1319 -91 855 264 
Q 391 619 391 1313 
Q 391 1763 633 2058 
Q 875 2353 1350 2484 
z
M 1631 3419 
Q 1631 3141 1786 2991 
Q 1941 2841 2228 2841 
Q 2509 2841 2662 2991 
Q 2816 3141 2816 3419 
Q 2816 3697 2662 3845 
Q 2509 3994 2228 3994 
Q 1941 3994 1786 3844 
Q 1631 3694 1631 3419 
z
" transform="scale(0.015625)"/>
       <path id="DejaVuSans-Bold-36" d="M 2316 2303 
Q 2000 2303 1842 2098 
Q 1684 1894 1684 1484 
Q 1684 1075 1842 870 
Q 2000 666 2316 666 
Q 2634 666 2792 870 
Q 2950 1075 2950 1484 
Q 2950 1894 2792 2098 
Q 2634 2303 2316 2303 
z
M 3803 4544 
L 3803 3681 
Q 3506 3822 3243 3889 
Q 2981 3956 2731 3956 
Q 2194 3956 1894 3657 
Q 1594 3359 1544 2772 
Q 1750 2925 1990 3001 
Q 2231 3078 2516 3078 
Q 3231 3078 3670 2659 
Q 4109 2241 4109 1563 
Q 4109 813 3618 361 
Q 3128 -91 2303 -91 
Q 1394 -91 895 523 
Q 397 1138 397 2266 
Q 397 3422 980 4083 
Q 1563 4744 2578 4744 
Q 2900 4744 3203 4694 
Q 3506 4644 3803 4544 
z
" transform="scale(0.015625)"/>
       <path id="DejaVuSans-Bold-32" d="M 1844 884 
L 3897 884 
L 3897 0 
L 506 0 
L 506 884 
L 2209 2388 
Q 2438 2594 2547 2791 
Q 2656 2988 2656 3200 
Q 2656 3528 2436 3728 
Q 2216 3928 1850 3928 
Q 1569 3928 1234 3808 
Q 900 3688 519 3450 
L 519 4475 
Q 925 4609 1322 4679 
Q 1719 4750 2100 4750 
Q 2938 4750 3402 4381 
Q 3866 4013 3866 3353 
Q 3866 2972 3669 2642 
Q 3472 2313 2841 1759 
L 1844 884 
z
" transform="scale(0.015625)"/>
      </defs>
      <use xlink:href="#DejaVuSans-Bold-4d"/>
      <use xlink:href="#DejaVuSans-Bold-61" transform="translate(99.511719 0)"/>
      <use xlink:href="#DejaVuSans-Bold-78" transform="translate(166.992188 0)"/>
      <use xlink:href="#DejaVuSans-Bold-20" transform="translate(231.494141 0)"/>
      <use xlink:href="#DejaVuSans-Bold-3d" transform="translate(266.308594 0)"/>
      <use xlink:href="#DejaVuSans-Bold-20" transform="translate(350.097656 0)"/>
      <use xlink:href="#DejaVuSans-Bold-30" transform="translate(384.912109 0)"/>
      <use xlink:href="#DejaVuSans-Bold-2e" transform="translate(454.492188 0)"/>
      <use xlink:href="#DejaVuSans-Bold-30" transform="translate(492.480469 0)"/>
      <use xlink:href="#DejaVuSans-Bold-38" transform="translate(562.060547 0)"/>
      <use xlink:href="#DejaVuSans-Bold-36" transform="translate(631.640625 0)"/>
      <use xlink:href="#DejaVuSans-Bold-32" transform="translate(701.220703 0)"/>
     </g>
    </g>
    <g id="line2d_28">
     <path d="M 1347.526563 1449.470625 
L 1407.526563 1449.470625 
L 1467.526563 1449.470625 
" style="fill: none; stroke: #ffa500; stroke-width: 9; stroke-linecap: square"/>
    </g>
    <g id="text_18">
     <!-- Mean = 0.0148 -->
     <g transform="translate(1515.526563 1470.470625) scale(0.6 -0.6)">
      <defs>
       <path id="DejaVuSans-Bold-65" d="M 4031 1759 
L 4031 1441 
L 1416 1441 
Q 1456 1047 1700 850 
Q 1944 653 2381 653 
Q 2734 653 3104 758 
Q 3475 863 3866 1075 
L 3866 213 
Q 3469 63 3072 -14 
Q 2675 -91 2278 -91 
Q 1328 -91 801 392 
Q 275 875 275 1747 
Q 275 2603 792 3093 
Q 1309 3584 2216 3584 
Q 3041 3584 3536 3087 
Q 4031 2591 4031 1759 
z
M 2881 2131 
Q 2881 2450 2695 2645 
Q 2509 2841 2209 2841 
Q 1884 2841 1681 2658 
Q 1478 2475 1428 2131 
L 2881 2131 
z
" transform="scale(0.015625)"/>
       <path id="DejaVuSans-Bold-6e" d="M 4056 2131 
L 4056 0 
L 2931 0 
L 2931 347 
L 2931 1631 
Q 2931 2084 2911 2256 
Q 2891 2428 2841 2509 
Q 2775 2619 2662 2680 
Q 2550 2741 2406 2741 
Q 2056 2741 1856 2470 
Q 1656 2200 1656 1722 
L 1656 0 
L 538 0 
L 538 3500 
L 1656 3500 
L 1656 2988 
Q 1909 3294 2193 3439 
Q 2478 3584 2822 3584 
Q 3428 3584 3742 3212 
Q 4056 2841 4056 2131 
z
" transform="scale(0.015625)"/>
       <path id="DejaVuSans-Bold-31" d="M 750 831 
L 1813 831 
L 1813 3847 
L 722 3622 
L 722 4441 
L 1806 4666 
L 2950 4666 
L 2950 831 
L 4013 831 
L 4013 0 
L 750 0 
L 750 831 
z
" transform="scale(0.015625)"/>
       <path id="DejaVuSans-Bold-34" d="M 2356 3675 
L 1038 1722 
L 2356 1722 
L 2356 3675 
z
M 2156 4666 
L 3494 4666 
L 3494 1722 
L 4159 1722 
L 4159 850 
L 3494 850 
L 3494 0 
L 2356 0 
L 2356 850 
L 288 850 
L 288 1881 
L 2156 4666 
z
" transform="scale(0.015625)"/>
      </defs>
      <use xlink:href="#DejaVuSans-Bold-4d"/>
      <use xlink:href="#DejaVuSans-Bold-65" transform="translate(99.511719 0)"/>
      <use xlink:href="#DejaVuSans-Bold-61" transform="translate(167.333984 0)"/>
      <use xlink:href="#DejaVuSans-Bold-6e" transform="translate(234.814453 0)"/>
      <use xlink:href="#DejaVuSans-Bold-20" transform="translate(306.005859 0)"/>
      <use xlink:href="#DejaVuSans-Bold-3d" transform="translate(340.820312 0)"/>
      <use xlink:href="#DejaVuSans-Bold-20" transform="translate(424.609375 0)"/>
      <use xlink:href="#DejaVuSans-Bold-30" transform="translate(459.423828 0)"/>
      <use xlink:href="#DejaVuSans-Bold-2e" transform="translate(529.003906 0)"/>
      <use xlink:href="#DejaVuSans-Bold-30" transform="translate(566.992188 0)"/>
      <use xlink:href="#DejaVuSans-Bold-31" transform="translate(636.572266 0)"/>
      <use xlink:href="#DejaVuSans-Bold-34" transform="translate(706.152344 0)"/>
      <use xlink:href="#DejaVuSans-Bold-38" transform="translate(775.732422 0)"/>
     </g>
    </g>
   </g>
  </g>
  <g id="text_19">
   <!-- Absolute errors -->
   <g transform="translate(684.709375 67.9875) scale(0.8 -0.8)">
    <defs>
     <path id="DejaVuSans-Bold-41" d="M 3419 850 
L 1538 850 
L 1241 0 
L 31 0 
L 1759 4666 
L 3194 4666 
L 4922 0 
L 3713 0 
L 3419 850 
z
M 1838 1716 
L 3116 1716 
L 2478 3572 
L 1838 1716 
z
" transform="scale(0.015625)"/>
     <path id="DejaVuSans-Bold-62" d="M 2400 722 
Q 2759 722 2948 984 
Q 3138 1247 3138 1747 
Q 3138 2247 2948 2509 
Q 2759 2772 2400 2772 
Q 2041 2772 1848 2508 
Q 1656 2244 1656 1747 
Q 1656 1250 1848 986 
Q 2041 722 2400 722 
z
M 1656 2988 
Q 1888 3294 2169 3439 
Q 2450 3584 2816 3584 
Q 3463 3584 3878 3070 
Q 4294 2556 4294 1747 
Q 4294 938 3878 423 
Q 3463 -91 2816 -91 
Q 2450 -91 2169 54 
Q 1888 200 1656 506 
L 1656 0 
L 538 0 
L 538 4863 
L 1656 4863 
L 1656 2988 
z
" transform="scale(0.015625)"/>
     <path id="DejaVuSans-Bold-6c" d="M 538 4863 
L 1656 4863 
L 1656 0 
L 538 0 
L 538 4863 
z
" transform="scale(0.015625)"/>
     <path id="DejaVuSans-Bold-75" d="M 500 1363 
L 500 3500 
L 1625 3500 
L 1625 3150 
Q 1625 2866 1622 2436 
Q 1619 2006 1619 1863 
Q 1619 1441 1641 1255 
Q 1663 1069 1716 984 
Q 1784 875 1895 815 
Q 2006 756 2150 756 
Q 2500 756 2700 1025 
Q 2900 1294 2900 1772 
L 2900 3500 
L 4019 3500 
L 4019 0 
L 2900 0 
L 2900 506 
Q 2647 200 2364 54 
Q 2081 -91 1741 -91 
Q 1134 -91 817 281 
Q 500 653 500 1363 
z
" transform="scale(0.015625)"/>
     <path id="DejaVuSans-Bold-74" d="M 1759 4494 
L 1759 3500 
L 2913 3500 
L 2913 2700 
L 1759 2700 
L 1759 1216 
Q 1759 972 1856 886 
Q 1953 800 2241 800 
L 2816 800 
L 2816 0 
L 1856 0 
Q 1194 0 917 276 
Q 641 553 641 1216 
L 641 2700 
L 84 2700 
L 84 3500 
L 641 3500 
L 641 4494 
L 1759 4494 
z
" transform="scale(0.015625)"/>
    </defs>
    <use xlink:href="#DejaVuSans-Bold-41"/>
    <use xlink:href="#DejaVuSans-Bold-62" transform="translate(77.392578 0)"/>
    <use xlink:href="#DejaVuSans-Bold-73" transform="translate(148.974609 0)"/>
    <use xlink:href="#DejaVuSans-Bold-6f" transform="translate(208.496094 0)"/>
    <use xlink:href="#DejaVuSans-Bold-6c" transform="translate(277.197266 0)"/>
    <use xlink:href="#DejaVuSans-Bold-75" transform="translate(311.474609 0)"/>
    <use xlink:href="#DejaVuSans-Bold-74" transform="translate(382.666016 0)"/>
    <use xlink:href="#DejaVuSans-Bold-65" transform="translate(430.46875 0)"/>
    <use xlink:href="#DejaVuSans-Bold-20" transform="translate(498.291016 0)"/>
    <use xlink:href="#DejaVuSans-Bold-65" transform="translate(533.105469 0)"/>
    <use xlink:href="#DejaVuSans-Bold-72" transform="translate(600.927734 0)"/>
    <use xlink:href="#DejaVuSans-Bold-72" transform="translate(650.244141 0)"/>
    <use xlink:href="#DejaVuSans-Bold-6f" transform="translate(699.560547 0)"/>
    <use xlink:href="#DejaVuSans-Bold-72" transform="translate(768.261719 0)"/>
    <use xlink:href="#DejaVuSans-Bold-73" transform="translate(817.578125 0)"/>
   </g>
  </g>
 </g>
 <defs>
  <clipPath id="p00a94eac3c">
   <rect x="225.540625" y="151.2" width="1674" height="1108.8"/>
  </clipPath>
 </defs>
</svg>
