<?xml version="1.0" encoding="utf-8" standalone="no"?>
<!DOCTYPE svg PUBLIC "-//W3C//DTD SVG 1.1//EN"
  "http://www.w3.org/Graphics/SVG/1.1/DTD/svg11.dtd">
<svg xmlns:xlink="http://www.w3.org/1999/xlink" width="2081.989375pt" height="1514.14875pt" viewBox="0 0 2081.989375 1514.14875" xmlns="http://www.w3.org/2000/svg" version="1.1">
 <metadata>
  <rdf:RDF xmlns:dc="http://purl.org/dc/elements/1.1/" xmlns:cc="http://creativecommons.org/ns#" xmlns:rdf="http://www.w3.org/1999/02/22-rdf-syntax-ns#">
   <cc:Work>
    <dc:type rdf:resource="http://purl.org/dc/dcmitype/StillImage"/>
    <dc:date>2026-06-15T14:10:04.738421</dc:date>
    <dc:format>image/svg+xml</dc:format>
    <dc:creator>
     <cc:Agent>
      <dc:title>Matplotlib v3.10.8, https://matplotlib.org/</dc:title>
     </cc:Agent>
    </dc:creator>
   </cc:Work>
  </rdf:RDF>
 </metadata>
 <defs>
  <style type="text/css">*{stroke-linejoin: round; stroke-linecap: butt}</style>
 </defs>
 <g id="figure_1">
  <g id="patch_1">
   <path d="M 0 1514.14875 
L 2081.989375 1514.14875 
L 2081.989375 0 
L 0 0 
z
" style="fill: #ffffff"/>
  </g>
  <g id="axes_1">
   <g id="patch_2">
    <path d="M 225.540625 1260 
L 1899.540625 1260 
L 1899.540625 151.2 
L 225.540625 151.2 
z
" style="fill: #ffffff"/>
   </g>
   <g id="matplotlib.axis_1">
    <g id="xtick_1">
     <g id="line2d_1">
      <path d="M 301.631534 1260 
L 301.631534 151.2 
" clip-path="url(#pad0539775b)" style="fill: none; stroke: #808080; stroke-opacity: 0.5; stroke-width: 4; stroke-linecap: square"/>
     </g>
     <g id="line2d_2">
      <defs>
       <path id="m36bbf8e1b7" d="M 0 0 
L 0 3.5 
" style="stroke: #000000; stroke-width: 7"/>
      </defs>
      <g>
       <use xlink:href="#m36bbf8e1b7" x="301.631534" y="1260" style="stroke: #000000; stroke-width: 7"/>
      </g>
     </g>
     <g id="text_1">
      <!-- 0.0 -->
      <g transform="translate(253.922159 1312.590625) scale(0.6 -0.6)">
       <defs>
        <path id="DejaVuSans-30" d="M 2034 4250 
Q 1547 4250 1301 3770 
Q 1056 3291 1056 2328 
Q 1056 1369 1301 889 
Q 1547 409 2034 409 
Q 2525 409 2770 889 
Q 3016 1369 3016 2328 
Q 3016 3291 2770 3770 
Q 2525 4250 2034 4250 
z
M 2034 4750 
Q 2819 4750 3233 4129 
Q 3647 3509 3647 2328 
Q 3647 1150 3233 529 
Q 2819 -91 2034 -91 
Q 1250 -91 836 529 
Q 422 1150 422 2328 
Q 422 3509 836 4129 
Q 1250 4750 2034 4750 
z
" transform="scale(0.015625)"/>
        <path id="DejaVuSans-2e" d="M 684 794 
L 1344 794 
L 1344 0 
L 684 0 
L 684 794 
z
" transform="scale(0.015625)"/>
       </defs>
       <use xlink:href="#DejaVuSans-30"/>
       <use xlink:href="#DejaVuSans-2e" transform="translate(63.623047 0)"/>
       <use xlink:href="#DejaVuSans-30" transform="translate(95.410156 0)"/>
      </g>
     </g>
    </g>
    <g id="xtick_2">
     <g id="line2d_3">
      <path d="M 606.299839 1260 
L 606.299839 151.2 
" clip-path="url(#pad0539775b)" style="fill: none; stroke: #808080; stroke-opacity: 0.5; stroke-width: 4; stroke-linecap: square"/>
     </g>
     <g id="line2d_4">
      <g>
       <use xlink:href="#m36bbf8e1b7" x="606.299839" y="1260" style="stroke: #000000; stroke-width: 7"/>
      </g>
     </g>
     <g id="text_2">
      <!-- 0.2 -->
      <g transform="translate(558.590464 1312.590625) scale(0.6 -0.6)">
       <defs>
        <path id="DejaVuSans-32" d="M 1228 531 
L 3431 531 
L 3431 0 
L 469 0 
L 469 531 
Q 828 903 1448 1529 
Q 2069 2156 2228 2338 
Q 2531 2678 2651 2914 
Q 2772 3150 2772 3378 
Q 2772 3750 2511 3984 
Q 2250 4219 1831 4219 
Q 1534 4219 1204 4116 
Q 875 4013 500 3803 
L 500 4441 
Q 881 4594 1212 4672 
Q 1544 4750 1819 4750 
Q 2544 4750 2975 4387 
Q 3406 4025 3406 3419 
Q 3406 3131 3298 2873 
Q 3191 2616 2906 2266 
Q 2828 2175 2409 1742 
Q 1991 1309 1228 531 
z
" transform="scale(0.015625)"/>
       </defs>
       <use xlink:href="#DejaVuSans-30"/>
       <use xlink:href="#DejaVuSans-2e" transform="translate(63.623047 0)"/>
       <use xlink:href="#DejaVuSans-32" transform="translate(95.410156 0)"/>
      </g>
     </g>
    </g>
    <g id="xtick_3">
     <g id="line2d_5">
      <path d="M 910.968143 1260 
L 910.968143 151.2 
" clip-path="url(#pad0539775b)" style="fill: none; stroke: #808080; stroke-opacity: 0.5; stroke-width: 4; stroke-linecap: square"/>
     </g>
     <g id="line2d_6">
      <g>
       <use xlink:href="#m36bbf8e1b7" x="910.968143" y="1260" style="stroke: #000000; stroke-width: 7"/>
      </g>
     </g>
     <g id="text_3">
      <!-- 0.4 -->
      <g transform="translate(863.258768 1312.590625) scale(0.6 -0.6)">
       <defs>
        <path id="DejaVuSans-34" d="M 2419 4116 
L 825 1625 
L 2419 1625 
L 2419 4116 
z
M 2253 4666 
L 3047 4666 
L 3047 1625 
L 3713 1625 
L 3713 1100 
L 3047 1100 
L 3047 0 
L 2419 0 
L 2419 1100 
L 313 1100 
L 313 1709 
L 2253 4666 
z
" transform="scale(0.015625)"/>
       </defs>
       <use xlink:href="#DejaVuSans-30"/>
       <use xlink:href="#DejaVuSans-2e" transform="translate(63.623047 0)"/>
       <use xlink:href="#DejaVuSans-34" transform="translate(95.410156 0)"/>
      </g>
     </g>
    </g>
    <g id="xtick_4">
     <g id="line2d_7">
      <path d="M 1215.636448 1260 
L 1215.636448 151.2 
" clip-path="url(#pad0539775b)" style="fill: none; stroke: #808080; stroke-opacity: 0.5; stroke-width: 4; stroke-linecap: square"/>
     </g>
     <g id="line2d_8">
      <g>
       <use xlink:href="#m36bbf8e1b7" x="1215.636448" y="1260" style="stroke: #000000; stroke-width: 7"/>
      </g>
     </g>
     <g id="text_4">
      <!-- 0.6 -->
      <g transform="translate(1167.927073 1312.590625) scale(0.6 -0.6)">
       <defs>
        <path id="DejaVuSans-36" d="M 2113 2584 
Q 1688 2584 1439 2293 
Q 1191 2003 1191 1497 
Q 1191 994 1439 701 
Q 1688 409 2113 409 
Q 2538 409 2786 701 
Q 3034 994 3034 1497 
Q 3034 2003 2786 2293 
Q 2538 2584 2113 2584 
z
M 3366 4563 
L 3366 3988 
Q 3128 4100 2886 4159 
Q 2644 4219 2406 4219 
Q 1781 4219 1451 3797 
Q 1122 3375 1075 2522 
Q 1259 2794 1537 2939 
Q 1816 3084 2150 3084 
Q 2853 3084 3261 2657 
Q 3669 2231 3669 1497 
Q 3669 778 3244 343 
Q 2819 -91 2113 -91 
Q 1303 -91 875 529 
Q 447 1150 447 2328 
Q 447 3434 972 4092 
Q 1497 4750 2381 4750 
Q 2619 4750 2861 4703 
Q 3103 4656 3366 4563 
z
" transform="scale(0.015625)"/>
       </defs>
       <use xlink:href="#DejaVuSans-30"/>
       <use xlink:href="#DejaVuSans-2e" transform="translate(63.623047 0)"/>
       <use xlink:href="#DejaVuSans-36" transform="translate(95.410156 0)"/>
      </g>
     </g>
    </g>
    <g id="xtick_5">
     <g id="line2d_9">
      <path d="M 1520.304753 1260 
L 1520.304753 151.2 
" clip-path="url(#pad0539775b)" style="fill: none; stroke: #808080; stroke-opacity: 0.5; stroke-width: 4; stroke-linecap: square"/>
     </g>
     <g id="line2d_10">
      <g>
       <use xlink:href="#m36bbf8e1b7" x="1520.304753" y="1260" style="stroke: #000000; stroke-width: 7"/>
      </g>
     </g>
     <g id="text_5">
      <!-- 0.8 -->
      <g transform="translate(1472.595378 1312.590625) scale(0.6 -0.6)">
       <defs>
        <path id="DejaVuSans-38" d="M 2034 2216 
Q 1584 2216 1326 1975 
Q 1069 1734 1069 1313 
Q 1069 891 1326 650 
Q 1584 409 2034 409 
Q 2484 409 2743 651 
Q 3003 894 3003 1313 
Q 3003 1734 2745 1975 
Q 2488 2216 2034 2216 
z
M 1403 2484 
Q 997 2584 770 2862 
Q 544 3141 544 3541 
Q 544 4100 942 4425 
Q 1341 4750 2034 4750 
Q 2731 4750 3128 4425 
Q 3525 4100 3525 3541 
Q 3525 3141 3298 2862 
Q 3072 2584 2669 2484 
Q 3125 2378 3379 2068 
Q 3634 1759 3634 1313 
Q 3634 634 3220 271 
Q 2806 -91 2034 -91 
Q 1263 -91 848 271 
Q 434 634 434 1313 
Q 434 1759 690 2068 
Q 947 2378 1403 2484 
z
M 1172 3481 
Q 1172 3119 1398 2916 
Q 1625 2713 2034 2713 
Q 2441 2713 2670 2916 
Q 2900 3119 2900 3481 
Q 2900 3844 2670 4047 
Q 2441 4250 2034 4250 
Q 1625 4250 1398 4047 
Q 1172 3844 1172 3481 
z
" transform="scale(0.015625)"/>
       </defs>
       <use xlink:href="#DejaVuSans-30"/>
       <use xlink:href="#DejaVuSans-2e" transform="translate(63.623047 0)"/>
       <use xlink:href="#DejaVuSans-38" transform="translate(95.410156 0)"/>
      </g>
     </g>
    </g>
    <g id="xtick_6">
     <g id="line2d_11">
      <path d="M 1824.973057 1260 
L 1824.973057 151.2 
" clip-path="url(#pad0539775b)" style="fill: none; stroke: #808080; stroke-opacity: 0.5; stroke-width: 4; stroke-linecap: square"/>
     </g>
     <g id="line2d_12">
      <g>
       <use xlink:href="#m36bbf8e1b7" x="1824.973057" y="1260" style="stroke: #000000; stroke-width: 7"/>
      </g>
     </g>
     <g id="text_6">
      <!-- 1.0 -->
      <g transform="translate(1777.263682 1312.590625) scale(0.6 -0.6)">
       <defs>
        <path id="DejaVuSans-31" d="M 794 531 
L 1825 531 
L 1825 4091 
L 703 3866 
L 703 4441 
L 1819 4666 
L 2450 4666 
L 2450 531 
L 3481 531 
L 3481 0 
L 794 0 
L 794 531 
z
" transform="scale(0.015625)"/>
       </defs>
       <use xlink:href="#DejaVuSans-31"/>
       <use xlink:href="#DejaVuSans-2e" transform="translate(63.623047 0)"/>
       <use xlink:href="#DejaVuSans-30" transform="translate(95.410156 0)"/>
      </g>
     </g>
    </g>
    <g id="text_7">
     <!-- Input -->
     <g transform="translate(971.9125 1382.257812) scale(0.7 -0.7)">
      <defs>
       <path id="DejaVuSans-49" d="M 628 4666 
L 1259 4666 
L 1259 0 
L 628 0 
L 628 4666 
z
" transform="scale(0.015625)"/>
       <path id="DejaVuSans-6e" d="M 3513 2113 
L 3513 0 
L 2938 0 
L 2938 2094 
Q 2938 2591 2744 2837 
Q 2550 3084 2163 3084 
Q 1697 3084 1428 2787 
Q 1159 2491 1159 1978 
L 1159 0 
L 581 0 
L 581 3500 
L 1159 3500 
L 1159 2956 
Q 1366 3272 1645 3428 
Q 1925 3584 2291 3584 
Q 2894 3584 3203 3211 
Q 3513 2838 3513 2113 
z
" transform="scale(0.015625)"/>
       <path id="DejaVuSans-70" d="M 1159 525 
L 1159 -1331 
L 581 -1331 
L 581 3500 
L 1159 3500 
L 1159 2969 
Q 1341 3281 1617 3432 
Q 1894 3584 2278 3584 
Q 2916 3584 3314 3078 
Q 3713 2572 3713 1747 
Q 3713 922 3314 415 
Q 2916 -91 2278 -91 
Q 1894 -91 1617 61 
Q 1341 213 1159 525 
z
M 3116 1747 
Q 3116 2381 2855 2742 
Q 2594 3103 2138 3103 
Q 1681 3103 1420 2742 
Q 1159 2381 1159 1747 
Q 1159 1113 1420 752 
Q 1681 391 2138 391 
Q 2594 391 2855 752 
Q 3116 1113 3116 1747 
z
" transform="scale(0.015625)"/>
       <path id="DejaVuSans-75" d="M 544 1381 
L 544 3500 
L 1119 3500 
L 1119 1403 
Q 1119 906 1312 657 
Q 1506 409 1894 409 
Q 2359 409 2629 706 
Q 2900 1003 2900 1516 
L 2900 3500 
L 3475 3500 
L 3475 0 
L 2900 0 
L 2900 538 
Q 2691 219 2414 64 
Q 2138 -91 1772 -91 
Q 1169 -91 856 284 
Q 544 659 544 1381 
z
M 1991 3584 
L 1991 3584 
z
" transform="scale(0.015625)"/>
       <path id="DejaVuSans-74" d="M 1172 4494 
L 1172 3500 
L 2356 3500 
L 2356 3053 
L 1172 3053 
L 1172 1153 
Q 1172 725 1289 603 
Q 1406 481 1766 481 
L 2356 481 
L 2356 0 
L 1766 0 
Q 1100 0 847 248 
Q 594 497 594 1153 
L 594 3053 
L 172 3053 
L 172 3500 
L 594 3500 
L 594 4494 
L 1172 4494 
z
" transform="scale(0.015625)"/>
      </defs>
      <use xlink:href="#DejaVuSans-49"/>
      <use xlink:href="#DejaVuSans-6e" transform="translate(29.492188 0)"/>
      <use xlink:href="#DejaVuSans-70" transform="translate(92.871094 0)"/>
      <use xlink:href="#DejaVuSans-75" transform="translate(156.347656 0)"/>
      <use xlink:href="#DejaVuSans-74" transform="translate(219.726562 0)"/>
     </g>
    </g>
   </g>
   <g id="matplotlib.axis_2">
    <g id="ytick_1">
     <g id="line2d_13">
      <path d="M 225.540625 1209.648082 
L 1899.540625 1209.648082 
" clip-path="url(#pad0539775b)" style="fill: none; stroke: #808080; stroke-opacity: 0.5; stroke-width: 4; stroke-linecap: square"/>
     </g>
     <g id="line2d_14">
      <defs>
       <path id="m282b60cea4" d="M 0 0 
L -3.5 0 
" style="stroke: #000000; stroke-width: 7"/>
      </defs>
      <g>
       <use xlink:href="#m282b60cea4" x="225.540625" y="1209.648082" style="stroke: #000000; stroke-width: 7"/>
      </g>
     </g>
     <g id="text_8">
      <!-- 0.00 -->
      <g transform="translate(84.946875 1232.443395) scale(0.6 -0.6)">
       <use xlink:href="#DejaVuSans-30"/>
       <use xlink:href="#DejaVuSans-2e" transform="translate(63.623047 0)"/>
       <use xlink:href="#DejaVuSans-30" transform="translate(95.410156 0)"/>
       <use xlink:href="#DejaVuSans-30" transform="translate(159.033203 0)"/>
      </g>
     </g>
    </g>
    <g id="ytick_2">
     <g id="line2d_15">
      <path d="M 225.540625 1085.580626 
L 1899.540625 1085.580626 
" clip-path="url(#pad0539775b)" style="fill: none; stroke: #808080; stroke-opacity: 0.5; stroke-width: 4; stroke-linecap: square"/>
     </g>
     <g id="line2d_16">
      <g>
       <use xlink:href="#m282b60cea4" x="225.540625" y="1085.580626" style="stroke: #000000; stroke-width: 7"/>
      </g>
     </g>
     <g id="text_9">
      <!-- 0.05 -->
      <g transform="translate(84.946875 1108.375939) scale(0.6 -0.6)">
       <defs>
        <path id="DejaVuSans-35" d="M 691 4666 
L 3169 4666 
L 3169 4134 
L 1269 4134 
L 1269 2991 
Q 1406 3038 1543 3061 
Q 1681 3084 1819 3084 
Q 2600 3084 3056 2656 
Q 3513 2228 3513 1497 
Q 3513 744 3044 326 
Q 2575 -91 1722 -91 
Q 1428 -91 1123 -41 
Q 819 9 494 109 
L 494 744 
Q 775 591 1075 516 
Q 1375 441 1709 441 
Q 2250 441 2565 725 
Q 2881 1009 2881 1497 
Q 2881 1984 2565 2268 
Q 2250 2553 1709 2553 
Q 1456 2553 1204 2497 
Q 953 2441 691 2322 
L 691 4666 
z
" transform="scale(0.015625)"/>
       </defs>
       <use xlink:href="#DejaVuSans-30"/>
       <use xlink:href="#DejaVuSans-2e" transform="translate(63.623047 0)"/>
       <use xlink:href="#DejaVuSans-30" transform="translate(95.410156 0)"/>
       <use xlink:href="#DejaVuSans-35" transform="translate(159.033203 0)"/>
      </g>
     </g>
    </g>
    <g id="ytick_3">
     <g id="line2d_17">
      <path d="M 225.540625 961.51317 
L 1899.540625 961.51317 
" clip-path="url(#pad0539775b)" style="fill: none; stroke: #808080; stroke-opacity: 0.5; stroke-width: 4; stroke-linecap: square"/>
     </g>
     <g id="line2d_18">
      <g>
       <use xlink:href="#m282b60cea4" x="225.540625" y="961.51317" style="stroke: #000000; stroke-width: 7"/>
      </g>
     </g>
     <g id="text_10">
      <!-- 0.10 -->
      <g transform="translate(84.946875 984.308482) scale(0.6 -0.6)">
       <use xlink:href="#DejaVuSans-30"/>
       <use xlink:href="#DejaVuSans-2e" transform="translate(63.623047 0)"/>
       <use xlink:href="#DejaVuSans-31" transform="translate(95.410156 0)"/>
       <use xlink:href="#DejaVuSans-30" transform="translate(159.033203 0)"/>
      </g>
     </g>
    </g>
    <g id="ytick_4">
     <g id="line2d_19">
      <path d="M 225.540625 837.445714 
L 1899.540625 837.445714 
" clip-path="url(#pad0539775b)" style="fill: none; stroke: #808080; stroke-opacity: 0.5; stroke-width: 4; stroke-linecap: square"/>
     </g>
     <g id="line2d_20">
      <g>
       <use xlink:href="#m282b60cea4" x="225.540625" y="837.445714" style="stroke: #000000; stroke-width: 7"/>
      </g>
     </g>
     <g id="text_11">
      <!-- 0.15 -->
      <g transform="translate(84.946875 860.241026) scale(0.6 -0.6)">
       <use xlink:href="#DejaVuSans-30"/>
       <use xlink:href="#DejaVuSans-2e" transform="translate(63.623047 0)"/>
       <use xlink:href="#DejaVuSans-31" transform="translate(95.410156 0)"/>
       <use xlink:href="#DejaVuSans-35" transform="translate(159.033203 0)"/>
      </g>
     </g>
    </g>
    <g id="ytick_5">
     <g id="line2d_21">
      <path d="M 225.540625 713.378257 
L 1899.540625 713.378257 
" clip-path="url(#pad0539775b)" style="fill: none; stroke: #808080; stroke-opacity: 0.5; stroke-width: 4; stroke-linecap: square"/>
     </g>
     <g id="line2d_22">
      <g>
       <use xlink:href="#m282b60cea4" x="225.540625" y="713.378257" style="stroke: #000000; stroke-width: 7"/>
      </g>
     </g>
     <g id="text_12">
      <!-- 0.20 -->
      <g transform="translate(84.946875 736.17357) scale(0.6 -0.6)">
       <use xlink:href="#DejaVuSans-30"/>
       <use xlink:href="#DejaVuSans-2e" transform="translate(63.623047 0)"/>
       <use xlink:href="#DejaVuSans-32" transform="translate(95.410156 0)"/>
       <use xlink:href="#DejaVuSans-30" transform="translate(159.033203 0)"/>
      </g>
     </g>
    </g>
    <g id="ytick_6">
     <g id="line2d_23">
      <path d="M 225.540625 589.310801 
L 1899.540625 589.310801 
" clip-path="url(#pad0539775b)" style="fill: none; stroke: #808080; stroke-opacity: 0.5; stroke-width: 4; stroke-linecap: square"/>
     </g>
     <g id="line2d_24">
      <g>
       <use xlink:href="#m282b60cea4" x="225.540625" y="589.310801" style="stroke: #000000; stroke-width: 7"/>
      </g>
     </g>
     <g id="text_13">
      <!-- 0.25 -->
      <g transform="translate(84.946875 612.106113) scale(0.6 -0.6)">
       <use xlink:href="#DejaVuSans-30"/>
       <use xlink:href="#DejaVuSans-2e" transform="translate(63.623047 0)"/>
       <use xlink:href="#DejaVuSans-32" transform="translate(95.410156 0)"/>
       <use xlink:href="#DejaVuSans-35" transform="translate(159.033203 0)"/>
      </g>
     </g>
    </g>
    <g id="ytick_7">
     <g id="line2d_25">
      <path d="M 225.540625 465.243345 
L 1899.540625 465.243345 
" clip-path="url(#pad0539775b)" style="fill: none; stroke: #808080; stroke-opacity: 0.5; stroke-width: 4; stroke-linecap: square"/>
     </g>
     <g id="line2d_26">
      <g>
       <use xlink:href="#m282b60cea4" x="225.540625" y="465.243345" style="stroke: #000000; stroke-width: 7"/>
      </g>
     </g>
     <g id="text_14">
      <!-- 0.30 -->
      <g transform="translate(84.946875 488.038657) scale(0.6 -0.6)">
       <defs>
        <path id="DejaVuSans-33" d="M 2597 2516 
Q 3050 2419 3304 2112 
Q 3559 1806 3559 1356 
Q 3559 666 3084 287 
Q 2609 -91 1734 -91 
Q 1441 -91 1130 -33 
Q 819 25 488 141 
L 488 750 
Q 750 597 1062 519 
Q 1375 441 1716 441 
Q 2309 441 2620 675 
Q 2931 909 2931 1356 
Q 2931 1769 2642 2001 
Q 2353 2234 1838 2234 
L 1294 2234 
L 1294 2753 
L 1863 2753 
Q 2328 2753 2575 2939 
Q 2822 3125 2822 3475 
Q 2822 3834 2567 4026 
Q 2313 4219 1838 4219 
Q 1578 4219 1281 4162 
Q 984 4106 628 3988 
L 628 4550 
Q 988 4650 1302 4700 
Q 1616 4750 1894 4750 
Q 2613 4750 3031 4423 
Q 3450 4097 3450 3541 
Q 3450 3153 3228 2886 
Q 3006 2619 2597 2516 
z
" transform="scale(0.015625)"/>
       </defs>
       <use xlink:href="#DejaVuSans-30"/>
       <use xlink:href="#DejaVuSans-2e" transform="translate(63.623047 0)"/>
       <use xlink:href="#DejaVuSans-33" transform="translate(95.410156 0)"/>
       <use xlink:href="#DejaVuSans-30" transform="translate(159.033203 0)"/>
      </g>
     </g>
    </g>
    <g id="ytick_8">
     <g id="line2d_27">
      <path d="M 225.540625 341.175888 
L 1899.540625 341.175888 
" clip-path="url(#pad0539775b)" style="fill: none; stroke: #808080; stroke-opacity: 0.5; stroke-width: 4; stroke-linecap: square"/>
     </g>
     <g id="line2d_28">
      <g>
       <use xlink:href="#m282b60cea4" x="225.540625" y="341.175888" style="stroke: #000000; stroke-width: 7"/>
      </g>
     </g>
     <g id="text_15">
      <!-- 0.35 -->
      <g transform="translate(84.946875 363.971201) scale(0.6 -0.6)">
       <use xlink:href="#DejaVuSans-30"/>
       <use xlink:href="#DejaVuSans-2e" transform="translate(63.623047 0)"/>
       <use xlink:href="#DejaVuSans-33" transform="translate(95.410156 0)"/>
       <use xlink:href="#DejaVuSans-35" transform="translate(159.033203 0)"/>
      </g>
     </g>
    </g>
    <g id="ytick_9">
     <g id="line2d_29">
      <path d="M 225.540625 217.108432 
L 1899.540625 217.108432 
" clip-path="url(#pad0539775b)" style="fill: none; stroke: #808080; stroke-opacity: 0.5; stroke-width: 4; stroke-linecap: square"/>
     </g>
     <g id="line2d_30">
      <g>
       <use xlink:href="#m282b60cea4" x="225.540625" y="217.108432" style="stroke: #000000; stroke-width: 7"/>
      </g>
     </g>
     <g id="text_16">
      <!-- 0.40 -->
      <g transform="translate(84.946875 239.903745) scale(0.6 -0.6)">
       <use xlink:href="#DejaVuSans-30"/>
       <use xlink:href="#DejaVuSans-2e" transform="translate(63.623047 0)"/>
       <use xlink:href="#DejaVuSans-34" transform="translate(95.410156 0)"/>
       <use xlink:href="#DejaVuSans-30" transform="translate(159.033203 0)"/>
      </g>
     </g>
    </g>
    <g id="text_17">
     <!-- Error -->
     <g transform="translate(60.389062 790.896094) rotate(-90) scale(0.7 -0.7)">
      <defs>
       <path id="DejaVuSans-45" d="M 628 4666 
L 3578 4666 
L 3578 4134 
L 1259 4134 
L 1259 2753 
L 3481 2753 
L 3481 2222 
L 1259 2222 
L 1259 531 
L 3634 531 
L 3634 0 
L 628 0 
L 628 4666 
z
" transform="scale(0.015625)"/>
       <path id="DejaVuSans-72" d="M 2631 2963 
Q 2534 3019 2420 3045 
Q 2306 3072 2169 3072 
Q 1681 3072 1420 2755 
Q 1159 2438 1159 1844 
L 1159 0 
L 581 0 
L 581 3500 
L 1159 3500 
L 1159 2956 
Q 1341 3275 1631 3429 
Q 1922 3584 2338 3584 
Q 2397 3584 2469 3576 
Q 2541 3569 2628 3553 
L 2631 2963 
z
" transform="scale(0.015625)"/>
       <path id="DejaVuSans-6f" d="M 1959 3097 
Q 1497 3097 1228 2736 
Q 959 2375 959 1747 
Q 959 1119 1226 758 
Q 1494 397 1959 397 
Q 2419 397 2687 759 
Q 2956 1122 2956 1747 
Q 2956 2369 2687 2733 
Q 2419 3097 1959 3097 
z
M 1959 3584 
Q 2709 3584 3137 3096 
Q 3566 2609 3566 1747 
Q 3566 888 3137 398 
Q 2709 -91 1959 -91 
Q 1206 -91 779 398 
Q 353 888 353 1747 
Q 353 2609 779 3096 
Q 1206 3584 1959 3584 
z
" transform="scale(0.015625)"/>
      </defs>
      <use xlink:href="#DejaVuSans-45"/>
      <use xlink:href="#DejaVuSans-72" transform="translate(63.183594 0)"/>
      <use xlink:href="#DejaVuSans-72" transform="translate(102.546875 0)"/>
      <use xlink:href="#DejaVuSans-6f" transform="translate(141.410156 0)"/>
      <use xlink:href="#DejaVuSans-72" transform="translate(202.591797 0)"/>
     </g>
    </g>
   </g>
   <g id="line2d_31">
    <path d="M 301.631534 201.6 
L 303.154876 293.095798 
L 304.678217 287.471557 
L 307.7249 450.840147 
L 309.248242 526.174891 
L 310.771583 472.297205 
L 313.818266 610.395481 
L 315.341608 674.569245 
L 316.864949 659.030277 
L 319.911632 776.349831 
L 321.434974 831.213483 
L 322.958315 812.688324 
L 326.004998 913.874376 
L 327.52834 961.443763 
L 329.051682 907.751017 
L 332.098365 997.195768 
L 333.621706 1039.433767 
L 335.145048 1017.970513 
L 338.191731 1096.911533 
L 339.715072 1134.332486 
L 341.238414 1082.553107 
L 344.285097 1153.662565 
L 345.808438 1187.482996 
L 347.33178 1164.696375 
L 348.855121 1197.111315 
L 350.378463 1190.779072 
L 351.901804 1160.337307 
L 353.425146 1183.619662 
L 356.471829 1125.945664 
L 357.99517 1098.365768 
L 359.518512 1147.167088 
L 362.565195 1094.181314 
L 364.088537 1068.786283 
L 365.611878 1092.33027 
L 368.658561 1043.913118 
L 370.181903 1067.444181 
L 373.228586 1021.823855 
L 374.751927 999.88538 
L 376.275269 1046.006179 
L 379.321952 1003.582021 
L 380.845293 983.146954 
L 382.368635 1006.602463 
L 386.938659 948.475143 
L 388.462001 992.905291 
L 393.032025 938.467237 
L 394.555367 1031.16966 
L 399.125392 1091.496069 
L 400.648733 1071.341463 
L 405.218758 1127.468682 
L 406.742099 1087.974297 
L 411.312124 1140.715345 
L 412.835465 1120.324911 
L 417.40549 1169.627035 
L 418.928831 1149.098722 
L 423.498856 1195.281192 
L 425.022197 1156.920212 
L 428.068881 1186.295137 
L 429.592222 1165.734527 
L 434.162247 1207.536407 
L 435.685588 1169.851314 
L 440.255613 1209.451872 
L 441.778954 1188.812129 
L 443.302296 1201.474095 
L 444.825637 1205.38749 
L 446.348979 1193.175164 
L 447.87232 1205.410966 
L 449.395662 1201.945506 
L 452.442345 1178.693185 
L 453.965686 1203.785066 
L 455.489028 1204.167044 
L 458.535711 1182.065181 
L 460.059053 1202.821777 
L 464.629077 1171.214345 
L 466.152419 1192.025435 
L 470.722443 1162.132364 
L 472.245785 1198.240912 
L 476.815809 1169.775441 
L 478.339151 1190.629463 
L 482.909175 1163.679083 
L 484.432517 1199.381214 
L 489.002541 1173.701787 
L 493.572566 1149.263956 
L 495.095908 1170.281939 
L 499.665932 1147.126925 
L 501.189274 1182.463852 
L 505.759298 1160.395507 
L 507.28264 1181.47491 
L 511.852664 1160.568263 
L 513.376006 1181.704809 
L 517.94603 1161.903665 
L 519.469372 1196.890926 
L 524.039396 1178.038958 
L 525.562738 1199.263914 
L 530.132763 1181.426865 
L 531.656104 1203.054722 
L 533.179446 1208.802456 
L 534.702787 1204.841883 
L 536.226129 1199.284636 
L 537.74947 1198.676351 
L 540.796153 1209.445313 
L 542.319495 1204.602765 
L 543.842836 1193.280717 
L 548.412861 1208.39353 
L 549.936202 1173.719904 
L 554.506227 1188.035761 
L 556.029568 1166.480007 
L 559.076252 1175.539746 
L 560.599593 1153.92697 
L 565.169618 1166.810308 
L 566.692959 1132.178177 
L 571.262984 1144.318404 
L 572.786325 1122.528583 
L 577.35635 1133.882757 
L 578.879691 1099.218539 
L 583.449716 1109.860048 
L 584.973057 1039.369751 
L 589.543082 1030.588276 
L 591.066424 1053.053131 
L 595.636448 1044.912495 
L 597.15979 1080.047081 
L 601.729814 1072.494824 
L 603.253156 1095.140408 
L 607.82318 1088.209905 
L 609.346522 1110.963283 
L 613.916546 1104.644934 
L 615.439888 1139.943841 
L 618.486571 1136.059232 
L 620.009912 1159.002736 
L 624.579937 1153.695505 
L 626.103279 1189.132728 
L 630.673303 1184.398365 
L 632.196645 1207.596651 
L 635.243328 1204.783904 
L 636.766669 1203.456559 
L 638.290011 1192.498991 
L 641.336694 1194.917812 
L 642.860035 1196.049488 
L 644.383377 1160.274593 
L 647.43006 1162.31195 
L 648.953401 1163.253678 
L 650.476743 1139.611962 
L 653.523426 1141.257947 
L 655.046768 1142.005026 
L 656.570109 1118.199031 
L 659.616792 1119.455059 
L 661.140134 1120.008073 
L 662.663475 1083.790204 
L 665.710158 1084.661206 
L 667.2335 1085.02215 
L 668.756841 1060.867381 
L 671.803524 1061.347704 
L 673.326866 1061.513993 
L 674.850207 1024.942494 
L 677.89689 1025.032336 
L 679.420232 1025.003619 
L 680.943573 1110.533862 
L 683.990256 1110.242698 
L 685.513598 1122.259029 
L 688.560281 1121.690721 
L 690.083623 1121.337469 
L 691.606964 1133.176732 
L 694.653647 1132.245975 
L 696.176989 1131.712712 
L 697.70033 1155.630668 
L 700.747013 1154.351638 
L 702.270355 1153.645658 
L 703.793696 1165.156883 
L 706.840379 1163.532477 
L 708.363721 1162.654793 
L 709.887062 1174.011566 
L 714.457087 1171.002428 
L 715.980428 1182.211329 
L 720.550453 1178.704344 
L 722.073795 1202.092963 
L 726.643819 1198.116228 
L 728.167161 1209.054931 
L 732.737185 1204.598905 
L 734.260527 1203.887571 
L 738.830551 1208.815945 
L 740.353893 1198.129773 
L 744.923917 1203.524224 
L 746.447259 1180.508534 
L 749.493942 1184.351675 
L 751.017283 1173.856527 
L 755.587308 1180.014165 
L 757.11065 1169.627521 
L 761.680674 1176.23413 
L 763.204016 1165.951274 
L 767.77404 1173.002839 
L 769.297382 1162.819232 
L 773.867406 1170.312279 
L 775.390748 1183.074972 
L 779.960772 1174.895538 
L 781.484114 1184.808491 
L 786.054139 1176.177989 
L 787.57748 1185.999336 
L 792.147505 1176.919643 
L 793.670846 1199.496072 
L 798.240871 1190.01744 
L 799.764212 1199.683848 
L 804.334237 1189.760899 
L 805.857578 1199.347858 
L 808.904261 1192.47817 
L 810.427603 1202.012419 
L 814.997627 1191.326825 
L 816.520969 1205.401851 
L 818.044311 1209.050367 
L 819.567652 1206.555714 
L 821.090994 1202.823939 
L 822.614335 1207.060913 
L 824.137677 1208.439902 
L 827.18436 1200.723502 
L 828.707701 1209.226986 
L 830.231043 1206.126679 
L 833.277726 1198.114997 
L 834.801067 1207.398209 
L 839.371092 1195.000139 
L 840.894433 1201.630172 
L 842.417775 1205.845541 
L 843.941116 1209.192551 
L 845.464458 1204.891612 
L 846.987799 1205.21347 
L 848.511141 1209.576794 
L 851.557824 1200.863156 
L 853.081166 1209.294402 
L 854.604507 1205.489664 
L 857.65119 1196.334503 
L 859.174532 1205.423527 
L 863.744556 1191.305611 
L 865.267898 1200.347885 
L 869.837922 1185.776015 
L 871.361264 1182.685705 
L 874.407947 1192.492863 
L 875.931288 1183.433952 
L 880.501313 1198.528918 
L 882.024654 1189.505882 
L 886.594679 1205.055602 
L 888.118021 1181.801166 
L 892.688045 1197.717524 
L 894.211387 1188.726703 
L 898.781411 1205.103755 
L 900.304753 1196.139619 
L 903.351436 1207.320803 
L 904.874777 1206.313783 
L 906.398119 1204.042254 
L 907.92146 1209.530618 
L 910.968143 1197.940096 
L 912.491485 1197.650746 
L 915.538168 1209.39195 
L 917.06151 1203.96079 
L 918.584851 1206.399394 
L 920.108193 1206.891431 
L 923.154876 1194.732981 
L 924.678217 1203.65412 
L 929.248242 1185.004962 
L 930.771583 1193.913946 
L 935.341608 1174.772908 
L 936.864949 1199.054794 
L 939.911632 1186.093589 
L 941.434974 1195.038403 
L 946.004998 1175.174233 
L 947.52834 1184.115973 
L 952.098365 1163.745403 
L 953.621706 1172.686869 
L 958.191731 1151.80241 
L 959.715072 1160.746435 
L 964.285097 1139.340323 
L 965.808438 1125.246082 
L 970.378463 1145.924415 
L 971.901804 1136.540965 
L 976.471829 1157.718178 
L 977.99517 1148.310179 
L 982.565195 1169.993814 
L 984.088537 1143.783674 
L 988.658561 1165.82839 
L 990.181903 1156.309225 
L 994.751927 1178.871363 
L 996.275269 1169.315621 
L 999.321952 1184.649593 
L 1000.845293 1175.050332 
L 1005.415318 1198.495732 
L 1006.938659 1171.277507 
L 1011.508684 1195.09013 
L 1013.032025 1185.341807 
L 1017.60205 1209.6 
L 1019.125392 1199.894491 
L 1020.648733 1208.134696 
L 1022.172075 1202.860125 
L 1023.695416 1194.497244 
L 1025.218758 1204.356548 
L 1029.788782 1178.89363 
L 1031.312124 1207.349687 
L 1035.882148 1181.512626 
L 1037.40549 1191.565912 
L 1041.975514 1165.159134 
L 1043.498856 1175.285861 
L 1048.068881 1148.301033 
L 1049.592222 1158.506274 
L 1054.162247 1130.935112 
L 1055.685588 1141.224167 
L 1060.255613 1113.058478 
L 1061.778954 1096.823588 
L 1064.825637 1114.451867 
L 1066.348979 1103.235185 
L 1070.919003 1130.124822 
L 1072.442345 1118.78604 
L 1077.012369 1146.22389 
L 1078.535711 1134.756127 
L 1083.105736 1162.747919 
L 1084.629077 1130.075745 
L 1089.199102 1158.378571 
L 1090.722443 1146.546923 
L 1095.292468 1175.406856 
L 1096.815809 1163.421108 
L 1101.385834 1192.842405 
L 1102.909175 1180.694158 
L 1105.955858 1200.615248 
L 1107.4792 1208.615678 
L 1109.002541 1198.360913 
L 1110.525883 1208.475172 
L 1112.049225 1200.636332 
L 1113.572566 1190.3809 
L 1115.095908 1202.881086 
L 1119.665932 1171.756494 
L 1121.189274 1184.447067 
L 1125.759298 1152.750893 
L 1127.28264 1189.243598 
L 1130.329323 1168.004726 
L 1131.852664 1181.180085 
L 1136.422689 1148.868138 
L 1137.94603 1162.266991 
L 1142.516055 1129.395693 
L 1144.039396 1143.029995 
L 1148.609421 1109.602558 
L 1150.132763 1123.484913 
L 1154.702787 1089.506048 
L 1156.226129 1110.708009 
L 1160.796153 1142.497365 
L 1162.319495 1127.155111 
L 1166.889519 1159.411031 
L 1168.412861 1143.755111 
L 1172.982885 1176.466781 
L 1174.506227 1160.481443 
L 1179.076252 1193.636 
L 1180.599593 1149.787788 
L 1185.169618 1182.992799 
L 1186.692959 1166.170927 
L 1189.739642 1188.510312 
L 1191.262984 1171.369446 
L 1195.833008 1205.165429 
L 1197.35635 1187.625107 
L 1198.879691 1198.948426 
L 1200.403033 1208.961689 
L 1201.926374 1197.513064 
L 1203.449716 1203.823597 
L 1204.973057 1204.035486 
L 1208.01974 1180.97773 
L 1209.543082 1199.377048 
L 1214.113107 1164.573705 
L 1215.636448 1183.434388 
L 1220.206473 1148.354268 
L 1221.729814 1198.850629 
L 1226.299839 1163.965132 
L 1227.82318 1183.963626 
L 1232.393205 1148.883815 
L 1233.916546 1169.416527 
L 1238.486571 1134.185238 
L 1240.009912 1155.277307 
L 1244.579937 1119.941534 
L 1246.103279 1141.618966 
L 1250.673303 1106.230038 
L 1252.196645 1188.277398 
L 1253.719986 1199.565658 
L 1255.243328 1208.406579 
L 1256.766669 1187.610026 
L 1258.290011 1198.844111 
L 1259.813352 1209.185776 
L 1261.336694 1197.888366 
L 1262.860035 1197.461494 
L 1264.383377 1208.657898 
L 1265.906718 1199.414515 
L 1267.43006 1188.1646 
L 1268.953401 1206.4906 
L 1270.476743 1201.668434 
L 1273.523426 1179.329285 
L 1275.046768 1178.039644 
L 1278.093451 1199.840188 
L 1279.616792 1208.532978 
L 1281.140134 1184.484468 
L 1284.186817 1206.063531 
L 1285.710158 1202.429631 
L 1287.2335 1189.807048 
L 1288.756841 1200.458283 
L 1290.280183 1208.183144 
L 1291.803524 1197.526593 
L 1293.326866 1193.901173 
L 1294.850207 1204.392204 
L 1296.373549 1204.416369 
L 1297.89689 1193.934035 
L 1299.420232 1196.657057 
L 1300.943573 1206.959719 
L 1302.466915 1202.044571 
L 1303.990256 1191.765432 
L 1305.513598 1197.961873 
L 1307.036939 1208.046873 
L 1308.560281 1201.182813 
L 1310.083623 1191.136929 
L 1311.606964 1197.700422 
L 1313.130306 1207.53748 
L 1314.653647 1201.948235 
L 1316.176989 1192.166585 
L 1317.70033 1154.631637 
L 1320.747013 1173.394671 
L 1322.270355 1141.121893 
L 1326.840379 1168.391341 
L 1328.363721 1135.167938 
L 1332.933745 1161.418742 
L 1334.457087 1127.226118 
L 1339.027111 1152.36409 
L 1340.550453 1117.186484 
L 1345.120478 1141.118328 
L 1346.643819 1006.269369 
L 1351.213844 980.700918 
L 1352.737185 1016.924585 
L 1357.30721 992.869537 
L 1358.830551 1030.149037 
L 1363.400576 1007.707567 
L 1364.923917 1046.04806 
L 1369.493942 1025.314965 
L 1371.017283 1110.791555 
L 1375.587308 1092.187017 
L 1377.11065 1132.750107 
L 1380.157333 1121.447303 
L 1381.680674 1162.812206 
L 1384.727357 1152.505458 
L 1386.250699 1147.557907 
L 1387.77404 1189.940619 
L 1390.820723 1180.927874 
L 1392.344065 1176.637841 
L 1393.867406 1199.282147 
L 1396.914089 1206.968874 
L 1398.437431 1208.709451 
L 1399.960772 1166.248463 
L 1403.007455 1172.585912 
L 1404.530797 1175.52142 
L 1406.054139 1130.259724 
L 1409.100822 1135.234089 
L 1410.624163 1137.481988 
L 1412.147505 1043.117419 
L 1415.194188 1046.651292 
L 1416.717529 1048.179591 
L 1418.240871 1001.187684 
L 1419.764212 1002.367872 
L 1421.287554 1003.388141 
L 1422.810895 1004.247388 
L 1424.334237 956.505304 
L 1425.857578 957.028094 
L 1427.38092 957.390437 
L 1428.904261 957.591521 
L 1430.427603 909.166867 
L 1431.950944 909.04595 
L 1433.474286 908.765299 
L 1434.997627 908.324392 
L 1436.520969 859.291141 
L 1438.044311 858.545398 
L 1439.567652 857.641859 
L 1441.090994 856.580296 
L 1442.614335 323.595158 
L 1445.661018 321.409472 
L 1447.18436 464.851331 
L 1450.231043 461.690807 
L 1451.754384 459.917062 
L 1453.277726 554.110019 
L 1456.324409 549.688194 
L 1457.84775 547.275352 
L 1459.371092 688.130962 
L 1462.417775 682.204755 
L 1463.941116 679.02788 
L 1465.464458 818.203091 
L 1468.511141 810.629893 
L 1470.034482 806.61995 
L 1471.557824 896.74286 
L 1474.604507 887.593727 
L 1476.127849 882.793664 
L 1477.65119 1018.033073 
L 1480.697873 1007.023627 
L 1482.221215 1001.288851 
L 1483.744556 1134.205478 
L 1488.314581 1114.52739 
L 1489.837922 1199.175863 
L 1494.407947 1176.866637 
L 1495.931288 1114.562752 
L 1500.501313 1139.964753 
L 1502.024654 1059.522792 
L 1506.594679 1087.595388 
L 1508.118021 965.345947 
L 1511.164704 986.020516 
L 1512.688045 866.185587 
L 1517.25807 900.150587 
L 1518.781411 826.215108 
L 1523.351436 862.773487 
L 1524.874777 749.11597 
L 1529.444802 788.742238 
L 1530.968143 678.360397 
L 1535.538168 720.982243 
L 1537.06151 874.15594 
L 1541.631534 842.409614 
L 1543.154876 950.771212 
L 1547.7249 916.526028 
L 1549.248242 982.750448 
L 1553.818266 946.701201 
L 1555.341608 1048.72393 
L 1559.911632 1010.346593 
L 1561.434974 1109.093431 
L 1566.004998 1068.490001 
L 1567.52834 1127.622521 
L 1570.575023 1099.581585 
L 1572.098365 1192.692298 
L 1576.668389 1148.633767 
L 1578.191731 1180.757298 
L 1579.715072 1196.080522 
L 1581.238414 1207.898777 
L 1582.761755 1192.590944 
L 1584.285097 1173.973736 
L 1587.33178 1205.369461 
L 1588.855121 1198.257144 
L 1590.378463 1137.187325 
L 1594.948487 1185.869475 
L 1596.471829 1137.386192 
L 1601.041854 1186.916963 
L 1602.565195 1108.877397 
L 1607.13522 1159.748128 
L 1608.658561 1084.61307 
L 1613.228586 1136.683241 
L 1614.751927 1094.222934 
L 1619.321952 1146.749944 
L 1620.845293 1076.987588 
L 1625.415318 1130.448903 
L 1626.938659 1063.351814 
L 1636.078709 1171.10444 
L 1637.60205 1108.038753 
L 1642.172075 1162.137127 
L 1643.695416 1127.665475 
L 1648.265441 1181.705488 
L 1649.788782 1123.246848 
L 1654.358807 1177.68123 
L 1655.882148 1121.492038 
L 1660.452173 1176.215835 
L 1661.975514 1146.218412 
L 1666.545539 1200.619498 
L 1668.068881 1148.546429 
L 1672.638905 1203.058377 
L 1674.162247 1153.007976 
L 1678.732271 1207.544286 
L 1680.255613 1181.449609 
L 1681.778954 1199.576994 
L 1683.302296 1201.717031 
L 1684.825637 1183.840039 
L 1686.348979 1189.05575 
L 1687.87232 1207.14672 
L 1689.395662 1194.186449 
L 1690.919003 1176.351217 
L 1692.442345 1200.187865 
L 1697.012369 1146.932158 
L 1698.535711 1189.970625 
L 1701.582394 1154.493441 
L 1703.105736 1196.180091 
L 1707.67576 1143.056853 
L 1709.199102 1163.970685 
L 1713.769126 1111.602885 
L 1715.292468 1150.303898 
L 1719.862492 1098.315389 
L 1721.385834 1135.550725 
L 1725.955858 1083.985584 
L 1727.4792 930.199509 
L 1732.049225 989.192497 
L 1733.572566 957.291802 
L 1738.142591 1015.540965 
L 1739.665932 1001.446303 
L 1744.235957 1058.573436 
L 1745.759298 1028.911265 
L 1750.329323 1085.2585 
L 1751.852664 1056.699181 
L 1756.422689 1112.248215 
L 1757.94603 1099.984072 
L 1760.992713 1136.408536 
L 1762.516055 1109.636362 
L 1767.08608 1163.676287 
L 1768.609421 1137.878596 
L 1773.179446 1191.088878 
L 1774.702787 1180.327565 
L 1776.226129 1197.830339 
L 1777.74947 1204.10592 
L 1779.272812 1186.887788 
L 1780.796153 1208.336755 
L 1782.319495 1193.736089 
L 1785.366178 1159.710885 
L 1786.889519 1169.58755 
L 1791.459544 1119.448279 
L 1792.982885 1141.937857 
L 1797.55291 1092.626003 
L 1799.076252 1114.33088 
L 1803.646276 1065.845975 
L 1805.169618 1074.516194 
L 1809.739642 1027.104398 
L 1811.262984 1047.421353 
L 1815.833008 1000.822901 
L 1817.35635 1020.449445 
L 1823.449716 959.645407 
L 1823.449716 959.645407 
" clip-path="url(#pad0539775b)" style="fill: none; stroke: #0000ff; stroke-width: 9; stroke-linecap: square"/>
   </g>
   <g id="line2d_32">
    <path d="M 301.631534 201.6 
L 1823.449716 201.6 
L 1823.449716 201.6 
" clip-path="url(#pad0539775b)" style="fill: none; stroke: #ff0000; stroke-width: 9; stroke-linecap: square"/>
   </g>
   <g id="line2d_33">
    <path d="M 301.631534 1114.677709 
L 1823.449716 1114.677709 
L 1823.449716 1114.677709 
" clip-path="url(#pad0539775b)" style="fill: none; stroke: #ffa500; stroke-width: 9; stroke-linecap: square"/>
   </g>
   <g id="patch_3">
    <path d="M 225.540625 1260 
L 225.540625 151.2 
" style="fill: none; stroke: #000000; stroke-width: 7; stroke-linejoin: miter; stroke-linecap: square"/>
   </g>
   <g id="patch_4">
    <path d="M 1899.540625 1260 
L 1899.540625 151.2 
" style="fill: none; stroke: #000000; stroke-width: 7; stroke-linejoin: miter; stroke-linecap: square"/>
   </g>
   <g id="patch_5">
    <path d="M 225.540625 1260 
L 1899.540625 1260 
" style="fill: none; stroke: #000000; stroke-width: 7; stroke-linejoin: miter; stroke-linecap: square"/>
   </g>
   <g id="patch_6">
    <path d="M 225.540625 151.2 
L 1899.540625 151.2 
" style="fill: none; stroke: #000000; stroke-width: 7; stroke-linejoin: miter; stroke-linecap: square"/>
   </g>
   <g id="text_18">
    <!-- Generated with ApexHDL -->
    <g style="fill: #808080; opacity: 0.6" transform="translate(2029.19875 326.095313) rotate(-270) scale(0.6 -0.6)">
     <defs>
      <path id="DejaVuSans-47" d="M 3809 666 
L 3809 1919 
L 2778 1919 
L 2778 2438 
L 4434 2438 
L 4434 434 
Q 4069 175 3628 42 
Q 3188 -91 2688 -91 
Q 1594 -91 976 548 
Q 359 1188 359 2328 
Q 359 3472 976 4111 
Q 1594 4750 2688 4750 
Q 3144 4750 3555 4637 
Q 3966 4525 4313 4306 
L 4313 3634 
Q 3963 3931 3569 4081 
Q 3175 4231 2741 4231 
Q 1884 4231 1454 3753 
Q 1025 3275 1025 2328 
Q 1025 1384 1454 906 
Q 1884 428 2741 428 
Q 3075 428 3337 486 
Q 3600 544 3809 666 
z
" transform="scale(0.015625)"/>
      <path id="DejaVuSans-65" d="M 3597 1894 
L 3597 1613 
L 953 1613 
Q 991 1019 1311 708 
Q 1631 397 2203 397 
Q 2534 397 2845 478 
Q 3156 559 3463 722 
L 3463 178 
Q 3153 47 2828 -22 
Q 2503 -91 2169 -91 
Q 1331 -91 842 396 
Q 353 884 353 1716 
Q 353 2575 817 3079 
Q 1281 3584 2069 3584 
Q 2775 3584 3186 3129 
Q 3597 2675 3597 1894 
z
M 3022 2063 
Q 3016 2534 2758 2815 
Q 2500 3097 2075 3097 
Q 1594 3097 1305 2825 
Q 1016 2553 972 2059 
L 3022 2063 
z
" transform="scale(0.015625)"/>
      <path id="DejaVuSans-61" d="M 2194 1759 
Q 1497 1759 1228 1600 
Q 959 1441 959 1056 
Q 959 750 1161 570 
Q 1363 391 1709 391 
Q 2188 391 2477 730 
Q 2766 1069 2766 1631 
L 2766 1759 
L 2194 1759 
z
M 3341 1997 
L 3341 0 
L 2766 0 
L 2766 531 
Q 2569 213 2275 61 
Q 1981 -91 1556 -91 
Q 1019 -91 701 211 
Q 384 513 384 1019 
Q 384 1609 779 1909 
Q 1175 2209 1959 2209 
L 2766 2209 
L 2766 2266 
Q 2766 2663 2505 2880 
Q 2244 3097 1772 3097 
Q 1472 3097 1187 3025 
Q 903 2953 641 2809 
L 641 3341 
Q 956 3463 1253 3523 
Q 1550 3584 1831 3584 
Q 2591 3584 2966 3190 
Q 3341 2797 3341 1997 
z
" transform="scale(0.015625)"/>
      <path id="DejaVuSans-64" d="M 2906 2969 
L 2906 4863 
L 3481 4863 
L 3481 0 
L 2906 0 
L 2906 525 
Q 2725 213 2448 61 
Q 2172 -91 1784 -91 
Q 1150 -91 751 415 
Q 353 922 353 1747 
Q 353 2572 751 3078 
Q 1150 3584 1784 3584 
Q 2172 3584 2448 3432 
Q 2725 3281 2906 2969 
z
M 947 1747 
Q 947 1113 1208 752 
Q 1469 391 1925 391 
Q 2381 391 2643 752 
Q 2906 1113 2906 1747 
Q 2906 2381 2643 2742 
Q 2381 3103 1925 3103 
Q 1469 3103 1208 2742 
Q 947 2381 947 1747 
z
" transform="scale(0.015625)"/>
      <path id="DejaVuSans-20" transform="scale(0.015625)"/>
      <path id="DejaVuSans-77" d="M 269 3500 
L 844 3500 
L 1563 769 
L 2278 3500 
L 2956 3500 
L 3675 769 
L 4391 3500 
L 4966 3500 
L 4050 0 
L 3372 0 
L 2619 2869 
L 1863 0 
L 1184 0 
L 269 3500 
z
" transform="scale(0.015625)"/>
      <path id="DejaVuSans-69" d="M 603 3500 
L 1178 3500 
L 1178 0 
L 603 0 
L 603 3500 
z
M 603 4863 
L 1178 4863 
L 1178 4134 
L 603 4134 
L 603 4863 
z
" transform="scale(0.015625)"/>
      <path id="DejaVuSans-68" d="M 3513 2113 
L 3513 0 
L 2938 0 
L 2938 2094 
Q 2938 2591 2744 2837 
Q 2550 3084 2163 3084 
Q 1697 3084 1428 2787 
Q 1159 2491 1159 1978 
L 1159 0 
L 581 0 
L 581 4863 
L 1159 4863 
L 1159 2956 
Q 1366 3272 1645 3428 
Q 1925 3584 2291 3584 
Q 2894 3584 3203 3211 
Q 3513 2838 3513 2113 
z
" transform="scale(0.015625)"/>
      <path id="DejaVuSans-41" d="M 2188 4044 
L 1331 1722 
L 3047 1722 
L 2188 4044 
z
M 1831 4666 
L 2547 4666 
L 4325 0 
L 3669 0 
L 3244 1197 
L 1141 1197 
L 716 0 
L 50 0 
L 1831 4666 
z
" transform="scale(0.015625)"/>
      <path id="DejaVuSans-78" d="M 3513 3500 
L 2247 1797 
L 3578 0 
L 2900 0 
L 1881 1375 
L 863 0 
L 184 0 
L 1544 1831 
L 300 3500 
L 978 3500 
L 1906 2253 
L 2834 3500 
L 3513 3500 
z
" transform="scale(0.015625)"/>
      <path id="DejaVuSans-48" d="M 628 4666 
L 1259 4666 
L 1259 2753 
L 3553 2753 
L 3553 4666 
L 4184 4666 
L 4184 0 
L 3553 0 
L 3553 2222 
L 1259 2222 
L 1259 0 
L 628 0 
L 628 4666 
z
" transform="scale(0.015625)"/>
      <path id="DejaVuSans-44" d="M 1259 4147 
L 1259 519 
L 2022 519 
Q 2988 519 3436 956 
Q 3884 1394 3884 2338 
Q 3884 3275 3436 3711 
Q 2988 4147 2022 4147 
L 1259 4147 
z
M 628 4666 
L 1925 4666 
Q 3281 4666 3915 4102 
Q 4550 3538 4550 2338 
Q 4550 1131 3912 565 
Q 3275 0 1925 0 
L 628 0 
L 628 4666 
z
" transform="scale(0.015625)"/>
      <path id="DejaVuSans-4c" d="M 628 4666 
L 1259 4666 
L 1259 531 
L 3531 531 
L 3531 0 
L 628 0 
L 628 4666 
z
" transform="scale(0.015625)"/>
     </defs>
     <use xlink:href="#DejaVuSans-47"/>
     <use xlink:href="#DejaVuSans-65" transform="translate(77.490234 0)"/>
     <use xlink:href="#DejaVuSans-6e" transform="translate(139.013672 0)"/>
     <use xlink:href="#DejaVuSans-65" transform="translate(202.392578 0)"/>
     <use xlink:href="#DejaVuSans-72" transform="translate(263.916016 0)"/>
     <use xlink:href="#DejaVuSans-61" transform="translate(305.029297 0)"/>
     <use xlink:href="#DejaVuSans-74" transform="translate(366.308594 0)"/>
     <use xlink:href="#DejaVuSans-65" transform="translate(405.517578 0)"/>
     <use xlink:href="#DejaVuSans-64" transform="translate(467.041016 0)"/>
     <use xlink:href="#DejaVuSans-20" transform="translate(530.517578 0)"/>
     <use xlink:href="#DejaVuSans-77" transform="translate(562.304688 0)"/>
     <use xlink:href="#DejaVuSans-69" transform="translate(644.091797 0)"/>
     <use xlink:href="#DejaVuSans-74" transform="translate(671.875 0)"/>
     <use xlink:href="#DejaVuSans-68" transform="translate(711.083984 0)"/>
     <use xlink:href="#DejaVuSans-20" transform="translate(774.462891 0)"/>
     <use xlink:href="#DejaVuSans-41" transform="translate(806.25 0)"/>
     <use xlink:href="#DejaVuSans-70" transform="translate(874.658203 0)"/>
     <use xlink:href="#DejaVuSans-65" transform="translate(938.134766 0)"/>
     <use xlink:href="#DejaVuSans-78" transform="translate(997.908203 0)"/>
     <use xlink:href="#DejaVuSans-48" transform="translate(1057.087891 0)"/>
     <use xlink:href="#DejaVuSans-44" transform="translate(1132.283203 0)"/>
     <use xlink:href="#DejaVuSans-4c" transform="translate(1209.285156 0)"/>
    </g>
   </g>
   <g id="text_19">
    <!-- during simulation -->
    <g transform="translate(843.626563 131.2) scale(0.5 -0.5)">
     <defs>
      <path id="DejaVuSans-67" d="M 2906 1791 
Q 2906 2416 2648 2759 
Q 2391 3103 1925 3103 
Q 1463 3103 1205 2759 
Q 947 2416 947 1791 
Q 947 1169 1205 825 
Q 1463 481 1925 481 
Q 2391 481 2648 825 
Q 2906 1169 2906 1791 
z
M 3481 434 
Q 3481 -459 3084 -895 
Q 2688 -1331 1869 -1331 
Q 1566 -1331 1297 -1286 
Q 1028 -1241 775 -1147 
L 775 -588 
Q 1028 -725 1275 -790 
Q 1522 -856 1778 -856 
Q 2344 -856 2625 -561 
Q 2906 -266 2906 331 
L 2906 616 
Q 2728 306 2450 153 
Q 2172 0 1784 0 
Q 1141 0 747 490 
Q 353 981 353 1791 
Q 353 2603 747 3093 
Q 1141 3584 1784 3584 
Q 2172 3584 2450 3431 
Q 2728 3278 2906 2969 
L 2906 3500 
L 3481 3500 
L 3481 434 
z
" transform="scale(0.015625)"/>
      <path id="DejaVuSans-73" d="M 2834 3397 
L 2834 2853 
Q 2591 2978 2328 3040 
Q 2066 3103 1784 3103 
Q 1356 3103 1142 2972 
Q 928 2841 928 2578 
Q 928 2378 1081 2264 
Q 1234 2150 1697 2047 
L 1894 2003 
Q 2506 1872 2764 1633 
Q 3022 1394 3022 966 
Q 3022 478 2636 193 
Q 2250 -91 1575 -91 
Q 1294 -91 989 -36 
Q 684 19 347 128 
L 347 722 
Q 666 556 975 473 
Q 1284 391 1588 391 
Q 1994 391 2212 530 
Q 2431 669 2431 922 
Q 2431 1156 2273 1281 
Q 2116 1406 1581 1522 
L 1381 1569 
Q 847 1681 609 1914 
Q 372 2147 372 2553 
Q 372 3047 722 3315 
Q 1072 3584 1716 3584 
Q 2034 3584 2315 3537 
Q 2597 3491 2834 3397 
z
" transform="scale(0.015625)"/>
      <path id="DejaVuSans-6d" d="M 3328 2828 
Q 3544 3216 3844 3400 
Q 4144 3584 4550 3584 
Q 5097 3584 5394 3201 
Q 5691 2819 5691 2113 
L 5691 0 
L 5113 0 
L 5113 2094 
Q 5113 2597 4934 2840 
Q 4756 3084 4391 3084 
Q 3944 3084 3684 2787 
Q 3425 2491 3425 1978 
L 3425 0 
L 2847 0 
L 2847 2094 
Q 2847 2600 2669 2842 
Q 2491 3084 2119 3084 
Q 1678 3084 1418 2786 
Q 1159 2488 1159 1978 
L 1159 0 
L 581 0 
L 581 3500 
L 1159 3500 
L 1159 2956 
Q 1356 3278 1631 3431 
Q 1906 3584 2284 3584 
Q 2666 3584 2933 3390 
Q 3200 3197 3328 2828 
z
" transform="scale(0.015625)"/>
      <path id="DejaVuSans-6c" d="M 603 4863 
L 1178 4863 
L 1178 0 
L 603 0 
L 603 4863 
z
" transform="scale(0.015625)"/>
     </defs>
     <use xlink:href="#DejaVuSans-64"/>
     <use xlink:href="#DejaVuSans-75" transform="translate(63.476562 0)"/>
     <use xlink:href="#DejaVuSans-72" transform="translate(126.855469 0)"/>
     <use xlink:href="#DejaVuSans-69" transform="translate(167.96875 0)"/>
     <use xlink:href="#DejaVuSans-6e" transform="translate(195.751953 0)"/>
     <use xlink:href="#DejaVuSans-67" transform="translate(259.130859 0)"/>
     <use xlink:href="#DejaVuSans-20" transform="translate(322.607422 0)"/>
     <use xlink:href="#DejaVuSans-73" transform="translate(354.394531 0)"/>
     <use xlink:href="#DejaVuSans-69" transform="translate(406.494141 0)"/>
     <use xlink:href="#DejaVuSans-6d" transform="translate(434.277344 0)"/>
     <use xlink:href="#DejaVuSans-75" transform="translate(531.689453 0)"/>
     <use xlink:href="#DejaVuSans-6c" transform="translate(595.068359 0)"/>
     <use xlink:href="#DejaVuSans-61" transform="translate(622.851562 0)"/>
     <use xlink:href="#DejaVuSans-74" transform="translate(684.130859 0)"/>
     <use xlink:href="#DejaVuSans-69" transform="translate(723.339844 0)"/>
     <use xlink:href="#DejaVuSans-6f" transform="translate(751.123047 0)"/>
     <use xlink:href="#DejaVuSans-6e" transform="translate(812.304688 0)"/>
    </g>
   </g>
   <g id="legend_1">
    <g id="line2d_34">
     <path d="M 123.240625 1449.470625 
L 183.240625 1449.470625 
L 243.240625 1449.470625 
" style="fill: none; stroke: #0000ff; stroke-width: 9; stroke-linecap: square"/>
    </g>
    <g id="text_20">
     <!-- Errors -->
     <g transform="translate(291.240625 1470.470625) scale(0.6 -0.6)">
      <defs>
       <path id="DejaVuSans-Bold-45" d="M 588 4666 
L 3834 4666 
L 3834 3756 
L 1791 3756 
L 1791 2888 
L 3713 2888 
L 3713 1978 
L 1791 1978 
L 1791 909 
L 3903 909 
L 3903 0 
L 588 0 
L 588 4666 
z
" transform="scale(0.015625)"/>
       <path id="DejaVuSans-Bold-72" d="M 3138 2547 
Q 2991 2616 2845 2648 
Q 2700 2681 2553 2681 
Q 2122 2681 1889 2404 
Q 1656 2128 1656 1613 
L 1656 0 
L 538 0 
L 538 3500 
L 1656 3500 
L 1656 2925 
Q 1872 3269 2151 3426 
Q 2431 3584 2822 3584 
Q 2878 3584 2943 3579 
Q 3009 3575 3134 3559 
L 3138 2547 
z
" transform="scale(0.015625)"/>
       <path id="DejaVuSans-Bold-6f" d="M 2203 2784 
Q 1831 2784 1636 2517 
Q 1441 2250 1441 1747 
Q 1441 1244 1636 976 
Q 1831 709 2203 709 
Q 2569 709 2762 976 
Q 2956 1244 2956 1747 
Q 2956 2250 2762 2517 
Q 2569 2784 2203 2784 
z
M 2203 3584 
Q 3106 3584 3614 3096 
Q 4122 2609 4122 1747 
Q 4122 884 3614 396 
Q 3106 -91 2203 -91 
Q 1297 -91 786 396 
Q 275 884 275 1747 
Q 275 2609 786 3096 
Q 1297 3584 2203 3584 
z
" transform="scale(0.015625)"/>
       <path id="DejaVuSans-Bold-73" d="M 3272 3391 
L 3272 2541 
Q 2913 2691 2578 2766 
Q 2244 2841 1947 2841 
Q 1628 2841 1473 2761 
Q 1319 2681 1319 2516 
Q 1319 2381 1436 2309 
Q 1553 2238 1856 2203 
L 2053 2175 
Q 2913 2066 3209 1816 
Q 3506 1566 3506 1031 
Q 3506 472 3093 190 
Q 2681 -91 1863 -91 
Q 1516 -91 1145 -36 
Q 775 19 384 128 
L 384 978 
Q 719 816 1070 734 
Q 1422 653 1784 653 
Q 2113 653 2278 743 
Q 2444 834 2444 1013 
Q 2444 1163 2330 1236 
Q 2216 1309 1875 1350 
L 1678 1375 
Q 931 1469 631 1722 
Q 331 1975 331 2491 
Q 331 3047 712 3315 
Q 1094 3584 1881 3584 
Q 2191 3584 2531 3537 
Q 2872 3491 3272 3391 
z
" transform="scale(0.015625)"/>
      </defs>
      <use xlink:href="#DejaVuSans-Bold-45"/>
      <use xlink:href="#DejaVuSans-Bold-72" transform="translate(68.310547 0)"/>
      <use xlink:href="#DejaVuSans-Bold-72" transform="translate(117.626953 0)"/>
      <use xlink:href="#DejaVuSans-Bold-6f" transform="translate(166.943359 0)"/>
      <use xlink:href="#DejaVuSans-Bold-72" transform="translate(235.644531 0)"/>
      <use xlink:href="#DejaVuSans-Bold-73" transform="translate(284.960938 0)"/>
     </g>
    </g>
    <g id="line2d_35">
     <path d="M 617.921875 1449.470625 
L 677.921875 1449.470625 
L 737.921875 1449.470625 
" style="fill: none; stroke: #ff0000; stroke-width: 9; stroke-linecap: square"/>
    </g>
    <g id="text_21">
     <!-- Max = 0.406 -->
     <g transform="translate(785.921875 1470.470625) scale(0.6 -0.6)">
      <defs>
       <path id="DejaVuSans-Bold-4d" d="M 588 4666 
L 2119 4666 
L 3181 2169 
L 4250 4666 
L 5778 4666 
L 5778 0 
L 4641 0 
L 4641 3413 
L 3566 897 
L 2803 897 
L 1728 3413 
L 1728 0 
L 588 0 
L 588 4666 
z
" transform="scale(0.015625)"/>
       <path id="DejaVuSans-Bold-61" d="M 2106 1575 
Q 1756 1575 1579 1456 
Q 1403 1338 1403 1106 
Q 1403 894 1545 773 
Q 1688 653 1941 653 
Q 2256 653 2472 879 
Q 2688 1106 2688 1447 
L 2688 1575 
L 2106 1575 
z
M 3816 1997 
L 3816 0 
L 2688 0 
L 2688 519 
Q 2463 200 2181 54 
Q 1900 -91 1497 -91 
Q 953 -91 614 226 
Q 275 544 275 1050 
Q 275 1666 698 1953 
Q 1122 2241 2028 2241 
L 2688 2241 
L 2688 2328 
Q 2688 2594 2478 2717 
Q 2269 2841 1825 2841 
Q 1466 2841 1156 2769 
Q 847 2697 581 2553 
L 581 3406 
Q 941 3494 1303 3539 
Q 1666 3584 2028 3584 
Q 2975 3584 3395 3211 
Q 3816 2838 3816 1997 
z
" transform="scale(0.015625)"/>
       <path id="DejaVuSans-Bold-78" d="M 1422 1791 
L 159 3500 
L 1344 3500 
L 2059 2463 
L 2784 3500 
L 3969 3500 
L 2706 1797 
L 4031 0 
L 2847 0 
L 2059 1106 
L 1281 0 
L 97 0 
L 1422 1791 
z
" transform="scale(0.015625)"/>
       <path id="DejaVuSans-Bold-20" transform="scale(0.015625)"/>
       <path id="DejaVuSans-Bold-3d" d="M 678 3084 
L 4684 3084 
L 4684 2350 
L 678 2350 
L 678 3084 
z
M 678 1663 
L 4684 1663 
L 4684 922 
L 678 922 
L 678 1663 
z
" transform="scale(0.015625)"/>
       <path id="DejaVuSans-Bold-30" d="M 2944 2338 
Q 2944 3213 2780 3570 
Q 2616 3928 2228 3928 
Q 1841 3928 1675 3570 
Q 1509 3213 1509 2338 
Q 1509 1453 1675 1090 
Q 1841 728 2228 728 
Q 2613 728 2778 1090 
Q 2944 1453 2944 2338 
z
M 4147 2328 
Q 4147 1169 3647 539 
Q 3147 -91 2228 -91 
Q 1306 -91 806 539 
Q 306 1169 306 2328 
Q 306 3491 806 4120 
Q 1306 4750 2228 4750 
Q 3147 4750 3647 4120 
Q 4147 3491 4147 2328 
z
" transform="scale(0.015625)"/>
       <path id="DejaVuSans-Bold-2e" d="M 653 1209 
L 1778 1209 
L 1778 0 
L 653 0 
L 653 1209 
z
" transform="scale(0.015625)"/>
       <path id="DejaVuSans-Bold-34" d="M 2356 3675 
L 1038 1722 
L 2356 1722 
L 2356 3675 
z
M 2156 4666 
L 3494 4666 
L 3494 1722 
L 4159 1722 
L 4159 850 
L 3494 850 
L 3494 0 
L 2356 0 
L 2356 850 
L 288 850 
L 288 1881 
L 2156 4666 
z
" transform="scale(0.015625)"/>
       <path id="DejaVuSans-Bold-36" d="M 2316 2303 
Q 2000 2303 1842 2098 
Q 1684 1894 1684 1484 
Q 1684 1075 1842 870 
Q 2000 666 2316 666 
Q 2634 666 2792 870 
Q 2950 1075 2950 1484 
Q 2950 1894 2792 2098 
Q 2634 2303 2316 2303 
z
M 3803 4544 
L 3803 3681 
Q 3506 3822 3243 3889 
Q 2981 3956 2731 3956 
Q 2194 3956 1894 3657 
Q 1594 3359 1544 2772 
Q 1750 2925 1990 3001 
Q 2231 3078 2516 3078 
Q 3231 3078 3670 2659 
Q 4109 2241 4109 1563 
Q 4109 813 3618 361 
Q 3128 -91 2303 -91 
Q 1394 -91 895 523 
Q 397 1138 397 2266 
Q 397 3422 980 4083 
Q 1563 4744 2578 4744 
Q 2900 4744 3203 4694 
Q 3506 4644 3803 4544 
z
" transform="scale(0.015625)"/>
      </defs>
      <use xlink:href="#DejaVuSans-Bold-4d"/>
      <use xlink:href="#DejaVuSans-Bold-61" transform="translate(99.511719 0)"/>
      <use xlink:href="#DejaVuSans-Bold-78" transform="translate(166.992188 0)"/>
      <use xlink:href="#DejaVuSans-Bold-20" transform="translate(231.494141 0)"/>
      <use xlink:href="#DejaVuSans-Bold-3d" transform="translate(266.308594 0)"/>
      <use xlink:href="#DejaVuSans-Bold-20" transform="translate(350.097656 0)"/>
      <use xlink:href="#DejaVuSans-Bold-30" transform="translate(384.912109 0)"/>
      <use xlink:href="#DejaVuSans-Bold-2e" transform="translate(454.492188 0)"/>
      <use xlink:href="#DejaVuSans-Bold-34" transform="translate(492.480469 0)"/>
      <use xlink:href="#DejaVuSans-Bold-30" transform="translate(562.060547 0)"/>
      <use xlink:href="#DejaVuSans-Bold-36" transform="translate(631.640625 0)"/>
     </g>
    </g>
    <g id="line2d_36">
     <path d="M 1326.653125 1449.470625 
L 1386.653125 1449.470625 
L 1446.653125 1449.470625 
" style="fill: none; stroke: #ffa500; stroke-width: 9; stroke-linecap: square"/>
    </g>
    <g id="text_22">
     <!-- Mean = 0.0383 -->
     <g transform="translate(1494.653125 1470.470625) scale(0.6 -0.6)">
      <defs>
       <path id="DejaVuSans-Bold-65" d="M 4031 1759 
L 4031 1441 
L 1416 1441 
Q 1456 1047 1700 850 
Q 1944 653 2381 653 
Q 2734 653 3104 758 
Q 3475 863 3866 1075 
L 3866 213 
Q 3469 63 3072 -14 
Q 2675 -91 2278 -91 
Q 1328 -91 801 392 
Q 275 875 275 1747 
Q 275 2603 792 3093 
Q 1309 3584 2216 3584 
Q 3041 3584 3536 3087 
Q 4031 2591 4031 1759 
z
M 2881 2131 
Q 2881 2450 2695 2645 
Q 2509 2841 2209 2841 
Q 1884 2841 1681 2658 
Q 1478 2475 1428 2131 
L 2881 2131 
z
" transform="scale(0.015625)"/>
       <path id="DejaVuSans-Bold-6e" d="M 4056 2131 
L 4056 0 
L 2931 0 
L 2931 347 
L 2931 1631 
Q 2931 2084 2911 2256 
Q 2891 2428 2841 2509 
Q 2775 2619 2662 2680 
Q 2550 2741 2406 2741 
Q 2056 2741 1856 2470 
Q 1656 2200 1656 1722 
L 1656 0 
L 538 0 
L 538 3500 
L 1656 3500 
L 1656 2988 
Q 1909 3294 2193 3439 
Q 2478 3584 2822 3584 
Q 3428 3584 3742 3212 
Q 4056 2841 4056 2131 
z
" transform="scale(0.015625)"/>
       <path id="DejaVuSans-Bold-33" d="M 2981 2516 
Q 3453 2394 3698 2092 
Q 3944 1791 3944 1325 
Q 3944 631 3412 270 
Q 2881 -91 1863 -91 
Q 1503 -91 1142 -33 
Q 781 25 428 141 
L 428 1069 
Q 766 900 1098 814 
Q 1431 728 1753 728 
Q 2231 728 2486 893 
Q 2741 1059 2741 1369 
Q 2741 1688 2480 1852 
Q 2219 2016 1709 2016 
L 1228 2016 
L 1228 2791 
L 1734 2791 
Q 2188 2791 2409 2933 
Q 2631 3075 2631 3366 
Q 2631 3634 2415 3781 
Q 2200 3928 1806 3928 
Q 1516 3928 1219 3862 
Q 922 3797 628 3669 
L 628 4550 
Q 984 4650 1334 4700 
Q 1684 4750 2022 4750 
Q 2931 4750 3382 4451 
Q 3834 4153 3834 3553 
Q 3834 3144 3618 2883 
Q 3403 2622 2981 2516 
z
" transform="scale(0.015625)"/>
       <path id="DejaVuSans-Bold-38" d="M 2228 2088 
Q 1891 2088 1709 1903 
Q 1528 1719 1528 1375 
Q 1528 1031 1709 848 
Q 1891 666 2228 666 
Q 2563 666 2741 848 
Q 2919 1031 2919 1375 
Q 2919 1722 2741 1905 
Q 2563 2088 2228 2088 
z
M 1350 2484 
Q 925 2613 709 2878 
Q 494 3144 494 3541 
Q 494 4131 934 4440 
Q 1375 4750 2228 4750 
Q 3075 4750 3515 4442 
Q 3956 4134 3956 3541 
Q 3956 3144 3739 2878 
Q 3522 2613 3097 2484 
Q 3572 2353 3814 2058 
Q 4056 1763 4056 1313 
Q 4056 619 3595 264 
Q 3134 -91 2228 -91 
Q 1319 -91 855 264 
Q 391 619 391 1313 
Q 391 1763 633 2058 
Q 875 2353 1350 2484 
z
M 1631 3419 
Q 1631 3141 1786 2991 
Q 1941 2841 2228 2841 
Q 2509 2841 2662 2991 
Q 2816 3141 2816 3419 
Q 2816 3697 2662 3845 
Q 2509 3994 2228 3994 
Q 1941 3994 1786 3844 
Q 1631 3694 1631 3419 
z
" transform="scale(0.015625)"/>
      </defs>
      <use xlink:href="#DejaVuSans-Bold-4d"/>
      <use xlink:href="#DejaVuSans-Bold-65" transform="translate(99.511719 0)"/>
      <use xlink:href="#DejaVuSans-Bold-61" transform="translate(167.333984 0)"/>
      <use xlink:href="#DejaVuSans-Bold-6e" transform="translate(234.814453 0)"/>
      <use xlink:href="#DejaVuSans-Bold-20" transform="translate(306.005859 0)"/>
      <use xlink:href="#DejaVuSans-Bold-3d" transform="translate(340.820312 0)"/>
      <use xlink:href="#DejaVuSans-Bold-20" transform="translate(424.609375 0)"/>
      <use xlink:href="#DejaVuSans-Bold-30" transform="translate(459.423828 0)"/>
      <use xlink:href="#DejaVuSans-Bold-2e" transform="translate(529.003906 0)"/>
      <use xlink:href="#DejaVuSans-Bold-30" transform="translate(566.992188 0)"/>
      <use xlink:href="#DejaVuSans-Bold-33" transform="translate(636.572266 0)"/>
      <use xlink:href="#DejaVuSans-Bold-38" transform="translate(706.152344 0)"/>
      <use xlink:href="#DejaVuSans-Bold-33" transform="translate(775.732422 0)"/>
     </g>
    </g>
   </g>
  </g>
  <g id="text_23">
   <!-- Relative errors -->
   <g transform="translate(699.346875 67.9875) scale(0.8 -0.8)">
    <defs>
     <path id="DejaVuSans-Bold-52" d="M 2297 2597 
Q 2675 2597 2839 2737 
Q 3003 2878 3003 3200 
Q 3003 3519 2839 3656 
Q 2675 3794 2297 3794 
L 1791 3794 
L 1791 2597 
L 2297 2597 
z
M 1791 1766 
L 1791 0 
L 588 0 
L 588 4666 
L 2425 4666 
Q 3347 4666 3776 4356 
Q 4206 4047 4206 3378 
Q 4206 2916 3982 2619 
Q 3759 2322 3309 2181 
Q 3556 2125 3751 1926 
Q 3947 1728 4147 1325 
L 4800 0 
L 3519 0 
L 2950 1159 
Q 2778 1509 2601 1637 
Q 2425 1766 2131 1766 
L 1791 1766 
z
" transform="scale(0.015625)"/>
     <path id="DejaVuSans-Bold-6c" d="M 538 4863 
L 1656 4863 
L 1656 0 
L 538 0 
L 538 4863 
z
" transform="scale(0.015625)"/>
     <path id="DejaVuSans-Bold-74" d="M 1759 4494 
L 1759 3500 
L 2913 3500 
L 2913 2700 
L 1759 2700 
L 1759 1216 
Q 1759 972 1856 886 
Q 1953 800 2241 800 
L 2816 800 
L 2816 0 
L 1856 0 
Q 1194 0 917 276 
Q 641 553 641 1216 
L 641 2700 
L 84 2700 
L 84 3500 
L 641 3500 
L 641 4494 
L 1759 4494 
z
" transform="scale(0.015625)"/>
     <path id="DejaVuSans-Bold-69" d="M 538 3500 
L 1656 3500 
L 1656 0 
L 538 0 
L 538 3500 
z
M 538 4863 
L 1656 4863 
L 1656 3950 
L 538 3950 
L 538 4863 
z
" transform="scale(0.015625)"/>
     <path id="DejaVuSans-Bold-76" d="M 97 3500 
L 1216 3500 
L 2088 1081 
L 2956 3500 
L 4078 3500 
L 2700 0 
L 1472 0 
L 97 3500 
z
" transform="scale(0.015625)"/>
    </defs>
    <use xlink:href="#DejaVuSans-Bold-52"/>
    <use xlink:href="#DejaVuSans-Bold-65" transform="translate(77.001953 0)"/>
    <use xlink:href="#DejaVuSans-Bold-6c" transform="translate(144.824219 0)"/>
    <use xlink:href="#DejaVuSans-Bold-61" transform="translate(179.101562 0)"/>
    <use xlink:href="#DejaVuSans-Bold-74" transform="translate(246.582031 0)"/>
    <use xlink:href="#DejaVuSans-Bold-69" transform="translate(294.384766 0)"/>
    <use xlink:href="#DejaVuSans-Bold-76" transform="translate(328.662109 0)"/>
    <use xlink:href="#DejaVuSans-Bold-65" transform="translate(393.847656 0)"/>
    <use xlink:href="#DejaVuSans-Bold-20" transform="translate(461.669922 0)"/>
    <use xlink:href="#DejaVuSans-Bold-65" transform="translate(496.484375 0)"/>
    <use xlink:href="#DejaVuSans-Bold-72" transform="translate(564.306641 0)"/>
    <use xlink:href="#DejaVuSans-Bold-72" transform="translate(613.623047 0)"/>
    <use xlink:href="#DejaVuSans-Bold-6f" transform="translate(662.939453 0)"/>
    <use xlink:href="#DejaVuSans-Bold-72" transform="translate(731.640625 0)"/>
    <use xlink:href="#DejaVuSans-Bold-73" transform="translate(780.957031 0)"/>
   </g>
  </g>
 </g>
 <defs>
  <clipPath id="pad0539775b">
   <rect x="225.540625" y="151.2" width="1674" height="1108.8"/>
  </clipPath>
 </defs>
</svg>
